{
copyright = "Copyright \U00A9 2019 IBM Corp. with Reserved Font Name \"Plex\"\012This Font Software is licensed under the SIL Open Font License, Version 1.1.\012This license is copied below, and is also available with a FAQ at: http://scripts.sil.org/OFL.";
customParameters = (
{
name = licenseURL;
value = "http://scripts.sil.org/OFL";
},
{
name = vendorID;
value = "";
},
{
name = glyphOrder;
value = (
    ".notdef",
    uni0000,
    uni000D,
    space,
    a,
    b,
    c,
    d,
    e,
    f,
    g,
    "g.alt02",
    h,
    i,
    j,
    k,
    l,
    m,
    n,
    o,
    p,
    q,
    r,
    s,
    t,
    u,
    v,
    w,
    x,
    y,
    z,
    A,
    B,
    C,
    D,
    E,
    F,
    G,
    H,
    I,
    J,
    K,
    L,
    M,
    N,
    O,
    P,
    Q,
    R,
    S,
    T,
    U,
    V,
    W,
    X,
    Y,
    Z,
    zero,
    one,
    two,
    three,
    four,
    five,
    six,
    seven,
    eight,
    nine,
    ampersand,
    at,
    hyphen,
    uni00AD,
    endash,
    emdash,
    underscore,
    period,
    ellipsis,
    colon,
    comma,
    semicolon,
    quotesingle,
    quotedbl,
    quoteleft,
    quoteright,
    quotedblleft,
    quotedblright,
    quotesinglbase,
    quotedblbase,
    guilsinglleft,
    guilsinglright,
    guillemotleft,
    guillemotright,
    exclamdown,
    exclam,
    questiondown,
    question,
    parenleft,
    parenright,
    bracketleft,
    bracketright,
    braceleft,
    braceright,
    slash,
    backslash,
    fraction,
    percent,
    perthousand,
    bar,
    brokenbar,
    section,
    paragraph,
    copyright,
    registered,
    trademark,
    ordfeminine,
    ordmasculine,
    degree,
    asterisk,
    dagger,
    daggerdbl,
    numbersign,
    asciicircum,
    asciitilde,
    plus,
    minus,
    plusminus,
    multiply,
    divide,
    equal,
    approxequal,
    notequal,
    less,
    greater,
    lessequal,
    greaterequal,
    periodcentered,
    bullet,
    lozenge,
    logicalnot,

glyphs = (
{
glyphname = .notdef;
layers = (
{
layerId = "E47AB2A9-A2CF-4FC9-8B8C-127EA756ED3A";
name = Regular;
paths = (
{
closed = 1;
nodes = (
"32 0 LINE",
"32 780 LINE",
"440 780 LINE",
"440 0 LINE"
);
},
{
closed = 1;
nodes = (
"92 60 LINE",
"380 60 LINE",
"380 720 LINE",
"92 720 LINE"
);
}
);
width = 472;
}
);
},
{
glyphname = a;
lastChange = "2018-11-02 01:54:07 +0000";
layers = (
{
layerId = "E47AB2A9-A2CF-4FC9-8B8C-127EA756ED3A";
name = Regular;
paths = (
{
closed = 1;
nodes = (
"155 528 OFFCURVE",
"93 483 OFFCURVE",
"65 427 CURVE",
"113 382 LINE",
"141 429 OFFCURVE",
"181 459 OFFCURVE",
"244 459 CURVE SMOOTH",
"327 459 OFFCURVE",
"366 419 OFFCURVE",
"366 346 CURVE SMOOTH",
"366 295 LINE",
"264 295 LINE SMOOTH",
"113 295 OFFCURVE",
"44 241 OFFCURVE",
"44 144 CURVE SMOOTH",
"44 48 OFFCURVE",
"108 -12 OFFCURVE",
"217 -12 CURVE SMOOTH",
"289 -12 OFFCURVE",
"343 20 OFFCURVE",
"366 84 CURVE",
"371 84 LINE",
"371 0 LINE",
"446 0 LINE",
"446 354 LINE SMOOTH",
"446 463 OFFCURVE",
"373 528 OFFCURVE",
"248 528 CURVE SMOOTH"
);
},
{
closed = 1;
nodes = (
"366 123 OFFCURVE",
"352 100 OFFCURVE",
"328 83 CURVE SMOOTH",
"304 66 OFFCURVE",
"270 56 OFFCURVE",
"230 56 CURVE SMOOTH",
"167 56 OFFCURVE",
"128 85 OFFCURVE",
"128 136 CURVE SMOOTH",
"128 157 LINE SMOOTH",
"128 208 OFFCURVE",
"168 235 OFFCURVE",
"260 235 CURVE SMOOTH",
"366 235 LINE",
"366 150 LINE SMOOTH"
);
}
);
width = 526;
}
);
leftKerningGroup = a;
rightKerningGroup = a;
unicode = 0061;
},
{
glyphname = b;
layers = (
{
layerId = "E47AB2A9-A2CF-4FC9-8B8C-127EA756ED3A";
name = Regular;
paths = (
{
closed = 1;
nodes = (
"85 740 LINE",
"165 740 LINE",
"165 432 LINE",
"169 432 LINE",
"196 497 OFFCURVE",
"248 528 OFFCURVE",
"320 528 CURVE SMOOTH",
"384 528 OFFCURVE",
"437 502 OFFCURVE",
"474 455 CURVE SMOOTH",
"510 408 OFFCURVE",
"530 341 OFFCURVE",
"530 258 CURVE SMOOTH",
"530 175 OFFCURVE",
"510 108 OFFCURVE",
"474 61 CURVE SMOOTH",
"437 14 OFFCURVE",
"384 -12 OFFCURVE",
"320 -12 CURVE SMOOTH",
"250 -12 OFFCURVE",
"200 20 OFFCURVE",
"169 84 CURVE",
"165 84 LINE",
"165 0 LINE",
"85 0 LINE"
);
},
{
closed = 1;
nodes = (
"389 60 OFFCURVE",
"444 122 OFFCURVE",
"444 214 CURVE SMOOTH",
"444 302 LINE SMOOTH",
"444 394 OFFCURVE",
"389 456 OFFCURVE",
"298 456 CURVE SMOOTH",
"262 456 OFFCURVE",
"228 445 OFFCURVE",
"204 428 CURVE SMOOTH",
"180 411 OFFCURVE",
"165 385 OFFCURVE",
"165 357 CURVE SMOOTH",
"165 165 LINE SMOOTH",
"165 132 OFFCURVE",
"180 106 OFFCURVE",
"204 88 CURVE SMOOTH",
"228 70 OFFCURVE",
"262 60 OFFCURVE",
"298 60 CURVE SMOOTH"
);
}
);
width = 580;
}
);
leftKerningGroup = b;
rightKerningGroup = b;
unicode = 0062;
},
{
glyphname = c;
layers = (
{
layerId = "E47AB2A9-A2CF-4FC9-8B8C-127EA756ED3A";
name = Regular;
paths = (
{
closed = 1;
nodes = (
"205 -12 OFFCURVE",
"147 14 OFFCURVE",
"108 61 CURVE SMOOTH",
"68 108 OFFCURVE",
"47 175 OFFCURVE",
"47 258 CURVE SMOOTH",
"47 341 OFFCURVE",
"68 408 OFFCURVE",
"108 455 CURVE SMOOTH",
"147 502 OFFCURVE",
"205 528 OFFCURVE",
"277 528 CURVE SMOOTH",
"380 528 OFFCURVE",
"439 479 OFFCURVE",
"470 407 CURVE",
"403 373 LINE",
"384 426 OFFCURVE",
"341 457 OFFCURVE",
"277 457 CURVE SMOOTH",
"229 457 OFFCURVE",
"193 441 OFFCURVE",
"169 414 CURVE SMOOTH",
"145 386 OFFCURVE",
"133 347 OFFCURVE",
"133 302 CURVE SMOOTH",
"133 214 LINE SMOOTH",
"133 123 OFFCURVE",
"182 59 OFFCURVE",
"277 59 CURVE SMOOTH",
"342 59 OFFCURVE",
"388 89 OFFCURVE",
"417 149 CURVE",
"475 110 LINE",
"442 35 OFFCURVE",
"376 -12 OFFCURVE",
"277 -12 CURVE SMOOTH"
);
}
);
width = 503;
}
);
leftKerningGroup = c;
rightKerningGroup = c;
unicode = 0063;
},
{
glyphname = d;
layers = (
{
layerId = "E47AB2A9-A2CF-4FC9-8B8C-127EA756ED3A";
name = Regular;
paths = (
{
closed = 1;
nodes = (
"415 84 LINE",
"411 84 LINE",
"380 20 OFFCURVE",
"329 -12 OFFCURVE",
"260 -12 CURVE SMOOTH",
"196 -12 OFFCURVE",
"143 14 OFFCURVE",
"107 61 CURVE SMOOTH",
"70 108 OFFCURVE",
"50 175 OFFCURVE",
"50 258 CURVE SMOOTH",
"50 341 OFFCURVE",
"70 408 OFFCURVE",
"107 455 CURVE SMOOTH",
"143 502 OFFCURVE",
"196 528 OFFCURVE",
"260 528 CURVE SMOOTH",
"332 528 OFFCURVE",
"384 497 OFFCURVE",
"411 432 CURVE",
"415 432 LINE",
"415 740 LINE",
"495 740 LINE",
"495 0 LINE",
"415 0 LINE"
);
},
{
closed = 1;
nodes = (
"318 60 OFFCURVE",
"352 70 OFFCURVE",
"376 88 CURVE SMOOTH",
"400 106 OFFCURVE",
"415 132 OFFCURVE",
"415 165 CURVE SMOOTH",
"415 357 LINE SMOOTH",
"415 385 OFFCURVE",
"400 411 OFFCURVE",
"376 428 CURVE SMOOTH",
"352 445 OFFCURVE",
"318 456 OFFCURVE",
"282 456 CURVE SMOOTH",
"191 456 OFFCURVE",
"136 394 OFFCURVE",
"136 302 CURVE SMOOTH",
"136 214 LINE SMOOTH",
"136 122 OFFCURVE",
"191 60 OFFCURVE",
"282 60 CURVE SMOOTH"
);
}
);
width = 580;
}
);
leftKerningGroup = d;
unicode = 0064;
},
{
glyphname = e;
layers = (
{
layerId = "E47AB2A9-A2CF-4FC9-8B8C-127EA756ED3A";
name = Regular;
paths = (
{
closed = 1;
nodes = (
"208 -12 OFFCURVE",
"151 14 OFFCURVE",
"111 62 CURVE SMOOTH",
"70 109 OFFCURVE",
"47 175 OFFCURVE",
"47 258 CURVE SMOOTH",
"47 339 OFFCURVE",
"70 407 OFFCURVE",
"111 455 CURVE SMOOTH",
"151 502 OFFCURVE",
"208 528 OFFCURVE",
"279 528 CURVE SMOOTH",
"348 528 OFFCURVE",
"403 501 OFFCURVE",
"442 457 CURVE SMOOTH",
"481 412 OFFCURVE",
"502 349 OFFCURVE",
"502 276 CURVE SMOOTH",
"502 238 LINE",
"131 238 LINE",
"131 214 LINE SMOOTH",
"131 170 OFFCURVE",
"146 131 OFFCURVE",
"172 103 CURVE SMOOTH",
"198 75 OFFCURVE",
"236 58 OFFCURVE",
"284 58 CURVE SMOOTH",
"349 58 OFFCURVE",
"399 90 OFFCURVE",
"426 147 CURVE",
"483 106 LINE",
"450 35 OFFCURVE",
"376 -12 OFFCURVE",
"279 -12 CURVE SMOOTH"
);
},
{
closed = 1;
nodes = (
"235 461 OFFCURVE",
"199 445 OFFCURVE",
"173 417 CURVE SMOOTH",
"147 389 OFFCURVE",
"131 350 OFFCURVE",
"131 305 CURVE SMOOTH",
"131 298 LINE",
"416 298 LINE",
"416 309 LINE SMOOTH",
"416 401 OFFCURVE",
"362 461 OFFCURVE",
"279 461 CURVE SMOOTH"
);
}
);
width = 549;
}
);
leftKerningGroup = c;
rightKerningGroup = e;
unicode = 0065;
},
{
glyphname = f;
layers = (
{
layerId = "E47AB2A9-A2CF-4FC9-8B8C-127EA756ED3A";
name = Regular;
paths = (
{
closed = 1;
nodes = (
"113 446 LINE",
"29 446 LINE",
"29 516 LINE",
"113 516 LINE",
"113 620 LINE SMOOTH",
"113 692 OFFCURVE",
"150 740 OFFCURVE",
"226 740 CURVE SMOOTH",
"304 740 LINE",
"304 670 LINE",
"193 670 LINE",
"193 516 LINE",
"304 516 LINE",
"304 446 LINE",
"193 446 LINE",
"193 0 LINE",
"113 0 LINE"
);
}
);
width = 324;
}
);
leftKerningGroup = f;
rightKerningGroup = f;
unicode = 0066;
},
{
glyphname = g;
lastChange = "2018-11-05 19:03:46 +0000";
layers = (
{
layerId = "E47AB2A9-A2CF-4FC9-8B8C-127EA756ED3A";
name = Regular;
paths = (
{
closed = 1;
nodes = (
"495 516 LINE",
"415 516 LINE",
"415 432 LINE",
"411 432 LINE",
"384 497 OFFCURVE",
"331 528 OFFCURVE",
"260 528 CURVE SMOOTH",
"132 528 OFFCURVE",
"50 423 OFFCURVE",
"50 258 CURVE SMOOTH",
"50 93 OFFCURVE",
"132 -12 OFFCURVE",
"260 -12 CURVE SMOOTH",
"332 -12 OFFCURVE",
"380 21 OFFCURVE",
"411 84 CURVE",
"415 84 LINE",
"415 12 LINE SMOOTH",
"415 -89 OFFCURVE",
"361 -142 OFFCURVE",
"268 -142 CURVE SMOOTH",
"208 -142 OFFCURVE",
"163 -122 OFFCURVE",
"129 -86 CURVE",
"82 -141 LINE",
"122 -183 OFFCURVE",
"182 -212 OFFCURVE",
"266 -212 CURVE SMOOTH",
"411 -212 OFFCURVE",
"495 -125 OFFCURVE",
"495 17 CURVE SMOOTH"
);
},
{
closed = 1;
nodes = (
"194 60 OFFCURVE",
"136 124 OFFCURVE",
"136 214 CURVE SMOOTH",
"136 302 LINE SMOOTH",
"136 392 OFFCURVE",
"194 456 OFFCURVE",
"284 456 CURVE SMOOTH",
"357 456 OFFCURVE",
"415 414 OFFCURVE",
"415 357 CURVE SMOOTH",
"415 166 LINE SMOOTH",
"415 98 OFFCURVE",
"356 60 OFFCURVE",
"284 60 CURVE SMOOTH"
);
}
);
width = 580;
}
);
leftKerningGroup = g;
rightKerningGroup = g;
unicode = 0067;
},
{
glyphname = h;
layers = (
{
layerId = "E47AB2A9-A2CF-4FC9-8B8C-127EA756ED3A";
name = Regular;
paths = (
{
closed = 1;
nodes = (
"85 740 LINE",
"165 740 LINE",
"165 432 LINE",
"169 432 LINE",
"194 491 OFFCURVE",
"238 528 OFFCURVE",
"315 528 CURVE SMOOTH",
"422 528 OFFCURVE",
"488 456 OFFCURVE",
"488 331 CURVE SMOOTH",
"488 0 LINE",
"408 0 LINE",
"408 317 LINE SMOOTH",
"408 410 OFFCURVE",
"369 456 OFFCURVE",
"291 456 CURVE SMOOTH",
"259 456 OFFCURVE",
"228 448 OFFCURVE",
"204 432 CURVE SMOOTH",
"180 416 OFFCURVE",
"165 391 OFFCURVE",
"165 358 CURVE SMOOTH",
"165 0 LINE",
"85 0 LINE"
);
}
);
width = 568;
}
);
leftKerningGroup = b;
rightKerningGroup = h;
unicode = 0068;
},
{
glyphname = i;
lastChange = "2018-11-07 04:33:11 +0000";
layers = (
{
layerId = "E47AB2A9-A2CF-4FC9-8B8C-127EA756ED3A";
name = Regular;
paths = (
{
closed = 1;
nodes = (
"90 637 OFFCURVE",
"76 655 OFFCURVE",
"76 682 CURVE SMOOTH",
"76 695 LINE SMOOTH",
"76 722 OFFCURVE",
"90 740 OFFCURVE",
"125 740 CURVE SMOOTH",
"160 740 OFFCURVE",
"174 722 OFFCURVE",
"174 695 CURVE SMOOTH",
"174 682 LINE SMOOTH",
"174 655 OFFCURVE",
"160 637 OFFCURVE",
"125 637 CURVE SMOOTH"
);
},
{
closed = 1;
nodes = (
"85 516 LINE",
"165 516 LINE",
"165 0 LINE",
"85 0 LINE"
);
}
);
width = 250;
}
);
leftKerningGroup = i;
rightKerningGroup = i;
unicode = 0069;
},
{
glyphname = j;
layers = (
{
layerId = "E47AB2A9-A2CF-4FC9-8B8C-127EA756ED3A";
name = Regular;
paths = (
{
closed = 1;
nodes = (
"85 516 LINE",
"165 516 LINE",
"165 -80 LINE SMOOTH",
"165 -152 OFFCURVE",
"130 -200 OFFCURVE",
"53 -200 CURVE SMOOTH",
"1 -200 LINE",
"1 -130 LINE",
"85 -130 LINE"
);
},
{
closed = 1;
nodes = (
"90 637 OFFCURVE",
"76 655 OFFCURVE",
"76 682 CURVE SMOOTH",
"76 695 LINE SMOOTH",
"76 722 OFFCURVE",
"90 740 OFFCURVE",
"125 740 CURVE SMOOTH",
"160 740 OFFCURVE",
"174 722 OFFCURVE",
"174 695 CURVE SMOOTH",
"174 682 LINE SMOOTH",
"174 655 OFFCURVE",
"160 637 OFFCURVE",
"125 637 CURVE SMOOTH"
);
}
);
width = 250;
}
);
leftKerningGroup = j;
rightKerningGroup = j;
unicode = 006A;
},
{
glyphname = k;
layers = (
{
layerId = "E47AB2A9-A2CF-4FC9-8B8C-127EA756ED3A";
name = Regular;
paths = (
{
closed = 1;
nodes = (
"85 740 LINE",
"165 740 LINE",
"165 271 LINE",
"169 271 LINE",
"248 359 LINE",
"394 516 LINE",
"491 516 LINE",
"300 312 LINE",
"510 0 LINE",
"413 0 LINE",
"242 263 LINE",
"165 184 LINE",
"165 0 LINE",
"85 0 LINE"
);
}
);
width = 527;
}
);
leftKerningGroup = b;
rightKerningGroup = k;
unicode = 006B;
},
{
glyphname = l;
lastChange = "2018-11-02 14:40:04 +0000";
layers = (
{
layerId = "E47AB2A9-A2CF-4FC9-8B8C-127EA756ED3A";
name = Regular;
paths = (
{
closed = 1;
nodes = (
"170 0 LINE SMOOTH",
"114 0 OFFCURVE",
"85 35 OFFCURVE",
"85 83 CURVE SMOOTH",
"85 740 LINE",
"165 740 LINE",
"165 70 LINE",
"241 70 LINE",
"241 0 LINE"
);
}
);
width = 272;
}
);
leftKerningGroup = l;
rightKerningGroup = l;
unicode = 006C;
},
{
glyphname = m;
layers = (
{
layerId = "E47AB2A9-A2CF-4FC9-8B8C-127EA756ED3A";
name = Regular;
paths = (
{
closed = 1;
nodes = (
"85 0 LINE",
"85 516 LINE",
"165 516 LINE",
"165 432 LINE",
"169 432 LINE",
"181 459 OFFCURVE",
"196 483 OFFCURVE",
"218 500 CURVE SMOOTH",
"240 517 OFFCURVE",
"268 528 OFFCURVE",
"308 528 CURVE SMOOTH",
"376 528 OFFCURVE",
"438 498 OFFCURVE",
"466 423 CURVE",
"468 423 LINE",
"487 479 OFFCURVE",
"537 528 OFFCURVE",
"625 528 CURVE SMOOTH",
"730 528 OFFCURVE",
"793 456 OFFCURVE",
"793 331 CURVE SMOOTH",
"793 0 LINE",
"713 0 LINE",
"713 317 LINE SMOOTH",
"713 409 OFFCURVE",
"679 456 OFFCURVE",
"600 456 CURVE SMOOTH",
"568 456 OFFCURVE",
"539 448 OFFCURVE",
"516 432 CURVE SMOOTH",
"493 416 OFFCURVE",
"479 391 OFFCURVE",
"479 358 CURVE SMOOTH",
"479 0 LINE",
"399 0 LINE",
"399 317 LINE SMOOTH",
"399 409 OFFCURVE",
"364 456 OFFCURVE",
"288 456 CURVE SMOOTH",
"256 456 OFFCURVE",
"226 448 OFFCURVE",
"203 432 CURVE SMOOTH",
"180 416 OFFCURVE",
"165 391 OFFCURVE",
"165 358 CURVE SMOOTH",
"165 0 LINE"
);
}
);
width = 873;
}
);
leftKerningGroup = m;
rightKerningGroup = h;
unicode = 006D;
},
{
glyphname = n;
layers = (
{
layerId = "E47AB2A9-A2CF-4FC9-8B8C-127EA756ED3A";
name = Regular;
paths = (
{
closed = 1;
nodes = (
"85 0 LINE",
"85 516 LINE",
"165 516 LINE",
"165 432 LINE",
"169 432 LINE",
"194 491 OFFCURVE",
"238 528 OFFCURVE",
"315 528 CURVE SMOOTH",
"422 528 OFFCURVE",
"488 456 OFFCURVE",
"488 331 CURVE SMOOTH",
"488 0 LINE",
"408 0 LINE",
"408 317 LINE SMOOTH",
"408 410 OFFCURVE",
"369 456 OFFCURVE",
"291 456 CURVE SMOOTH",
"259 456 OFFCURVE",
"228 448 OFFCURVE",
"204 432 CURVE SMOOTH",
"180 416 OFFCURVE",
"165 391 OFFCURVE",
"165 358 CURVE SMOOTH",
"165 0 LINE"
);
}
);
width = 568;
}
);
leftKerningGroup = m;
rightKerningGroup = h;
unicode = 006E;
},
{
glyphname = o;
lastChange = "2018-11-07 04:34:43 +0000";
layers = (
{
layerId = "E47AB2A9-A2CF-4FC9-8B8C-127EA756ED3A";
name = Regular;
paths = (
{
closed = 1;
nodes = (
"211 -12 OFFCURVE",
"152 14 OFFCURVE",
"112 62 CURVE SMOOTH",
"71 109 OFFCURVE",
"47 175 OFFCURVE",
"47 258 CURVE SMOOTH",
"47 339 OFFCURVE",
"71 407 OFFCURVE",
"112 455 CURVE SMOOTH",
"152 502 OFFCURVE",
"211 528 OFFCURVE",
"280 528 CURVE SMOOTH",
"349 528 OFFCURVE",
"407 502 OFFCURVE",
"448 455 CURVE SMOOTH",
"489 407 OFFCURVE",
"513 339 OFFCURVE",
"513 258 CURVE SMOOTH",
"513 175 OFFCURVE",
"489 109 OFFCURVE",
"448 62 CURVE SMOOTH",
"407 14 OFFCURVE",
"349 -12 OFFCURVE",
"280 -12 CURVE SMOOTH"
);
},
{
closed = 1;
nodes = (
"367 59 OFFCURVE",
"427 112 OFFCURVE",
"427 221 CURVE SMOOTH",
"427 295 LINE SMOOTH",
"427 404 OFFCURVE",
"367 457 OFFCURVE",
"280 457 CURVE SMOOTH",
"193 457 OFFCURVE",
"133 404 OFFCURVE",
"133 295 CURVE SMOOTH",
"133 221 LINE SMOOTH",
"133 112 OFFCURVE",
"193 59 OFFCURVE",
"280 59 CURVE SMOOTH"
);
}
);
width = 560;
}
);
leftKerningGroup = c;
rightKerningGroup = o;
unicode = 006F;
},
{
glyphname = p;
layers = (
{
layerId = "E47AB2A9-A2CF-4FC9-8B8C-127EA756ED3A";
name = Regular;
paths = (
{
closed = 1;
nodes = (
"85 516 LINE",
"165 516 LINE",
"165 432 LINE",
"169 432 LINE",
"196 497 OFFCURVE",
"248 528 OFFCURVE",
"320 528 CURVE SMOOTH",
"384 528 OFFCURVE",
"437 502 OFFCURVE",
"474 455 CURVE SMOOTH",
"510 408 OFFCURVE",
"530 341 OFFCURVE",
"530 258 CURVE SMOOTH",
"530 175 OFFCURVE",
"510 108 OFFCURVE",
"474 61 CURVE SMOOTH",
"437 14 OFFCURVE",
"384 -12 OFFCURVE",
"320 -12 CURVE SMOOTH",
"250 -12 OFFCURVE",
"200 20 OFFCURVE",
"169 84 CURVE",
"165 84 LINE",
"165 -200 LINE",
"85 -200 LINE"
);
},
{
closed = 1;
nodes = (
"389 60 OFFCURVE",
"444 122 OFFCURVE",
"444 214 CURVE SMOOTH",
"444 302 LINE SMOOTH",
"444 394 OFFCURVE",
"389 456 OFFCURVE",
"298 456 CURVE SMOOTH",
"262 456 OFFCURVE",
"228 445 OFFCURVE",
"204 428 CURVE SMOOTH",
"180 411 OFFCURVE",
"165 385 OFFCURVE",
"165 357 CURVE SMOOTH",
"165 165 LINE SMOOTH",
"165 132 OFFCURVE",
"180 106 OFFCURVE",
"204 88 CURVE SMOOTH",
"228 70 OFFCURVE",
"262 60 OFFCURVE",
"298 60 CURVE SMOOTH"
);
}
);
width = 580;
}
);
leftKerningGroup = p;
rightKerningGroup = b;
unicode = 0070;
},
{
glyphname = q;
layers = (
{
layerId = "E47AB2A9-A2CF-4FC9-8B8C-127EA756ED3A";
name = Regular;
paths = (
{
closed = 1;
nodes = (
"415 84 LINE",
"411 84 LINE",
"380 20 OFFCURVE",
"329 -12 OFFCURVE",
"260 -12 CURVE SMOOTH",
"196 -12 OFFCURVE",
"143 14 OFFCURVE",
"107 61 CURVE SMOOTH",
"70 108 OFFCURVE",
"50 175 OFFCURVE",
"50 258 CURVE SMOOTH",
"50 341 OFFCURVE",
"70 408 OFFCURVE",
"107 455 CURVE SMOOTH",
"143 502 OFFCURVE",
"196 528 OFFCURVE",
"260 528 CURVE SMOOTH",
"332 528 OFFCURVE",
"384 497 OFFCURVE",
"411 432 CURVE",
"415 432 LINE",
"415 516 LINE",
"495 516 LINE",
"495 -200 LINE",
"415 -200 LINE"
);
},
{
closed = 1;
nodes = (
"318 60 OFFCURVE",
"352 70 OFFCURVE",
"376 88 CURVE SMOOTH",
"400 106 OFFCURVE",
"415 132 OFFCURVE",
"415 165 CURVE SMOOTH",
"415 357 LINE SMOOTH",
"415 385 OFFCURVE",
"400 411 OFFCURVE",
"376 428 CURVE SMOOTH",
"352 445 OFFCURVE",
"318 456 OFFCURVE",
"282 456 CURVE SMOOTH",
"191 456 OFFCURVE",
"136 394 OFFCURVE",
"136 302 CURVE SMOOTH",
"136 214 LINE SMOOTH",
"136 122 OFFCURVE",
"191 60 OFFCURVE",
"282 60 CURVE SMOOTH"
);
}
);
width = 580;
}
);
leftKerningGroup = d;
rightKerningGroup = j;
unicode = 0071;
},
{
glyphname = r;
layers = (
{
layerId = "E47AB2A9-A2CF-4FC9-8B8C-127EA756ED3A";
name = Regular;
paths = (
{
closed = 1;
nodes = (
"85 0 LINE",
"85 516 LINE",
"165 516 LINE",
"165 421 LINE",
"170 421 LINE",
"189 470 OFFCURVE",
"235 516 OFFCURVE",
"319 516 CURVE SMOOTH",
"350 516 LINE",
"350 436 LINE",
"303 436 LINE SMOOTH",
"216 436 OFFCURVE",
"165 399 OFFCURVE",
"165 350 CURVE SMOOTH",
"165 0 LINE"
);
}
);
width = 367;
}
);
leftKerningGroup = m;
rightKerningGroup = r;
unicode = 0072;
},
{
glyphname = s;
layers = (
{
layerId = "E47AB2A9-A2CF-4FC9-8B8C-127EA756ED3A";
name = Regular;
paths = (
{
closed = 1;
nodes = (
"144 -12 OFFCURVE",
"83 28 OFFCURVE",
"36 89 CURVE",
"93 135 LINE",
"133 84 OFFCURVE",
"181 56 OFFCURVE",
"246 56 CURVE SMOOTH",
"314 56 OFFCURVE",
"354 87 OFFCURVE",
"354 140 CURVE SMOOTH",
"354 180 OFFCURVE",
"332 210 OFFCURVE",
"264 221 CURVE SMOOTH",
"223 227 LINE SMOOTH",
"175 234 OFFCURVE",
"135 247 OFFCURVE",
"105 271 CURVE SMOOTH",
"75 294 OFFCURVE",
"57 328 OFFCURVE",
"57 376 CURVE SMOOTH",
"57 427 OFFCURVE",
"77 465 OFFCURVE",
"110 490 CURVE SMOOTH",
"142 515 OFFCURVE",
"189 528 OFFCURVE",
"241 528 CURVE SMOOTH",
"325 528 OFFCURVE",
"378 497 OFFCURVE",
"421 445 CURVE",
"368 397 LINE",
"345 429 OFFCURVE",
"302 460 OFFCURVE",
"235 460 CURVE SMOOTH",
"168 460 OFFCURVE",
"134 429 OFFCURVE",
"134 380 CURVE SMOOTH",
"134 329 OFFCURVE",
"169 311 OFFCURVE",
"233 300 CURVE SMOOTH",
"273 294 LINE SMOOTH",
"388 277 OFFCURVE",
"431 228 OFFCURVE",
"431 149 CURVE SMOOTH",
"431 49 OFFCURVE",
"359 -12 OFFCURVE",
"240 -12 CURVE SMOOTH"
);
}
);
width = 487;
}
);
leftKerningGroup = s;
rightKerningGroup = s;
unicode = 0073;
},
{
glyphname = t;
layers = (
{
layerId = "E47AB2A9-A2CF-4FC9-8B8C-127EA756ED3A";
name = Regular;
paths = (
{
closed = 1;
nodes = (
"199 0 LINE SMOOTH",
"143 0 OFFCURVE",
"114 34 OFFCURVE",
"114 85 CURVE SMOOTH",
"114 446 LINE",
"29 446 LINE",
"29 516 LINE",
"77 516 LINE SMOOTH",
"112 516 OFFCURVE",
"122 528 OFFCURVE",
"122 563 CURVE SMOOTH",
"122 659 LINE",
"194 659 LINE",
"194 516 LINE",
"307 516 LINE",
"307 446 LINE",
"194 446 LINE",
"194 70 LINE",
"299 70 LINE",
"299 0 LINE"
);
}
);
width = 351;
}
);
leftKerningGroup = t;
rightKerningGroup = t;
unicode = 0074;
},
{
glyphname = u;
layers = (
{
layerId = "E47AB2A9-A2CF-4FC9-8B8C-127EA756ED3A";
name = Regular;
paths = (
{
closed = 1;
nodes = (
"403 84 LINE",
"399 84 LINE",
"388 60 OFFCURVE",
"374 36 OFFCURVE",
"351 18 CURVE SMOOTH",
"328 0 OFFCURVE",
"297 -12 OFFCURVE",
"254 -12 CURVE SMOOTH",
"147 -12 OFFCURVE",
"80 60 OFFCURVE",
"80 185 CURVE SMOOTH",
"80 516 LINE",
"160 516 LINE",
"160 199 LINE SMOOTH",
"160 106 OFFCURVE",
"199 60 OFFCURVE",
"278 60 CURVE SMOOTH",
"310 60 OFFCURVE",
"341 68 OFFCURVE",
"365 84 CURVE SMOOTH",
"388 100 OFFCURVE",
"403 124 OFFCURVE",
"403 159 CURVE SMOOTH",
"403 516 LINE",
"483 516 LINE",
"483 0 LINE",
"403 0 LINE"
);
}
);
width = 568;
}
);
leftKerningGroup = u;
rightKerningGroup = u;
unicode = 0075;
},
{
glyphname = v;
layers = (
{
layerId = "E47AB2A9-A2CF-4FC9-8B8C-127EA756ED3A";
name = Regular;
paths = (
{
closed = 1;
nodes = (
"199 0 LINE",
"18 516 LINE",
"98 516 LINE",
"188 260 LINE",
"244 84 LINE",
"249 84 LINE",
"305 260 LINE",
"397 516 LINE",
"474 516 LINE",
"292 0 LINE"
);
}
);
width = 492;
}
);
leftKerningGroup = v;
rightKerningGroup = v;
unicode = 0076;
},
{
glyphname = w;
layers = (
{
layerId = "E47AB2A9-A2CF-4FC9-8B8C-127EA756ED3A";
name = Regular;
paths = (
{
closed = 1;
nodes = (
"31 516 LINE",
"109 516 LINE",
"164 293 LINE",
"219 67 LINE",
"221 67 LINE",
"284 293 LINE",
"349 516 LINE",
"420 516 LINE",
"487 293 LINE",
"551 67 LINE",
"553 67 LINE",
"606 293 LINE",
"662 516 LINE",
"737 516 LINE",
"600 0 LINE",
"501 0 LINE",
"429 248 LINE",
"384 405 LINE",
"382 405 LINE",
"338 248 LINE",
"266 0 LINE",
"169 0 LINE"
);
}
);
width = 768;
}
);
leftKerningGroup = w;
rightKerningGroup = w;
unicode = 0077;
},
{
glyphname = x;
layers = (
{
layerId = "E47AB2A9-A2CF-4FC9-8B8C-127EA756ED3A";
name = Regular;
paths = (
{
closed = 1;
nodes = (
"21 0 LINE",
"212 260 LINE",
"29 516 LINE",
"123 516 LINE",
"254 324 LINE",
"257 324 LINE",
"393 516 LINE",
"482 516 LINE",
"300 266 LINE",
"486 0 LINE",
"392 0 LINE",
"258 202 LINE",
"255 202 LINE",
"110 0 LINE"
);
}
);
width = 507;
}
);
leftKerningGroup = x;
rightKerningGroup = x;
unicode = 0078;
},
{
glyphname = y;
layers = (
{
layerId = "E47AB2A9-A2CF-4FC9-8B8C-127EA756ED3A";
name = Regular;
paths = (
{
closed = 1;
nodes = (
"403 516 LINE",
"482 516 LINE",
"251 -120 LINE SMOOTH",
"239 -151 OFFCURVE",
"228 -171 OFFCURVE",
"211 -183 CURVE SMOOTH",
"194 -195 OFFCURVE",
"168 -200 OFFCURVE",
"131 -200 CURVE SMOOTH",
"90 -200 LINE",
"90 -130 LINE",
"171 -130 LINE",
"210 -20 LINE",
"17 516 LINE",
"97 516 LINE",
"221 165 LINE",
"245 81 LINE",
"250 81 LINE",
"278 165 LINE"
);
}
);
width = 499;
}
);
leftKerningGroup = y;
rightKerningGroup = y;
unicode = 0079;
},
{
glyphname = z;
layers = (
{
layerId = "E47AB2A9-A2CF-4FC9-8B8C-127EA756ED3A";
name = Regular;
paths = (
{
closed = 1;
nodes = (
"33 0 LINE",
"33 67 LINE",
"326 446 LINE",
"42 446 LINE",
"42 516 LINE",
"423 516 LINE",
"423 456 LINE",
"124 70 LINE",
"431 70 LINE",
"431 0 LINE"
);
}
);
width = 464;
}
);
leftKerningGroup = z;
rightKerningGroup = z;
unicode = 007A;
},
{
glyphname = A;
layers = (
{
layerId = "E47AB2A9-A2CF-4FC9-8B8C-127EA756ED3A";
name = Regular;
paths = (
{
closed = 1;
nodes = (
"530 0 LINE",
"460 206 LINE",
"178 206 LINE",
"108 0 LINE",
"23 0 LINE",
"267 698 LINE",
"374 698 LINE",
"618 0 LINE"
);
},
{
closed = 1;
nodes = (
"321 620 LINE",
"316 620 LINE",
"198 280 LINE",
"439 280 LINE"
);
}
);
width = 641;
}
);
leftKerningGroup = A;
rightKerningGroup = A;
unicode = 0041;
},
{
glyphname = B;
layers = (
{
layerId = "E47AB2A9-A2CF-4FC9-8B8C-127EA756ED3A";
name = Regular;
paths = (
{
closed = 1;
nodes = (
"93 698 LINE",
"380 698 LINE SMOOTH",
"496 698 OFFCURVE",
"566 627 OFFCURVE",
"566 518 CURVE SMOOTH",
"566 466 OFFCURVE",
"550 431 OFFCURVE",
"527 408 CURVE SMOOTH",
"504 384 OFFCURVE",
"476 374 OFFCURVE",
"453 370 CURVE",
"453 364 LINE",
"478 363 OFFCURVE",
"512 352 OFFCURVE",
"540 326 CURVE SMOOTH",
"568 300 OFFCURVE",
"590 259 OFFCURVE",
"590 202 CURVE SMOOTH",
"590 145 OFFCURVE",
"571 94 OFFCURVE",
"539 58 CURVE SMOOTH",
"507 22 OFFCURVE",
"462 0 OFFCURVE",
"410 0 CURVE SMOOTH",
"93 0 LINE"
);
},
{
closed = 1;
nodes = (
"177 74 LINE",
"384 74 LINE SMOOTH",
"456 74 OFFCURVE",
"500 111 OFFCURVE",
"500 182 CURVE SMOOTH",
"500 216 LINE SMOOTH",
"500 287 OFFCURVE",
"456 324 OFFCURVE",
"384 324 CURVE SMOOTH",
"177 324 LINE"
);
},
{
closed = 1;
nodes = (
"177 396 LINE",
"370 396 LINE SMOOTH",
"437 396 OFFCURVE",
"476 430 OFFCURVE",
"476 493 CURVE SMOOTH",
"476 527 LINE SMOOTH",
"476 590 OFFCURVE",
"437 624 OFFCURVE",
"370 624 CURVE SMOOTH",
"177 624 LINE"
);
}
);
width = 653;
}
);
unicode = 0042;
},
{
glyphname = C;
layers = (
{
layerId = "E47AB2A9-A2CF-4FC9-8B8C-127EA756ED3A";
name = Regular;
paths = (
{
closed = 1;
nodes = (
"162 -12 OFFCURVE",
"58 110 OFFCURVE",
"58 345 CURVE SMOOTH",
"58 580 OFFCURVE",
"162 710 OFFCURVE",
"339 710 CURVE SMOOTH",
"456 710 OFFCURVE",
"535 654 OFFCURVE",
"579 557 CURVE",
"511 516 LINE",
"483 588 OFFCURVE",
"426 635 OFFCURVE",
"339 635 CURVE SMOOTH",
"279 635 OFFCURVE",
"231 612 OFFCURVE",
"199 570 CURVE SMOOTH",
"166 528 OFFCURVE",
"148 469 OFFCURVE",
"148 397 CURVE SMOOTH",
"148 293 LINE SMOOTH",
"148 149 OFFCURVE",
"218 63 OFFCURVE",
"339 63 CURVE SMOOTH",
"428 63 OFFCURVE",
"489 113 OFFCURVE",
"517 189 CURVE",
"584 147 LINE",
"540 48 OFFCURVE",
"456 -12 OFFCURVE",
"339 -12 CURVE SMOOTH"
);
}
);
width = 621;
}
);
leftKerningGroup = C;
rightKerningGroup = C;
unicode = 0043;
},
{
glyphname = D;
layers = (
{
layerId = "E47AB2A9-A2CF-4FC9-8B8C-127EA756ED3A";
name = Regular;
paths = (
{
closed = 1;
nodes = (
"93 698 LINE",
"327 698 LINE SMOOTH",
"414 698 OFFCURVE",
"486 669 OFFCURVE",
"536 611 CURVE SMOOTH",
"586 553 OFFCURVE",
"613 465 OFFCURVE",
"613 349 CURVE SMOOTH",
"613 233 OFFCURVE",
"586 146 OFFCURVE",
"536 88 CURVE SMOOTH",
"486 30 OFFCURVE",
"414 0 OFFCURVE",
"327 0 CURVE SMOOTH",
"93 0 LINE"
);
},
{
closed = 1;
nodes = (
"327 74 LINE SMOOTH",
"384 74 OFFCURVE",
"433 94 OFFCURVE",
"468 131 CURVE SMOOTH",
"503 168 OFFCURVE",
"523 223 OFFCURVE",
"523 292 CURVE SMOOTH",
"523 406 LINE SMOOTH",
"523 475 OFFCURVE",
"503 530 OFFCURVE",
"468 567 CURVE SMOOTH",
"433 604 OFFCURVE",
"384 624 OFFCURVE",
"327 624 CURVE SMOOTH",
"177 624 LINE",
"177 74 LINE"
);
}
);
width = 671;
}
);
rightKerningGroup = D;
unicode = 0044;
},
{
glyphname = E;
layers = (
{
layerId = "E47AB2A9-A2CF-4FC9-8B8C-127EA756ED3A";
name = Regular;
paths = (
{
closed = 1;
nodes = (
"93 0 LINE",
"93 698 LINE",
"519 698 LINE",
"519 624 LINE",
"177 624 LINE",
"177 390 LINE",
"499 390 LINE",
"499 316 LINE",
"177 316 LINE",
"177 74 LINE",
"519 74 LINE",
"519 0 LINE"
);
}
);
width = 583;
}
);
rightKerningGroup = E;
unicode = 0045;
},
{
glyphname = F;
layers = (
{
layerId = "E47AB2A9-A2CF-4FC9-8B8C-127EA756ED3A";
name = Regular;
paths = (
{
closed = 1;
nodes = (
"93 0 LINE",
"93 698 LINE",
"509 698 LINE",
"509 624 LINE",
"177 624 LINE",
"177 390 LINE",
"480 390 LINE",
"480 316 LINE",
"177 316 LINE",
"177 0 LINE"
);
}
);
width = 559;
}
);
rightKerningGroup = F;
unicode = 0046;
},
{
glyphname = G;
layers = (
{
layerId = "E47AB2A9-A2CF-4FC9-8B8C-127EA756ED3A";
name = Regular;
paths = (
{
closed = 1;
nodes = (
"545 102 LINE",
"542 102 LINE",
"525 37 OFFCURVE",
"455 -12 OFFCURVE",
"348 -12 CURVE SMOOTH",
"263 -12 OFFCURVE",
"190 20 OFFCURVE",
"139 81 CURVE SMOOTH",
"88 141 OFFCURVE",
"58 232 OFFCURVE",
"58 349 CURVE SMOOTH",
"58 465 OFFCURVE",
"87 556 OFFCURVE",
"139 617 CURVE SMOOTH",
"191 677 OFFCURVE",
"266 710 OFFCURVE",
"355 710 CURVE SMOOTH",
"480 710 OFFCURVE",
"564 649 OFFCURVE",
"609 557 CURVE",
"540 515 LINE",
"508 590 OFFCURVE",
"443 635 OFFCURVE",
"355 635 CURVE SMOOTH",
"294 635 OFFCURVE",
"242 612 OFFCURVE",
"206 572 CURVE SMOOTH",
"169 532 OFFCURVE",
"148 475 OFFCURVE",
"148 406 CURVE SMOOTH",
"148 293 LINE SMOOTH",
"148 224 OFFCURVE",
"169 166 OFFCURVE",
"206 126 CURVE SMOOTH",
"242 86 OFFCURVE",
"296 63 OFFCURVE",
"363 63 CURVE SMOOTH",
"411 63 OFFCURVE",
"456 76 OFFCURVE",
"489 101 CURVE SMOOTH",
"521 126 OFFCURVE",
"541 164 OFFCURVE",
"541 216 CURVE SMOOTH",
"541 285 LINE",
"387 285 LINE",
"387 359 LINE",
"623 359 LINE",
"623 0 LINE",
"545 0 LINE"
);
}
);
width = 695;
}
);
leftKerningGroup = C;
rightKerningGroup = G;
unicode = 0047;
},
{
glyphname = H;
layers = (
{
layerId = "E47AB2A9-A2CF-4FC9-8B8C-127EA756ED3A";
name = Regular;
paths = (
{
closed = 1;
nodes = (
"530 316 LINE",
"177 316 LINE",
"177 0 LINE",
"93 0 LINE",
"93 698 LINE",
"177 698 LINE",
"177 390 LINE",
"530 390 LINE",
"530 698 LINE",
"614 698 LINE",
"614 0 LINE",
"530 0 LINE"
);
}
);
width = 707;
}
);
unicode = 0048;
},
{
glyphname = I;
lastChange = "2018-11-02 04:24:07 +0000";
layers = (
{
layerId = "E47AB2A9-A2CF-4FC9-8B8C-127EA756ED3A";
name = Regular;
paths = (
{
closed = 1;
nodes = (
"93 698 LINE",
"177 698 LINE",
"177 0 LINE",
"93 0 LINE"
);
}
);
width = 270;
}
);
leftKerningGroup = I;
rightKerningGroup = I;
unicode = 0049;
},
{
glyphname = J;
lastChange = "2018-11-02 03:36:48 +0000";
layers = (
{
layerId = "E47AB2A9-A2CF-4FC9-8B8C-127EA756ED3A";
name = Regular;
paths = (
{
closed = 1;
nodes = (
"422 181 LINE SMOOTH",
"422 122 OFFCURVE",
"402 73 OFFCURVE",
"367 40 CURVE SMOOTH",
"331 7 OFFCURVE",
"281 -12 OFFCURVE",
"222 -12 CURVE SMOOTH",
"114 -12 OFFCURVE",
"47 51 OFFCURVE",
"28 147 CURVE",
"104 165 LINE",
"117 105 OFFCURVE",
"152 63 OFFCURVE",
"224 63 CURVE SMOOTH",
"296 63 OFFCURVE",
"338 107 OFFCURVE",
"338 196 CURVE SMOOTH",
"338 698 LINE",
"422 698 LINE"
);
}
);
width = 510;
}
);
leftKerningGroup = J;
rightKerningGroup = J;
unicode = 004A;
},
{
glyphname = K;
layers = (
{
layerId = "E47AB2A9-A2CF-4FC9-8B8C-127EA756ED3A";
name = Regular;
paths = (
{
closed = 1;
nodes = (
"276 343 LINE",
"177 233 LINE",
"177 0 LINE",
"93 0 LINE",
"93 698 LINE",
"177 698 LINE",
"177 327 LINE",
"180 327 LINE",
"280 448 LINE",
"491 698 LINE",
"594 698 LINE",
"334 399 LINE",
"612 0 LINE",
"508 0 LINE"
);
}
);
width = 634;
}
);
rightKerningGroup = K;
unicode = 004B;
},
{
glyphname = L;
layers = (
{
layerId = "E47AB2A9-A2CF-4FC9-8B8C-127EA756ED3A";
name = Regular;
paths = (
{
closed = 1;
nodes = (
"93 0 LINE",
"93 698 LINE",
"177 698 LINE",
"177 74 LINE",
"474 74 LINE",
"474 0 LINE"
);
}
);
width = 501;
}
);
rightKerningGroup = L;
unicode = 004C;
},
{
glyphname = M;
layers = (
{
layerId = "E47AB2A9-A2CF-4FC9-8B8C-127EA756ED3A";
name = Regular;
paths = (
{
closed = 1;
nodes = (
"637 588 LINE",
"632 588 LINE",
"573 471 LINE",
"406 167 LINE",
"239 471 LINE",
"180 588 LINE",
"175 588 LINE",
"175 0 LINE",
"93 0 LINE",
"93 698 LINE",
"205 698 LINE",
"405 322 LINE",
"410 322 LINE",
"611 698 LINE",
"719 698 LINE",
"719 0 LINE",
"637 0 LINE"
);
}
);
width = 812;
}
);
unicode = 004D;
},
{
glyphname = N;
layers = (
{
layerId = "E47AB2A9-A2CF-4FC9-8B8C-127EA756ED3A";
name = Regular;
paths = (
{
closed = 1;
nodes = (
"262 426 LINE",
"178 581 LINE",
"175 581 LINE",
"175 0 LINE",
"93 0 LINE",
"93 698 LINE",
"190 698 LINE",
"445 272 LINE",
"529 117 LINE",
"532 117 LINE",
"532 698 LINE",
"614 698 LINE",
"614 0 LINE",
"517 0 LINE"
);
}
);
width = 707;
}
);
unicode = 004E;
},
{
glyphname = O;
layers = (
{
layerId = "E47AB2A9-A2CF-4FC9-8B8C-127EA756ED3A";
name = Regular;
paths = (
{
closed = 1;
nodes = (
"263 -12 OFFCURVE",
"190 20 OFFCURVE",
"139 81 CURVE SMOOTH",
"87 141 OFFCURVE",
"58 232 OFFCURVE",
"58 349 CURVE SMOOTH",
"58 466 OFFCURVE",
"87 556 OFFCURVE",
"139 617 CURVE SMOOTH",
"190 678 OFFCURVE",
"263 710 OFFCURVE",
"354 710 CURVE SMOOTH",
"443 710 OFFCURVE",
"518 678 OFFCURVE",
"570 617 CURVE SMOOTH",
"621 556 OFFCURVE",
"650 466 OFFCURVE",
"650 349 CURVE SMOOTH",
"650 232 OFFCURVE",
"621 141 OFFCURVE",
"570 81 CURVE SMOOTH",
"518 20 OFFCURVE",
"443 -12 OFFCURVE",
"354 -12 CURVE SMOOTH"
);
},
{
closed = 1;
nodes = (
"414 63 OFFCURVE",
"466 85 OFFCURVE",
"503 125 CURVE SMOOTH",
"539 165 OFFCURVE",
"560 222 OFFCURVE",
"560 291 CURVE SMOOTH",
"560 407 LINE SMOOTH",
"560 476 OFFCURVE",
"539 533 OFFCURVE",
"503 573 CURVE SMOOTH",
"466 613 OFFCURVE",
"414 635 OFFCURVE",
"354 635 CURVE SMOOTH",
"294 635 OFFCURVE",
"242 613 OFFCURVE",
"206 573 CURVE SMOOTH",
"169 533 OFFCURVE",
"148 476 OFFCURVE",
"148 407 CURVE SMOOTH",
"148 291 LINE SMOOTH",
"148 222 OFFCURVE",
"169 165 OFFCURVE",
"206 125 CURVE SMOOTH",
"242 85 OFFCURVE",
"294 63 OFFCURVE",
"354 63 CURVE SMOOTH"
);
}
);
width = 708;
}
);
leftKerningGroup = C;
rightKerningGroup = O;
unicode = 004F;
},
{
glyphname = P;
layers = (
{
layerId = "E47AB2A9-A2CF-4FC9-8B8C-127EA756ED3A";
name = Regular;
paths = (
{
closed = 1;
nodes = (
"93 0 LINE",
"93 698 LINE",
"371 698 LINE SMOOTH",
"496 698 OFFCURVE",
"566 622 OFFCURVE",
"566 498 CURVE SMOOTH",
"566 374 OFFCURVE",
"496 298 OFFCURVE",
"371 298 CURVE SMOOTH",
"177 298 LINE",
"177 0 LINE"
);
},
{
closed = 1;
nodes = (
"177 372 LINE",
"371 372 LINE SMOOTH",
"438 372 OFFCURVE",
"476 408 OFFCURVE",
"476 472 CURVE SMOOTH",
"476 524 LINE SMOOTH",
"476 588 OFFCURVE",
"438 624 OFFCURVE",
"371 624 CURVE SMOOTH",
"177 624 LINE"
);
}
);
width = 606;
}
);
rightKerningGroup = P;
unicode = 0050;
},
{
glyphname = Q;
layers = (
{
layerId = "E47AB2A9-A2CF-4FC9-8B8C-127EA756ED3A";
name = Regular;
paths = (
{
closed = 1;
nodes = (
"508 -164 LINE",
"405 -164 LINE SMOOTH",
"349 -164 OFFCURVE",
"321 -129 OFFCURVE",
"321 -82 CURVE SMOOTH",
"321 -11 LINE",
"241 -3 OFFCURVE",
"174 32 OFFCURVE",
"129 93 CURVE SMOOTH",
"84 153 OFFCURVE",
"58 240 OFFCURVE",
"58 349 CURVE SMOOTH",
"58 466 OFFCURVE",
"87 556 OFFCURVE",
"139 617 CURVE SMOOTH",
"190 678 OFFCURVE",
"263 710 OFFCURVE",
"354 710 CURVE SMOOTH",
"443 710 OFFCURVE",
"518 678 OFFCURVE",
"570 617 CURVE SMOOTH",
"621 556 OFFCURVE",
"650 466 OFFCURVE",
"650 349 CURVE SMOOTH",
"650 134 OFFCURVE",
"554 12 OFFCURVE",
"401 -9 CURVE",
"401 -94 LINE",
"508 -94 LINE"
);
},
{
closed = 1;
nodes = (
"414 63 OFFCURVE",
"466 85 OFFCURVE",
"503 125 CURVE SMOOTH",
"539 165 OFFCURVE",
"560 222 OFFCURVE",
"560 291 CURVE SMOOTH",
"560 407 LINE SMOOTH",
"560 476 OFFCURVE",
"539 533 OFFCURVE",
"503 573 CURVE SMOOTH",
"466 613 OFFCURVE",
"414 635 OFFCURVE",
"354 635 CURVE SMOOTH",
"294 635 OFFCURVE",
"242 613 OFFCURVE",
"206 573 CURVE SMOOTH",
"169 533 OFFCURVE",
"148 476 OFFCURVE",
"148 407 CURVE SMOOTH",
"148 291 LINE SMOOTH",
"148 222 OFFCURVE",
"169 165 OFFCURVE",
"206 125 CURVE SMOOTH",
"242 85 OFFCURVE",
"294 63 OFFCURVE",
"354 63 CURVE SMOOTH"
);
}
);
width = 708;
}
);
leftKerningGroup = C;
rightKerningGroup = O;
unicode = 0051;
},
{
glyphname = R;
layers = (
{
layerId = "E47AB2A9-A2CF-4FC9-8B8C-127EA756ED3A";
name = Regular;
paths = (
{
closed = 1;
nodes = (
"177 0 LINE",
"93 0 LINE",
"93 698 LINE",
"371 698 LINE SMOOTH",
"494 698 OFFCURVE",
"566 628 OFFCURVE",
"566 500 CURVE SMOOTH",
"566 397 OFFCURVE",
"518 329 OFFCURVE",
"426 308 CURVE",
"586 0 LINE",
"491 0 LINE",
"340 300 LINE",
"177 300 LINE"
);
},
{
closed = 1;
nodes = (
"371 372 LINE SMOOTH",
"438 372 OFFCURVE",
"476 408 OFFCURVE",
"476 472 CURVE SMOOTH",
"476 524 LINE SMOOTH",
"476 588 OFFCURVE",
"438 624 OFFCURVE",
"371 624 CURVE SMOOTH",
"177 624 LINE",
"177 372 LINE"
);
}
);
width = 640;
}
);
rightKerningGroup = R;
unicode = 0052;
},
{
glyphname = S;
layers = (
{
layerId = "E47AB2A9-A2CF-4FC9-8B8C-127EA756ED3A";
name = Regular;
paths = (
{
closed = 1;
nodes = (
"176 -12 OFFCURVE",
"98 34 OFFCURVE",
"42 110 CURVE",
"104 162 LINE",
"153 97 OFFCURVE",
"211 62 OFFCURVE",
"292 62 CURVE SMOOTH",
"392 62 OFFCURVE",
"446 114 OFFCURVE",
"446 194 CURVE SMOOTH",
"446 261 OFFCURVE",
"409 293 OFFCURVE",
"317 314 CURVE SMOOTH",
"260 327 LINE SMOOTH",
"132 356 OFFCURVE",
"63 411 OFFCURVE",
"63 519 CURVE SMOOTH",
"63 580 OFFCURVE",
"87 629 OFFCURVE",
"128 661 CURVE SMOOTH",
"168 693 OFFCURVE",
"226 710 OFFCURVE",
"294 710 CURVE SMOOTH",
"399 710 OFFCURVE",
"473 671 OFFCURVE",
"525 596 CURVE",
"462 550 LINE",
"423 603 OFFCURVE",
"371 636 OFFCURVE",
"290 636 CURVE SMOOTH",
"201 636 OFFCURVE",
"146 598 OFFCURVE",
"146 522 CURVE SMOOTH",
"146 455 OFFCURVE",
"189 426 OFFCURVE",
"277 406 CURVE SMOOTH",
"334 393 LINE SMOOTH",
"471 362 OFFCURVE",
"529 302 OFFCURVE",
"529 198 CURVE SMOOTH",
"529 134 OFFCURVE",
"506 81 OFFCURVE",
"465 45 CURVE SMOOTH",
"424 9 OFFCURVE",
"364 -12 OFFCURVE",
"289 -12 CURVE SMOOTH"
);
}
);
width = 581;
}
);
leftKerningGroup = S;
rightKerningGroup = S;
unicode = 0053;
},
{
glyphname = T;
layers = (
{
layerId = "E47AB2A9-A2CF-4FC9-8B8C-127EA756ED3A";
name = Regular;
paths = (
{
closed = 1;
nodes = (
"328 624 LINE",
"328 0 LINE",
"244 0 LINE",
"244 624 LINE",
"22 624 LINE",
"22 698 LINE",
"550 698 LINE",
"550 624 LINE"
);
}
);
width = 572;
}
);
leftKerningGroup = T;
rightKerningGroup = T;
unicode = 0054;
},
{
glyphname = U;
layers = (
{
layerId = "E47AB2A9-A2CF-4FC9-8B8C-127EA756ED3A";
name = Regular;
paths = (
{
closed = 1;
nodes = (
"172 698 LINE",
"172 266 LINE SMOOTH",
"172 133 OFFCURVE",
"215 63 OFFCURVE",
"339 63 CURVE SMOOTH",
"463 63 OFFCURVE",
"506 133 OFFCURVE",
"506 266 CURVE SMOOTH",
"506 698 LINE",
"590 698 LINE",
"590 286 LINE SMOOTH",
"590 185 OFFCURVE",
"573 110 OFFCURVE",
"533 61 CURVE SMOOTH",
"493 12 OFFCURVE",
"429 -12 OFFCURVE",
"336 -12 CURVE SMOOTH",
"243 -12 OFFCURVE",
"181 12 OFFCURVE",
"142 61 CURVE SMOOTH",
"103 110 OFFCURVE",
"88 185 OFFCURVE",
"88 286 CURVE SMOOTH",
"88 698 LINE"
);
}
);
width = 678;
}
);
leftKerningGroup = U;
rightKerningGroup = U;
unicode = 0055;
},
{
glyphname = V;
layers = (
{
layerId = "E47AB2A9-A2CF-4FC9-8B8C-127EA756ED3A";
name = Regular;
paths = (
{
closed = 1;
nodes = (
"252 0 LINE",
"20 698 LINE",
"110 698 LINE",
"225 346 LINE",
"302 84 LINE",
"307 84 LINE",
"386 346 LINE",
"502 698 LINE",
"589 698 LINE",
"354 0 LINE"
);
}
);
width = 609;
}
);
leftKerningGroup = V;
rightKerningGroup = V;
unicode = 0056;
},
{
glyphname = W;
layers = (
{
layerId = "E47AB2A9-A2CF-4FC9-8B8C-127EA756ED3A";
name = Regular;
paths = (
{
closed = 1;
nodes = (
"190 0 LINE",
"20 698 LINE",
"109 698 LINE",
"184 362 LINE",
"242 101 LINE",
"244 101 LINE",
"309 362 LINE",
"397 698 LINE",
"493 698 LINE",
"578 362 LINE",
"643 102 LINE",
"646 102 LINE",
"706 362 LINE",
"785 698 LINE",
"871 698 LINE",
"692 0 LINE",
"599 0 LINE",
"508 348 LINE",
"444 604 LINE",
"442 604 LINE",
"376 348 LINE",
"283 0 LINE"
);
}
);
width = 891;
}
);
leftKerningGroup = W;
rightKerningGroup = W;
unicode = 0057;
},
{
glyphname = X;
layers = (
{
layerId = "E47AB2A9-A2CF-4FC9-8B8C-127EA756ED3A";
name = Regular;
paths = (
{
closed = 1;
nodes = (
"589 0 LINE",
"488 0 LINE",
"305 293 LINE",
"303 293 LINE",
"120 0 LINE",
"24 0 LINE",
"252 355 LINE",
"30 698 LINE",
"131 698 LINE",
"306 420 LINE",
"308 420 LINE",
"487 698 LINE",
"583 698 LINE",
"359 358 LINE"
);
}
);
width = 613;
}
);
leftKerningGroup = X;
rightKerningGroup = X;
unicode = 0058;
},
{
glyphname = Y;
layers = (
{
layerId = "E47AB2A9-A2CF-4FC9-8B8C-127EA756ED3A";
name = Regular;
paths = (
{
closed = 1;
nodes = (
"253 0 LINE",
"253 276 LINE",
"13 698 LINE",
"109 698 LINE",
"295 362 LINE",
"298 362 LINE",
"484 698 LINE",
"580 698 LINE",
"337 279 LINE",
"337 0 LINE"
);
}
);
width = 593;
}
);
leftKerningGroup = Y;
rightKerningGroup = Y;
unicode = 0059;
},
{
glyphname = Z;
layers = (
{
layerId = "E47AB2A9-A2CF-4FC9-8B8C-127EA756ED3A";
name = Regular;
paths = (
{
closed = 1;
nodes = (
"544 0 LINE",
"36 0 LINE",
"36 76 LINE",
"439 624 LINE",
"57 624 LINE",
"57 698 LINE",
"530 698 LINE",
"530 622 LINE",
"126 74 LINE",
"544 74 LINE"
);
}
);
width = 580;
}
);
leftKerningGroup = Z;
rightKerningGroup = Z;
unicode = 005A;
},
{
glyphname = zero;
layers = (
{
layerId = "E47AB2A9-A2CF-4FC9-8B8C-127EA756ED3A";
name = Regular;
paths = (
{
closed = 1;
nodes = (
"133 -12 OFFCURVE",
"60 121 OFFCURVE",
"60 349 CURVE SMOOTH",
"60 577 OFFCURVE",
"133 710 OFFCURVE",
"300 710 CURVE SMOOTH",
"467 710 OFFCURVE",
"540 577 OFFCURVE",
"540 349 CURVE SMOOTH",
"540 121 OFFCURVE",
"467 -12 OFFCURVE",
"300 -12 CURVE SMOOTH"
);
},
{
closed = 1;
nodes = (
"355 61 OFFCURVE",
"393 85 OFFCURVE",
"417 126 CURVE SMOOTH",
"441 167 OFFCURVE",
"452 224 OFFCURVE",
"452 292 CURVE SMOOTH",
"452 406 LINE SMOOTH",
"452 474 OFFCURVE",
"441 531 OFFCURVE",
"417 572 CURVE SMOOTH",
"393 613 OFFCURVE",
"355 637 OFFCURVE",
"300 637 CURVE SMOOTH",
"245 637 OFFCURVE",
"207 613 OFFCURVE",
"183 572 CURVE SMOOTH",
"159 531 OFFCURVE",
"148 474 OFFCURVE",
"148 406 CURVE SMOOTH",
"148 292 LINE SMOOTH",
"148 224 OFFCURVE",
"159 167 OFFCURVE",
"183 126 CURVE SMOOTH",
"207 85 OFFCURVE",
"245 61 OFFCURVE",
"300 61 CURVE SMOOTH"
);
}
);
width = 600;
}
);
unicode = 0030;
},
{
glyphname = one;
lastChange = "2018-11-04 17:04:13 +0000";
layers = (
{
layerId = "E47AB2A9-A2CF-4FC9-8B8C-127EA756ED3A";
name = Regular;
paths = (
{
closed = 1;
nodes = (
"73 615 LINE",
"73 533 LINE",
"223 622 LINE",
"223 0 LINE",
"307 0 LINE",
"307 698 LINE",
"215 698 LINE"
);
}
);
width = 450;
}
);
unicode = 0031;
},
{
glyphname = two;
layers = (
{
layerId = "E47AB2A9-A2CF-4FC9-8B8C-127EA756ED3A";
name = Regular;
paths = (
{
closed = 1;
nodes = (
"533 0 LINE",
"75 0 LINE",
"75 86 LINE",
"303 296 LINE SMOOTH",
"368 356 OFFCURVE",
"418 425 OFFCURVE",
"418 493 CURVE SMOOTH",
"418 505 LINE SMOOTH",
"418 582 OFFCURVE",
"376 635 OFFCURVE",
"289 635 CURVE SMOOTH",
"246 635 OFFCURVE",
"215 622 OFFCURVE",
"192 601 CURVE SMOOTH",
"168 580 OFFCURVE",
"153 550 OFFCURVE",
"144 517 CURVE",
"69 546 LINE",
"82 587 OFFCURVE",
"105 628 OFFCURVE",
"141 659 CURVE SMOOTH",
"176 690 OFFCURVE",
"225 710 OFFCURVE",
"293 710 CURVE SMOOTH",
"361 710 OFFCURVE",
"415 689 OFFCURVE",
"451 653 CURVE SMOOTH",
"487 617 OFFCURVE",
"507 567 OFFCURVE",
"507 507 CURVE SMOOTH",
"507 452 OFFCURVE",
"491 407 OFFCURVE",
"464 365 CURVE SMOOTH",
"437 323 OFFCURVE",
"398 283 OFFCURVE",
"354 243 CURVE SMOOTH",
"166 74 LINE",
"533 74 LINE"
);
}
);
width = 600;
}
);
unicode = 0032;
},
{
glyphname = three;
layers = (
{
layerId = "E47AB2A9-A2CF-4FC9-8B8C-127EA756ED3A";
name = Regular;
paths = (
{
closed = 1;
nodes = (
"261 402 LINE SMOOTH",
"356 402 OFFCURVE",
"403 450 OFFCURVE",
"403 518 CURVE SMOOTH",
"403 525 LINE SMOOTH",
"403 598 OFFCURVE",
"353 635 OFFCURVE",
"278 635 CURVE SMOOTH",
"206 635 OFFCURVE",
"163 601 OFFCURVE",
"134 548 CURVE",
"72 596 LINE",
"89 624 OFFCURVE",
"114 653 OFFCURVE",
"147 674 CURVE SMOOTH",
"180 695 OFFCURVE",
"224 710 OFFCURVE",
"280 710 CURVE SMOOTH",
"339 710 OFFCURVE",
"393 695 OFFCURVE",
"431 665 CURVE SMOOTH",
"469 635 OFFCURVE",
"492 590 OFFCURVE",
"492 534 CURVE SMOOTH",
"492 489 OFFCURVE",
"477 453 OFFCURVE",
"453 426 CURVE SMOOTH",
"429 399 OFFCURVE",
"395 380 OFFCURVE",
"358 371 CURVE",
"358 367 LINE",
"395 359 OFFCURVE",
"432 341 OFFCURVE",
"460 313 CURVE",
"487 284 OFFCURVE",
"505 243 OFFCURVE",
"505 191 CURVE SMOOTH",
"505 131 OFFCURVE",
"481 80 OFFCURVE",
"440 45 CURVE SMOOTH",
"399 9 OFFCURVE",
"339 -12 OFFCURVE",
"268 -12 CURVE SMOOTH",
"208 -12 OFFCURVE",
"162 2 OFFCURVE",
"126 25 CURVE SMOOTH",
"90 48 OFFCURVE",
"63 76 OFFCURVE",
"42 107 CURVE",
"105 155 LINE",
"122 127 OFFCURVE",
"143 104 OFFCURVE",
"168 88 CURVE SMOOTH",
"193 72 OFFCURVE",
"224 63 OFFCURVE",
"267 63 CURVE SMOOTH",
"366 63 OFFCURVE",
"417 109 OFFCURVE",
"417 192 CURVE SMOOTH",
"417 200 LINE SMOOTH",
"417 283 OFFCURVE",
"366 329 OFFCURVE",
"267 329 CURVE SMOOTH",
"185 329 LINE",
"185 402 LINE"
);
}
);
width = 600;
}
);
unicode = 0033;
},
{
glyphname = four;
layers = (
{
layerId = "E47AB2A9-A2CF-4FC9-8B8C-127EA756ED3A";
name = Regular;
paths = (
{
closed = 1;
nodes = (
"375 0 LINE",
"375 137 LINE",
"38 137 LINE",
"38 211 LINE",
"330 698 LINE",
"455 698 LINE",
"455 207 LINE",
"556 207 LINE",
"556 137 LINE",
"455 137 LINE",
"455 0 LINE"
);
},
{
closed = 1;
nodes = (
"117 207 LINE",
"375 207 LINE",
"375 633 LINE",
"370 633 LINE"
);
}
);
width = 600;
}
);
unicode = 0034;
},
{
glyphname = five;
layers = (
{
layerId = "E47AB2A9-A2CF-4FC9-8B8C-127EA756ED3A";
name = Regular;
paths = (
{
closed = 1;
nodes = (
"498 624 LINE",
"192 624 LINE",
"172 358 LINE",
"179 358 LINE",
"212 405 OFFCURVE",
"249 435 OFFCURVE",
"322 435 CURVE SMOOTH",
"382 435 OFFCURVE",
"434 414 OFFCURVE",
"471 378 CURVE SMOOTH",
"508 341 OFFCURVE",
"530 287 OFFCURVE",
"530 219 CURVE SMOOTH",
"530 151 OFFCURVE",
"508 93 OFFCURVE",
"468 53 CURVE SMOOTH",
"427 12 OFFCURVE",
"368 -12 OFFCURVE",
"295 -12 CURVE SMOOTH",
"236 -12 OFFCURVE",
"193 2 OFFCURVE",
"158 25 CURVE SMOOTH",
"123 48 OFFCURVE",
"98 76 OFFCURVE",
"77 107 CURVE",
"140 155 LINE",
"157 127 OFFCURVE",
"176 104 OFFCURVE",
"200 88 CURVE SMOOTH",
"223 72 OFFCURVE",
"252 63 OFFCURVE",
"295 63 CURVE SMOOTH",
"391 63 OFFCURVE",
"441 116 OFFCURVE",
"441 208 CURVE SMOOTH",
"441 218 LINE SMOOTH",
"441 310 OFFCURVE",
"391 363 OFFCURVE",
"295 363 CURVE SMOOTH",
"231 363 OFFCURVE",
"199 336 OFFCURVE",
"170 304 CURVE",
"99 314 LINE",
"124 698 LINE",
"498 698 LINE"
);
}
);
width = 600;
}
);
unicode = 0035;
},
{
glyphname = six;
layers = (
{
layerId = "E47AB2A9-A2CF-4FC9-8B8C-127EA756ED3A";
name = Regular;
paths = (
{
closed = 1;
nodes = (
"229 -12 OFFCURVE",
"170 14 OFFCURVE",
"130 60 CURVE SMOOTH",
"89 106 OFFCURVE",
"67 173 OFFCURVE",
"67 256 CURVE SMOOTH",
"67 360 OFFCURVE",
"101 452 OFFCURVE",
"150 528 CURVE SMOOTH",
"198 603 OFFCURVE",
"260 662 OFFCURVE",
"316 698 CURVE",
"424 698 LINE",
"349 643 OFFCURVE",
"291 593 OFFCURVE",
"247 537 CURVE SMOOTH",
"203 480 OFFCURVE",
"173 417 OFFCURVE",
"154 336 CURVE",
"159 334 LINE",
"192 391 OFFCURVE",
"242 434 OFFCURVE",
"327 434 CURVE SMOOTH",
"387 434 OFFCURVE",
"439 413 OFFCURVE",
"475 376 CURVE SMOOTH",
"511 339 OFFCURVE",
"533 284 OFFCURVE",
"533 219 CURVE SMOOTH",
"533 151 OFFCURVE",
"510 93 OFFCURVE",
"470 53 CURVE SMOOTH",
"429 12 OFFCURVE",
"370 -12 OFFCURVE",
"301 -12 CURVE SMOOTH"
);
},
{
closed = 1;
nodes = (
"392 61 OFFCURVE",
"446 113 OFFCURVE",
"446 208 CURVE SMOOTH",
"446 216 LINE SMOOTH",
"446 311 OFFCURVE",
"392 363 OFFCURVE",
"300 363 CURVE SMOOTH",
"208 363 OFFCURVE",
"154 311 OFFCURVE",
"154 216 CURVE SMOOTH",
"154 208 LINE SMOOTH",
"154 113 OFFCURVE",
"208 61 OFFCURVE",
"300 61 CURVE SMOOTH"
);
}
);
width = 600;
}
);
unicode = 0036;
},
{
glyphname = seven;
lastChange = "2018-11-04 16:58:15 +0000";
layers = (
{
layerId = "E47AB2A9-A2CF-4FC9-8B8C-127EA756ED3A";
name = Regular;
paths = (
{
closed = 1;
nodes = (
"69 626 LINE",
"442 626 LINE",
"175 0 LINE",
"265 0 LINE",
"527 624 LINE",
"527 698 LINE",
"69 698 LINE"
);
}
);
width = 600;
}
);
unicode = 0037;
},
{
glyphname = eight;
layers = (
{
layerId = "E47AB2A9-A2CF-4FC9-8B8C-127EA756ED3A";
name = Regular;
paths = (
{
closed = 1;
nodes = (
"220 -12 OFFCURVE",
"160 10 OFFCURVE",
"120 46 CURVE SMOOTH",
"79 82 OFFCURVE",
"58 133 OFFCURVE",
"58 190 CURVE SMOOTH",
"58 286 OFFCURVE",
"115 340 OFFCURVE",
"199 363 CURVE",
"199 371 LINE",
"126 396 OFFCURVE",
"79 455 OFFCURVE",
"79 535 CURVE SMOOTH",
"79 642 OFFCURVE",
"160 710 OFFCURVE",
"300 710 CURVE SMOOTH",
"440 710 OFFCURVE",
"521 642 OFFCURVE",
"521 535 CURVE SMOOTH",
"521 455 OFFCURVE",
"474 396 OFFCURVE",
"401 371 CURVE",
"401 363 LINE",
"485 340 OFFCURVE",
"542 286 OFFCURVE",
"542 190 CURVE SMOOTH",
"542 133 OFFCURVE",
"521 82 OFFCURVE",
"481 46 CURVE SMOOTH",
"440 10 OFFCURVE",
"380 -12 OFFCURVE",
"300 -12 CURVE SMOOTH"
);
},
{
closed = 1;
nodes = (
"397 61 OFFCURVE",
"453 106 OFFCURVE",
"453 186 CURVE SMOOTH",
"453 207 LINE SMOOTH",
"453 287 OFFCURVE",
"397 332 OFFCURVE",
"300 332 CURVE SMOOTH",
"203 332 OFFCURVE",
"147 287 OFFCURVE",
"147 207 CURVE SMOOTH",
"147 186 LINE SMOOTH",
"147 106 OFFCURVE",
"203 61 OFFCURVE",
"300 61 CURVE SMOOTH"
);
},
{
closed = 1;
nodes = (
"388 402 OFFCURVE",
"434 440 OFFCURVE",
"434 512 CURVE SMOOTH",
"434 527 LINE SMOOTH",
"434 599 OFFCURVE",
"388 637 OFFCURVE",
"300 637 CURVE SMOOTH",
"212 637 OFFCURVE",
"166 599 OFFCURVE",
"166 527 CURVE SMOOTH",
"166 512 LINE SMOOTH",
"166 440 OFFCURVE",
"212 402 OFFCURVE",
"300 402 CURVE SMOOTH"
);
}
);
width = 600;
}
);
unicode = 0038;
},
{
glyphname = nine;
layers = (
{
layerId = "E47AB2A9-A2CF-4FC9-8B8C-127EA756ED3A";
name = Regular;
paths = (
{
closed = 1;
nodes = (
"533 338 OFFCURVE",
"499 246 OFFCURVE",
"451 171 CURVE SMOOTH",
"402 95 OFFCURVE",
"340 36 OFFCURVE",
"284 0 CURVE",
"176 0 LINE",
"251 55 OFFCURVE",
"309 105 OFFCURVE",
"353 162 CURVE SMOOTH",
"397 218 OFFCURVE",
"427 281 OFFCURVE",
"446 362 CURVE",
"441 364 LINE",
"408 307 OFFCURVE",
"358 264 OFFCURVE",
"273 264 CURVE SMOOTH",
"213 264 OFFCURVE",
"161 285 OFFCURVE",
"125 322 CURVE SMOOTH",
"89 359 OFFCURVE",
"67 412 OFFCURVE",
"67 479 CURVE SMOOTH",
"67 547 OFFCURVE",
"90 605 OFFCURVE",
"131 646 CURVE SMOOTH",
"171 686 OFFCURVE",
"228 710 OFFCURVE",
"299 710 CURVE SMOOTH",
"371 710 OFFCURVE",
"430 685 OFFCURVE",
"471 639 CURVE SMOOTH",
"511 593 OFFCURVE",
"533 525 OFFCURVE",
"533 442 CURVE SMOOTH"
);
},
{
closed = 1;
nodes = (
"392 335 OFFCURVE",
"446 387 OFFCURVE",
"446 482 CURVE SMOOTH",
"446 490 LINE SMOOTH",
"446 585 OFFCURVE",
"392 637 OFFCURVE",
"300 637 CURVE SMOOTH",
"208 637 OFFCURVE",
"154 585 OFFCURVE",
"154 490 CURVE SMOOTH",
"154 482 LINE SMOOTH",
"154 387 OFFCURVE",
"208 335 OFFCURVE",
"300 335 CURVE SMOOTH"
);
}
);
width = 600;
}
);
unicode = 0039;
},
{
glyphname = ampersand;
layers = (
{
layerId = "E47AB2A9-A2CF-4FC9-8B8C-127EA756ED3A";
name = Regular;
paths = (
{
closed = 1;
nodes = (
"489 82 LINE",
"474 65 OFFCURVE",
"452 41 OFFCURVE",
"420 22 CURVE SMOOTH",
"387 3 OFFCURVE",
"342 -12 OFFCURVE",
"286 -12 CURVE SMOOTH",
"217 -12 OFFCURVE",
"163 9 OFFCURVE",
"127 45 CURVE SMOOTH",
"91 80 OFFCURVE",
"72 128 OFFCURVE",
"72 181 CURVE SMOOTH",
"72 233 OFFCURVE",
"89 272 OFFCURVE",
"117 304 CURVE SMOOTH",
"144 335 OFFCURVE",
"179 358 OFFCURVE",
"215 378 CURVE",
"167 429 OFFCURVE",
"136 479 OFFCURVE",
"136 542 CURVE SMOOTH",
"136 589 OFFCURVE",
"154 632 OFFCURVE",
"186 662 CURVE SMOOTH",
"217 692 OFFCURVE",
"262 710 OFFCURVE",
"317 710 CURVE SMOOTH",
"366 710 OFFCURVE",
"409 695 OFFCURVE",
"438 669 CURVE SMOOTH",
"467 643 OFFCURVE",
"485 604 OFFCURVE",
"485 560 CURVE SMOOTH",
"485 513 OFFCURVE",
"467 478 OFFCURVE",
"438 447 CURVE SMOOTH",
"409 416 OFFCURVE",
"369 391 OFFCURVE",
"325 367 CURVE",
"482 198 LINE",
"502 249 OFFCURVE",
"512 307 OFFCURVE",
"515 367 CURVE",
"651 367 LINE",
"651 299 LINE",
"580 299 LINE",
"571 240 OFFCURVE",
"555 189 OFFCURVE",
"532 145 CURVE",
"668 0 LINE",
"564 0 LINE"
);
},
{
closed = 1;
nodes = (
"256 643 OFFCURVE",
"215 602 OFFCURVE",
"215 549 CURVE SMOOTH",
"215 537 LINE SMOOTH",
"215 497 OFFCURVE",
"242 457 OFFCURVE",
"282 412 CURVE",
"314 429 OFFCURVE",
"345 448 OFFCURVE",
"369 471 CURVE SMOOTH",
"392 494 OFFCURVE",
"408 518 OFFCURVE",
"408 546 CURVE SMOOTH",
"408 558 LINE SMOOTH",
"408 613 OFFCURVE",
"364 643 OFFCURVE",
"313 643 CURVE SMOOTH"
);
},
{
closed = 1;
nodes = (
"361 58 OFFCURVE",
"409 86 OFFCURVE",
"444 130 CURVE",
"257 332 LINE",
"230 317 OFFCURVE",
"205 303 OFFCURVE",
"186 281 CURVE SMOOTH",
"167 259 OFFCURVE",
"155 231 OFFCURVE",
"155 192 CURVE SMOOTH",
"155 177 LINE SMOOTH",
"155 104 OFFCURVE",
"209 58 OFFCURVE",
"293 58 CURVE SMOOTH"
);
}
);
width = 694;
}
);
leftKerningGroup = ampersand;
rightKerningGroup = ampersand;
unicode = 0026;
},
{
glyphname = at;
layers = (
{
layerId = "E47AB2A9-A2CF-4FC9-8B8C-127EA756ED3A";
name = Regular;
paths = (
{
closed = 1;
nodes = (
"679 -121 LINE",
"447 -121 LINE SMOOTH",
"332 -121 OFFCURVE",
"237 -81 OFFCURVE",
"170 -9 CURVE SMOOTH",
"103 62 OFFCURVE",
"65 164 OFFCURVE",
"65 288 CURVE SMOOTH",
"65 412 OFFCURVE",
"104 517 OFFCURVE",
"172 591 CURVE SMOOTH",
"240 665 OFFCURVE",
"337 708 OFFCURVE",
"456 708 CURVE SMOOTH",
"549 708 OFFCURVE",
"643 680 OFFCURVE",
"712 619 CURVE SMOOTH",
"780 558 OFFCURVE",
"826 460 OFFCURVE",
"826 323 CURVE SMOOTH",
"826 254 OFFCURVE",
"814 191 OFFCURVE",
"786 145 CURVE SMOOTH",
"758 99 OFFCURVE",
"715 69 OFFCURVE",
"652 69 CURVE SMOOTH",
"588 69 OFFCURVE",
"558 104 OFFCURVE",
"551 155 CURVE",
"547 155 LINE",
"520 102 OFFCURVE",
"484 69 OFFCURVE",
"423 69 CURVE SMOOTH",
"376 69 OFFCURVE",
"333 87 OFFCURVE",
"301 123 CURVE SMOOTH",
"269 159 OFFCURVE",
"249 214 OFFCURVE",
"249 289 CURVE SMOOTH",
"249 364 OFFCURVE",
"269 419 OFFCURVE",
"301 455 CURVE SMOOTH",
"333 491 OFFCURVE",
"376 509 OFFCURVE",
"423 509 CURVE SMOOTH",
"484 509 OFFCURVE",
"518 475 OFFCURVE",
"537 432 CURVE",
"541 432 LINE",
"541 500 LINE",
"610 500 LINE",
"610 196 LINE SMOOTH",
"610 144 OFFCURVE",
"628 130 OFFCURVE",
"665 130 CURVE SMOOTH",
"728 130 OFFCURVE",
"760 198 OFFCURVE",
"760 310 CURVE SMOOTH",
"760 356 LINE SMOOTH",
"760 444 OFFCURVE",
"727 517 OFFCURVE",
"672 568 CURVE SMOOTH",
"617 619 OFFCURVE",
"540 648 OFFCURVE",
"455 648 CURVE SMOOTH",
"359 648 OFFCURVE",
"279 613 OFFCURVE",
"222 554 CURVE SMOOTH",
"165 494 OFFCURVE",
"132 413 OFFCURVE",
"132 321 CURVE SMOOTH",
"132 262 LINE SMOOTH",
"132 167 OFFCURVE",
"164 87 OFFCURVE",
"220 30 CURVE SMOOTH",
"275 -27 OFFCURVE",
"353 -60 OFFCURVE",
"448 -60 CURVE SMOOTH",
"679 -60 LINE"
);
},
{
closed = 1;
nodes = (
"508 135 OFFCURVE",
"541 170 OFFCURVE",
"541 231 CURVE SMOOTH",
"541 353 LINE SMOOTH",
"541 404 OFFCURVE",
"509 443 OFFCURVE",
"437 443 CURVE SMOOTH",
"365 443 OFFCURVE",
"333 398 OFFCURVE",
"333 329 CURVE SMOOTH",
"333 249 LINE SMOOTH",
"333 180 OFFCURVE",
"365 135 OFFCURVE",
"437 135 CURVE SMOOTH"
);
}
);
width = 891;
}
);
leftKerningGroup = at;
rightKerningGroup = at;
unicode = 0040;
},
{
glyphname = hyphen;
layers = (
{
layerId = "E47AB2A9-A2CF-4FC9-8B8C-127EA756ED3A";
name = Regular;
paths = (
{
closed = 1;
nodes = (
"69 261 LINE",
"69 347 LINE",
"330 347 LINE",
"330 261 LINE"
);
}
);
width = 399;
}
);
leftKerningGroup = hyphen;
rightKerningGroup = hyphen;
unicode = 002D;
},
{
glyphname = uni00AD;
layers = (
{
layerId = "E47AB2A9-A2CF-4FC9-8B8C-127EA756ED3A";
name = Regular;
paths = (
{
closed = 1;
nodes = (
"69 261 LINE",
"69 347 LINE",
"330 347 LINE",
"330 261 LINE"
);
}
);
width = 399;
}
);
leftKerningGroup = hyphen;
rightKerningGroup = hyphen;
unicode = 00AD;
},
{
glyphname = endash;
layers = (
{
layerId = "E47AB2A9-A2CF-4FC9-8B8C-127EA756ED3A";
name = Regular;
paths = (
{
closed = 1;
nodes = (
"36 266 LINE",
"36 342 LINE",
"552 342 LINE",
"552 266 LINE"
);
}
);
width = 588;
}
);
leftKerningGroup = hyphen;
rightKerningGroup = hyphen;
unicode = 2013;
},
{
glyphname = emdash;
layers = (
{
layerId = "E47AB2A9-A2CF-4FC9-8B8C-127EA756ED3A";
name = Regular;
paths = (
{
closed = 1;
nodes = (
"36 266 LINE",
"36 342 LINE",
"744 342 LINE",
"744 266 LINE"
);
}
);
width = 780;
}
);
leftKerningGroup = hyphen;
rightKerningGroup = hyphen;
unicode = 2014;
},
{
glyphname = underscore;
layers = (
{
layerId = "E47AB2A9-A2CF-4FC9-8B8C-127EA756ED3A";
name = Regular;
paths = (
{
closed = 1;
nodes = (
"30 -165 LINE",
"30 -95 LINE",
"535 -95 LINE",
"535 -165 LINE"
);
}
);
width = 565;
}
);
leftKerningGroup = underscore;
rightKerningGroup = underscore;
unicode = 005F;
},
{
glyphname = period;
lastChange = "2018-11-04 16:58:33 +0000";
layers = (
{
layerId = "E47AB2A9-A2CF-4FC9-8B8C-127EA756ED3A";
name = Regular;
paths = (
{
closed = 1;
nodes = (
"93 -12 OFFCURVE",
"75 11 OFFCURVE",
"75 46 CURVE SMOOTH",
"75 59 LINE SMOOTH",
"75 94 OFFCURVE",
"93 117 OFFCURVE",
"136 117 CURVE SMOOTH",
"179 117 OFFCURVE",
"197 94 OFFCURVE",
"197 59 CURVE SMOOTH",
"197 46 LINE SMOOTH",
"197 11 OFFCURVE",
"179 -12 OFFCURVE",
"136 -12 CURVE SMOOTH"
);
}
);
width = 272;
}
);
leftKerningGroup = period;
rightKerningGroup = period;
unicode = 002E;
},
{
glyphname = ellipsis;
layers = (
{
layerId = "E47AB2A9-A2CF-4FC9-8B8C-127EA756ED3A";
name = Regular;
paths = (
{
closed = 1;
nodes = (
"93 -12 OFFCURVE",
"75 11 OFFCURVE",
"75 46 CURVE SMOOTH",
"75 59 LINE SMOOTH",
"75 94 OFFCURVE",
"93 117 OFFCURVE",
"136 117 CURVE SMOOTH",
"179 117 OFFCURVE",
"197 94 OFFCURVE",
"197 59 CURVE SMOOTH",
"197 46 LINE SMOOTH",
"197 11 OFFCURVE",
"179 -12 OFFCURVE",
"136 -12 CURVE SMOOTH"
);
},
{
closed = 1;
nodes = (
"358 -12 OFFCURVE",
"340 11 OFFCURVE",
"340 46 CURVE SMOOTH",
"340 59 LINE SMOOTH",
"340 94 OFFCURVE",
"358 117 OFFCURVE",
"401 117 CURVE SMOOTH",
"444 117 OFFCURVE",
"462 94 OFFCURVE",
"462 59 CURVE SMOOTH",
"462 46 LINE SMOOTH",
"462 11 OFFCURVE",
"444 -12 OFFCURVE",
"401 -12 CURVE SMOOTH"
);
},
{
closed = 1;
nodes = (
"624 -12 OFFCURVE",
"606 11 OFFCURVE",
"606 46 CURVE SMOOTH",
"606 59 LINE SMOOTH",
"606 94 OFFCURVE",
"624 117 OFFCURVE",
"667 117 CURVE SMOOTH",
"710 117 OFFCURVE",
"728 94 OFFCURVE",
"728 59 CURVE SMOOTH",
"728 46 LINE SMOOTH",
"728 11 OFFCURVE",
"710 -12 OFFCURVE",
"667 -12 CURVE SMOOTH"
);
}
);
width = 803;
}
);
leftKerningGroup = period;
rightKerningGroup = period;
unicode = 2026;
},
{
glyphname = colon;
layers = (
{
layerId = "E47AB2A9-A2CF-4FC9-8B8C-127EA756ED3A";
name = Regular;
paths = (
{
closed = 1;
nodes = (
"103 -12 OFFCURVE",
"85 11 OFFCURVE",
"85 46 CURVE SMOOTH",
"85 59 LINE SMOOTH",
"85 94 OFFCURVE",
"103 117 OFFCURVE",
"146 117 CURVE SMOOTH",
"189 117 OFFCURVE",
"207 94 OFFCURVE",
"207 59 CURVE SMOOTH",
"207 46 LINE SMOOTH",
"207 11 OFFCURVE",
"189 -12 OFFCURVE",
"146 -12 CURVE SMOOTH"
);
},
{
closed = 1;
nodes = (
"103 394 OFFCURVE",
"85 417 OFFCURVE",
"85 452 CURVE SMOOTH",
"85 465 LINE SMOOTH",
"85 500 OFFCURVE",
"103 523 OFFCURVE",
"146 523 CURVE SMOOTH",
"189 523 OFFCURVE",
"207 500 OFFCURVE",
"207 465 CURVE SMOOTH",
"207 452 LINE SMOOTH",
"207 417 OFFCURVE",
"189 394 OFFCURVE",
"146 394 CURVE SMOOTH"
);
}
);
width = 292;
}
);
leftKerningGroup = colon;
unicode = 003A;
},
{
glyphname = comma;
layers = (
{
layerId = "E47AB2A9-A2CF-4FC9-8B8C-127EA756ED3A";
name = Regular;
paths = (
{
closed = 1;
nodes = (
"179 117 OFFCURVE",
"197 93 OFFCURVE",
"197 58 CURVE SMOOTH",
"197 44 LINE SMOOTH",
"197 -11 OFFCURVE",
"163 -84 OFFCURVE",
"106 -133 CURVE",
"39 -133 LINE",
"79 -90 OFFCURVE",
"103 -56 OFFCURVE",
"114 -9 CURVE",
"87 -2 OFFCURVE",
"75 17 OFFCURVE",
"75 44 CURVE SMOOTH",
"75 58 LINE SMOOTH",
"75 93 OFFCURVE",
"93 117 OFFCURVE",
"136 117 CURVE SMOOTH"
);
}
);
width = 272;
}
);
leftKerningGroup = period;
rightKerningGroup = period;
unicode = 002C;
},
{
glyphname = semicolon;
layers = (
{
layerId = "E47AB2A9-A2CF-4FC9-8B8C-127EA756ED3A";
name = Regular;
paths = (
{
closed = 1;
nodes = (
"189 117 OFFCURVE",
"207 93 OFFCURVE",
"207 58 CURVE SMOOTH",
"207 44 LINE SMOOTH",
"207 -11 OFFCURVE",
"173 -84 OFFCURVE",
"116 -133 CURVE",
"49 -133 LINE",
"89 -90 OFFCURVE",
"113 -56 OFFCURVE",
"124 -9 CURVE",
"97 -2 OFFCURVE",
"85 17 OFFCURVE",
"85 44 CURVE SMOOTH",
"85 58 LINE SMOOTH",
"85 93 OFFCURVE",
"103 117 OFFCURVE",
"146 117 CURVE SMOOTH"
);
},
{
closed = 1;
nodes = (
"103 394 OFFCURVE",
"85 417 OFFCURVE",
"85 452 CURVE SMOOTH",
"85 465 LINE SMOOTH",
"85 500 OFFCURVE",
"103 523 OFFCURVE",
"146 523 CURVE SMOOTH",
"189 523 OFFCURVE",
"207 500 OFFCURVE",
"207 465 CURVE SMOOTH",
"207 452 LINE SMOOTH",
"207 417 OFFCURVE",
"189 394 OFFCURVE",
"146 394 CURVE SMOOTH"
);
}
);
width = 292;
}
);
leftKerningGroup = colon;
unicode = 003B;
},
{
glyphname = quotesingle;
layers = (
{
layerId = "E47AB2A9-A2CF-4FC9-8B8C-127EA756ED3A";
name = Regular;
paths = (
{
closed = 1;
nodes = (
"85 460 LINE",
"85 740 LINE",
"157 740 LINE",
"157 460 LINE"
);
}
);
width = 242;
}
);
leftKerningGroup = quotesingle;
rightKerningGroup = quotesingle;
unicode = 0027;
},
{
glyphname = quotedbl;
layers = (
{
layerId = "E47AB2A9-A2CF-4FC9-8B8C-127EA756ED3A";
name = Regular;
paths = (
{
closed = 1;
nodes = (
"85 460 LINE",
"85 740 LINE",
"157 740 LINE",
"157 460 LINE"
);
},
{
closed = 1;
nodes = (
"262 460 LINE",
"262 740 LINE",
"334 740 LINE",
"334 460 LINE"
);
}
);
width = 419;
}
);
leftKerningGroup = quotesingle;
rightKerningGroup = quotesingle;
unicode = 0022;
},
{
glyphname = quoteleft;
layers = (
{
layerId = "E47AB2A9-A2CF-4FC9-8B8C-127EA756ED3A";
name = Regular;
paths = (
{
closed = 1;
nodes = (
"89 490 OFFCURVE",
"71 514 OFFCURVE",
"71 549 CURVE SMOOTH",
"71 563 LINE SMOOTH",
"71 618 OFFCURVE",
"105 691 OFFCURVE",
"162 740 CURVE",
"229 740 LINE",
"189 697 OFFCURVE",
"165 663 OFFCURVE",
"154 616 CURVE",
"181 609 OFFCURVE",
"193 590 OFFCURVE",
"193 563 CURVE SMOOTH",
"193 549 LINE SMOOTH",
"193 514 OFFCURVE",
"175 490 OFFCURVE",
"132 490 CURVE SMOOTH"
);
}
);
width = 273;
}
);
leftKerningGroup = quoteleft;
rightKerningGroup = quoteleft;
unicode = 2018;
},
{
glyphname = quoteright;
layers = (
{
layerId = "E47AB2A9-A2CF-4FC9-8B8C-127EA756ED3A";
name = Regular;
paths = (
{
closed = 1;
nodes = (
"184 750 OFFCURVE",
"202 726 OFFCURVE",
"202 691 CURVE SMOOTH",
"202 677 LINE SMOOTH",
"202 622 OFFCURVE",
"168 549 OFFCURVE",
"111 500 CURVE",
"44 500 LINE",
"84 543 OFFCURVE",
"108 577 OFFCURVE",
"119 624 CURVE",
"92 631 OFFCURVE",
"80 650 OFFCURVE",
"80 677 CURVE SMOOTH",
"80 691 LINE SMOOTH",
"80 726 OFFCURVE",
"98 750 OFFCURVE",
"141 750 CURVE SMOOTH"
);
}
);
width = 273;
}
);
leftKerningGroup = quoteright;
rightKerningGroup = quoteright;
unicode = 2019;
},
{
glyphname = quotedblleft;
layers = (
{
layerId = "E47AB2A9-A2CF-4FC9-8B8C-127EA756ED3A";
name = Regular;
paths = (
{
closed = 1;
nodes = (
"89 490 OFFCURVE",
"71 514 OFFCURVE",
"71 549 CURVE SMOOTH",
"71 563 LINE SMOOTH",
"71 618 OFFCURVE",
"105 691 OFFCURVE",
"162 740 CURVE",
"229 740 LINE",
"189 697 OFFCURVE",
"165 663 OFFCURVE",
"154 616 CURVE",
"181 609 OFFCURVE",
"193 590 OFFCURVE",
"193 563 CURVE SMOOTH",
"193 549 LINE SMOOTH",
"193 514 OFFCURVE",
"175 490 OFFCURVE",
"132 490 CURVE SMOOTH"
);
},
{
closed = 1;
nodes = (
"291 490 OFFCURVE",
"273 514 OFFCURVE",
"273 549 CURVE SMOOTH",
"273 563 LINE SMOOTH",
"273 618 OFFCURVE",
"307 691 OFFCURVE",
"364 740 CURVE",
"431 740 LINE",
"391 697 OFFCURVE",
"367 663 OFFCURVE",
"356 616 CURVE",
"383 609 OFFCURVE",
"395 590 OFFCURVE",
"395 563 CURVE SMOOTH",
"395 549 LINE SMOOTH",
"395 514 OFFCURVE",
"377 490 OFFCURVE",
"334 490 CURVE SMOOTH"
);
}
);
width = 475;
}
);
leftKerningGroup = quoteleft;
rightKerningGroup = quoteleft;
unicode = 201C;
},
{
glyphname = quotedblright;
layers = (
{
layerId = "E47AB2A9-A2CF-4FC9-8B8C-127EA756ED3A";
name = Regular;
paths = (
{
closed = 1;
nodes = (
"184 750 OFFCURVE",
"202 726 OFFCURVE",
"202 691 CURVE SMOOTH",
"202 677 LINE SMOOTH",
"202 622 OFFCURVE",
"168 549 OFFCURVE",
"111 500 CURVE",
"44 500 LINE",
"84 543 OFFCURVE",
"108 577 OFFCURVE",
"119 624 CURVE",
"92 631 OFFCURVE",
"80 650 OFFCURVE",
"80 677 CURVE SMOOTH",
"80 691 LINE SMOOTH",
"80 726 OFFCURVE",
"98 750 OFFCURVE",
"141 750 CURVE SMOOTH"
);
},
{
closed = 1;
nodes = (
"385 750 OFFCURVE",
"403 726 OFFCURVE",
"403 691 CURVE SMOOTH",
"403 677 LINE SMOOTH",
"403 622 OFFCURVE",
"369 549 OFFCURVE",
"312 500 CURVE",
"245 500 LINE",
"285 543 OFFCURVE",
"309 577 OFFCURVE",
"320 624 CURVE",
"293 631 OFFCURVE",
"281 650 OFFCURVE",
"281 677 CURVE SMOOTH",
"281 691 LINE SMOOTH",
"281 726 OFFCURVE",
"299 750 OFFCURVE",
"342 750 CURVE SMOOTH"
);
}
);
width = 474;
}
);
leftKerningGroup = quoteright;
rightKerningGroup = quoteright;
unicode = 201D;
},
{
glyphname = quotesinglbase;
layers = (
{
layerId = "E47AB2A9-A2CF-4FC9-8B8C-127EA756ED3A";
name = Regular;
paths = (
{
closed = 1;
nodes = (
"175 134 OFFCURVE",
"193 110 OFFCURVE",
"193 75 CURVE SMOOTH",
"193 61 LINE SMOOTH",
"193 6 OFFCURVE",
"159 -67 OFFCURVE",
"102 -116 CURVE",
"35 -116 LINE",
"75 -73 OFFCURVE",
"99 -39 OFFCURVE",
"110 8 CURVE",
"83 15 OFFCURVE",
"71 34 OFFCURVE",
"71 61 CURVE SMOOTH",
"71 75 LINE SMOOTH",
"71 110 OFFCURVE",
"89 134 OFFCURVE",
"132 134 CURVE SMOOTH"
);
}
);
width = 274;
}
);
leftKerningGroup = period;
rightKerningGroup = period;
unicode = 201A;
},
{
glyphname = quotedblbase;
layers = (
{
layerId = "E47AB2A9-A2CF-4FC9-8B8C-127EA756ED3A";
name = Regular;
paths = (
{
closed = 1;
nodes = (
"175 134 OFFCURVE",
"193 110 OFFCURVE",
"193 75 CURVE SMOOTH",
"193 61 LINE SMOOTH",
"193 6 OFFCURVE",
"159 -67 OFFCURVE",
"102 -116 CURVE",
"35 -116 LINE",
"75 -73 OFFCURVE",
"99 -39 OFFCURVE",
"110 8 CURVE",
"83 15 OFFCURVE",
"71 34 OFFCURVE",
"71 61 CURVE SMOOTH",
"71 75 LINE SMOOTH",
"71 110 OFFCURVE",
"89 134 OFFCURVE",
"132 134 CURVE SMOOTH"
);
},
{
closed = 1;
nodes = (
"376 134 OFFCURVE",
"394 110 OFFCURVE",
"394 75 CURVE SMOOTH",
"394 61 LINE SMOOTH",
"394 6 OFFCURVE",
"360 -67 OFFCURVE",
"303 -116 CURVE",
"236 -116 LINE",
"276 -73 OFFCURVE",
"300 -39 OFFCURVE",
"311 8 CURVE",
"284 15 OFFCURVE",
"272 34 OFFCURVE",
"272 61 CURVE SMOOTH",
"272 75 LINE SMOOTH",
"272 110 OFFCURVE",
"290 134 OFFCURVE",
"333 134 CURVE SMOOTH"
);
}
);
width = 475;
}
);
leftKerningGroup = period;
rightKerningGroup = period;
unicode = 201E;
},
{
glyphname = guilsinglleft;
layers = (
{
layerId = "E47AB2A9-A2CF-4FC9-8B8C-127EA756ED3A";
name = Regular;
paths = (
{
closed = 1;
nodes = (
"228 80 LINE",
"36 246 LINE",
"36 322 LINE",
"228 488 LINE",
"252 434 LINE",
"115 284 LINE",
"252 134 LINE"
);
}
);
width = 304;
}
);
leftKerningGroup = guilsinglleft;
rightKerningGroup = guilsinglleft;
unicode = 2039;
},
{
glyphname = guilsinglright;
layers = (
{
layerId = "E47AB2A9-A2CF-4FC9-8B8C-127EA756ED3A";
name = Regular;
paths = (
{
closed = 1;
nodes = (
"52 134 LINE",
"189 284 LINE",
"52 434 LINE",
"76 488 LINE",
"268 322 LINE",
"268 246 LINE",
"76 80 LINE"
);
}
);
width = 304;
}
);
leftKerningGroup = guilsinglright;
rightKerningGroup = guilsinglright;
unicode = 203A;
},
{
glyphname = guillemotleft;
layers = (
{
layerId = "E47AB2A9-A2CF-4FC9-8B8C-127EA756ED3A";
name = Regular;
paths = (
{
closed = 1;
nodes = (
"228 80 LINE",
"36 246 LINE",
"36 322 LINE",
"228 488 LINE",
"252 434 LINE",
"115 284 LINE",
"252 134 LINE"
);
},
{
closed = 1;
nodes = (
"437 80 LINE",
"245 246 LINE",
"245 322 LINE",
"437 488 LINE",
"461 434 LINE",
"324 284 LINE",
"461 134 LINE"
);
}
);
width = 513;
}
);
leftKerningGroup = guilsinglleft;
rightKerningGroup = guilsinglleft;
unicode = 00AB;
},
{
glyphname = guillemotright;
layers = (
{
layerId = "E47AB2A9-A2CF-4FC9-8B8C-127EA756ED3A";
name = Regular;
paths = (
{
closed = 1;
nodes = (
"52 134 LINE",
"189 284 LINE",
"52 434 LINE",
"76 488 LINE",
"268 322 LINE",
"268 246 LINE",
"76 80 LINE"
);
},
{
closed = 1;
nodes = (
"261 134 LINE",
"398 284 LINE",
"261 434 LINE",
"285 488 LINE",
"477 322 LINE",
"477 246 LINE",
"285 80 LINE"
);
}
);
width = 513;
}
);
leftKerningGroup = guilsinglright;
rightKerningGroup = guilsinglright;
unicode = 00BB;
},
{
glyphname = exclamdown;
layers = (
{
layerId = "E47AB2A9-A2CF-4FC9-8B8C-127EA756ED3A";
name = Regular;
paths = (
{
closed = 1;
nodes = (
"97 -182 LINE",
"97 21 LINE",
"121 331 LINE",
"161 331 LINE",
"185 21 LINE",
"185 -182 LINE"
);
},
{
closed = 1;
nodes = (
"99 399 OFFCURVE",
"81 422 OFFCURVE",
"81 457 CURVE SMOOTH",
"81 470 LINE SMOOTH",
"81 505 OFFCURVE",
"99 528 OFFCURVE",
"142 528 CURVE SMOOTH",
"185 528 OFFCURVE",
"203 505 OFFCURVE",
"203 470 CURVE SMOOTH",
"203 457 LINE SMOOTH",
"203 422 OFFCURVE",
"185 399 OFFCURVE",
"142 399 CURVE SMOOTH"
);
}
);
width = 284;
}
);
rightKerningGroup = exclamdown;
unicode = 00A1;
},
{
glyphname = exclam;
layers = (
{
layerId = "E47AB2A9-A2CF-4FC9-8B8C-127EA756ED3A";
name = Regular;
paths = (
{
closed = 1;
nodes = (
"122 185 LINE",
"98 495 LINE",
"98 698 LINE",
"186 698 LINE",
"186 495 LINE",
"162 185 LINE"
);
},
{
closed = 1;
nodes = (
"99 -12 OFFCURVE",
"81 11 OFFCURVE",
"81 46 CURVE SMOOTH",
"81 59 LINE SMOOTH",
"81 94 OFFCURVE",
"99 117 OFFCURVE",
"142 117 CURVE SMOOTH",
"185 117 OFFCURVE",
"203 94 OFFCURVE",
"203 59 CURVE SMOOTH",
"203 46 LINE SMOOTH",
"203 11 OFFCURVE",
"185 -12 OFFCURVE",
"142 -12 CURVE SMOOTH"
);
}
);
width = 284;
}
);
leftKerningGroup = exclam;
unicode = 0021;
},
{
glyphname = questiondown;
layers = (
{
layerId = "E47AB2A9-A2CF-4FC9-8B8C-127EA756ED3A";
name = Regular;
paths = (
{
closed = 1;
nodes = (
"114 -194 OFFCURVE",
"37 -121 OFFCURVE",
"37 -5 CURVE SMOOTH",
"37 59 OFFCURVE",
"61 106 OFFCURVE",
"96 139 CURVE SMOOTH",
"131 172 OFFCURVE",
"177 192 OFFCURVE",
"221 200 CURVE",
"221 308 LINE",
"298 308 LINE",
"298 144 LINE",
"189 139 OFFCURVE",
"123 89 OFFCURVE",
"123 5 CURVE SMOOTH",
"123 -9 LINE SMOOTH",
"123 -77 OFFCURVE",
"169 -121 OFFCURVE",
"241 -121 CURVE SMOOTH",
"318 -121 OFFCURVE",
"364 -72 OFFCURVE",
"380 -4 CURVE",
"454 -32 LINE",
"442 -75 OFFCURVE",
"419 -115 OFFCURVE",
"384 -145 CURVE SMOOTH",
"348 -175 OFFCURVE",
"301 -194 OFFCURVE",
"238 -194 CURVE SMOOTH"
);
},
{
closed = 1;
nodes = (
"219 399 OFFCURVE",
"201 422 OFFCURVE",
"201 457 CURVE SMOOTH",
"201 470 LINE SMOOTH",
"201 505 OFFCURVE",
"219 528 OFFCURVE",
"262 528 CURVE SMOOTH",
"305 528 OFFCURVE",
"323 505 OFFCURVE",
"323 470 CURVE SMOOTH",
"323 457 LINE SMOOTH",
"323 422 OFFCURVE",
"305 399 OFFCURVE",
"262 399 CURVE SMOOTH"
);
}
);
width = 467;
}
);
leftKerningGroup = questiondown;
rightKerningGroup = questiondown;
unicode = 00BF;
},
{
glyphname = question;
layers = (
{
layerId = "E47AB2A9-A2CF-4FC9-8B8C-127EA756ED3A";
name = Regular;
paths = (
{
closed = 1;
nodes = (
"179 208 LINE",
"179 372 LINE",
"288 377 OFFCURVE",
"354 427 OFFCURVE",
"354 511 CURVE SMOOTH",
"354 525 LINE SMOOTH",
"354 593 OFFCURVE",
"308 637 OFFCURVE",
"236 637 CURVE SMOOTH",
"159 637 OFFCURVE",
"113 588 OFFCURVE",
"97 520 CURVE",
"23 548 LINE",
"35 591 OFFCURVE",
"58 632 OFFCURVE",
"94 662 CURVE SMOOTH",
"129 692 OFFCURVE",
"176 710 OFFCURVE",
"239 710 CURVE SMOOTH",
"363 710 OFFCURVE",
"440 637 OFFCURVE",
"440 521 CURVE SMOOTH",
"440 457 OFFCURVE",
"416 410 OFFCURVE",
"381 377 CURVE SMOOTH",
"346 344 OFFCURVE",
"300 324 OFFCURVE",
"256 316 CURVE",
"256 208 LINE"
);
},
{
closed = 1;
nodes = (
"175 -12 OFFCURVE",
"157 11 OFFCURVE",
"157 46 CURVE SMOOTH",
"157 59 LINE SMOOTH",
"157 94 OFFCURVE",
"175 117 OFFCURVE",
"218 117 CURVE SMOOTH",
"261 117 OFFCURVE",
"279 94 OFFCURVE",
"279 59 CURVE SMOOTH",
"279 46 LINE SMOOTH",
"279 11 OFFCURVE",
"261 -12 OFFCURVE",
"218 -12 CURVE SMOOTH"
);
}
);
width = 477;
}
);
leftKerningGroup = question;
rightKerningGroup = question;
unicode = 003F;
},
{
glyphname = parenleft;
layers = (
{
layerId = "E47AB2A9-A2CF-4FC9-8B8C-127EA756ED3A";
name = Regular;
paths = (
{
closed = 1;
nodes = (
"83 408 OFFCURVE",
"103 499 OFFCURVE",
"136 576 CURVE SMOOTH",
"168 652 OFFCURVE",
"213 716 OFFCURVE",
"264 760 CURVE",
"340 760 LINE",
"284 709 OFFCURVE",
"239 644 OFFCURVE",
"208 572 CURVE SMOOTH",
"176 500 OFFCURVE",
"158 423 OFFCURVE",
"158 354 CURVE SMOOTH",
"158 268 LINE SMOOTH",
"158 197 OFFCURVE",
"176 121 OFFCURVE",
"208 49 CURVE SMOOTH",
"240 -23 OFFCURVE",
"285 -89 OFFCURVE",
"340 -137 CURVE",
"264 -137 LINE",
"215 -96 OFFCURVE",
"169 -31 OFFCURVE",
"137 46 CURVE SMOOTH",
"104 123 OFFCURVE",
"83 215 OFFCURVE",
"83 312 CURVE SMOOTH"
);
}
);
width = 335;
}
);
rightKerningGroup = parenleft;
unicode = 0028;
},
{
glyphname = parenright;
layers = (
{
layerId = "E47AB2A9-A2CF-4FC9-8B8C-127EA756ED3A";
name = Regular;
paths = (
{
closed = 1;
nodes = (
"252 215 OFFCURVE",
"231 123 OFFCURVE",
"199 46 CURVE SMOOTH",
"166 -31 OFFCURVE",
"120 -96 OFFCURVE",
"71 -137 CURVE",
"-5 -137 LINE",
"48 -89 OFFCURVE",
"94 -23 OFFCURVE",
"126 49 CURVE SMOOTH",
"158 121 OFFCURVE",
"177 197 OFFCURVE",
"177 268 CURVE SMOOTH",
"177 354 LINE SMOOTH",
"177 423 OFFCURVE",
"159 500 OFFCURVE",
"128 572 CURVE SMOOTH",
"96 644 OFFCURVE",
"51 709 OFFCURVE",
"-5 760 CURVE",
"71 760 LINE",
"122 716 OFFCURVE",
"167 652 OFFCURVE",
"200 576 CURVE SMOOTH",
"232 499 OFFCURVE",
"252 408 OFFCURVE",
"252 312 CURVE SMOOTH"
);
}
);
width = 335;
}
);
leftKerningGroup = parenright;
unicode = 0029;
},
{
glyphname = bracketleft;
layers = (
{
layerId = "E47AB2A9-A2CF-4FC9-8B8C-127EA756ED3A";
name = Regular;
paths = (
{
closed = 1;
nodes = (
"93 -138 LINE",
"93 760 LINE",
"257 760 LINE",
"257 697 LINE",
"162 697 LINE",
"162 -75 LINE",
"257 -75 LINE",
"257 -138 LINE"
);
}
);
width = 317;
}
);
rightKerningGroup = bracketleft;
unicode = 005B;
},
{
glyphname = bracketright;
layers = (
{
layerId = "E47AB2A9-A2CF-4FC9-8B8C-127EA756ED3A";
name = Regular;
paths = (
{
closed = 1;
nodes = (
"224 760 LINE",
"224 -138 LINE",
"60 -138 LINE",
"60 -75 LINE",
"155 -75 LINE",
"155 697 LINE",
"60 697 LINE",
"60 760 LINE"
);
}
);
width = 317;
}
);
leftKerningGroup = bracketright;
unicode = 005D;
},
{
glyphname = braceleft;
layers = (
{
layerId = "E47AB2A9-A2CF-4FC9-8B8C-127EA756ED3A";
name = Regular;
paths = (
{
closed = 1;
nodes = (
"199 -138 LINE SMOOTH",
"146 -138 OFFCURVE",
"119 -103 OFFCURVE",
"119 -56 CURVE SMOOTH",
"119 184 LINE SMOOTH",
"119 241 OFFCURVE",
"78 272 OFFCURVE",
"22 272 CURVE",
"22 350 LINE",
"78 350 OFFCURVE",
"119 381 OFFCURVE",
"119 438 CURVE SMOOTH",
"119 678 LINE SMOOTH",
"119 725 OFFCURVE",
"146 760 OFFCURVE",
"199 760 CURVE SMOOTH",
"283 760 LINE",
"283 697 LINE",
"188 697 LINE",
"188 447 LINE SMOOTH",
"188 384 OFFCURVE",
"149 330 OFFCURVE",
"93 319 CURVE",
"93 303 LINE",
"149 292 OFFCURVE",
"188 238 OFFCURVE",
"188 175 CURVE SMOOTH",
"188 -75 LINE",
"283 -75 LINE",
"283 -138 LINE"
);
}
);
width = 343;
}
);
rightKerningGroup = bracketleft;
unicode = 007B;
},
{
glyphname = braceright;
layers = (
{
layerId = "E47AB2A9-A2CF-4FC9-8B8C-127EA756ED3A";
name = Regular;
paths = (
{
closed = 1;
nodes = (
"144 760 LINE SMOOTH",
"197 760 OFFCURVE",
"224 725 OFFCURVE",
"224 678 CURVE SMOOTH",
"224 438 LINE SMOOTH",
"224 381 OFFCURVE",
"265 350 OFFCURVE",
"321 350 CURVE",
"321 272 LINE",
"265 272 OFFCURVE",
"224 241 OFFCURVE",
"224 184 CURVE SMOOTH",
"224 -56 LINE SMOOTH",
"224 -103 OFFCURVE",
"197 -138 OFFCURVE",
"144 -138 CURVE SMOOTH",
"60 -138 LINE",
"60 -75 LINE",
"155 -75 LINE",
"155 175 LINE SMOOTH",
"155 238 OFFCURVE",
"194 292 OFFCURVE",
"250 303 CURVE",
"250 319 LINE",
"194 330 OFFCURVE",
"155 384 OFFCURVE",
"155 447 CURVE SMOOTH",
"155 697 LINE",
"60 697 LINE",
"60 760 LINE"
);
}
);
width = 343;
}
);
leftKerningGroup = bracketright;
unicode = 007D;
},
{
glyphname = slash;
layers = (
{
layerId = "E47AB2A9-A2CF-4FC9-8B8C-127EA756ED3A";
name = Regular;
paths = (
{
closed = 1;
nodes = (
"9 -151 LINE",
"270 740 LINE",
"342 740 LINE",
"81 -151 LINE"
);
}
);
width = 383;
}
);
leftKerningGroup = slash;
rightKerningGroup = slash;
unicode = 002F;
},
{
glyphname = backslash;
layers = (
{
layerId = "E47AB2A9-A2CF-4FC9-8B8C-127EA756ED3A";
name = Regular;
paths = (
{
closed = 1;
nodes = (
"299 -151 LINE",
"40 740 LINE",
"112 740 LINE",
"371 -151 LINE"
);
}
);
width = 383;
}
);
unicode = 005C;
},
{
glyphname = fraction;
layers = (
{
layerId = "E47AB2A9-A2CF-4FC9-8B8C-127EA756ED3A";
name = Regular;
paths = (
{
closed = 1;
nodes = (
"-203 0 LINE",
"283 698 LINE",
"350 698 LINE",
"-136 0 LINE"
);
}
);
width = 147;
}
);
unicode = 2044;
},
{
glyphname = percent;
layers = (
{
layerId = "E47AB2A9-A2CF-4FC9-8B8C-127EA756ED3A";
name = Regular;
paths = (
{
closed = 1;
nodes = (
"183 0 LINE",
"667 698 LINE",
"744 698 LINE",
"260 0 LINE"
);
},
{
closed = 1;
nodes = (
"122 314 OFFCURVE",
"65 383 OFFCURVE",
"65 512 CURVE SMOOTH",
"65 641 OFFCURVE",
"122 710 OFFCURVE",
"223 710 CURVE SMOOTH",
"324 710 OFFCURVE",
"381 641 OFFCURVE",
"381 512 CURVE SMOOTH",
"381 383 OFFCURVE",
"324 314 OFFCURVE",
"223 314 CURVE SMOOTH"
);
},
{
closed = 1;
nodes = (
"280 366 OFFCURVE",
"309 405 OFFCURVE",
"309 482 CURVE SMOOTH",
"309 542 LINE SMOOTH",
"309 619 OFFCURVE",
"280 658 OFFCURVE",
"223 658 CURVE SMOOTH",
"166 658 OFFCURVE",
"137 619 OFFCURVE",
"137 542 CURVE SMOOTH",
"137 482 LINE SMOOTH",
"137 405 OFFCURVE",
"166 366 OFFCURVE",
"223 366 CURVE SMOOTH"
);
},
{
closed = 1;
nodes = (
"603 -12 OFFCURVE",
"546 57 OFFCURVE",
"546 186 CURVE SMOOTH",
"546 315 OFFCURVE",
"603 384 OFFCURVE",
"704 384 CURVE SMOOTH",
"805 384 OFFCURVE",
"862 315 OFFCURVE",
"862 186 CURVE SMOOTH",
"862 57 OFFCURVE",
"805 -12 OFFCURVE",
"704 -12 CURVE SMOOTH"
);
},
{
closed = 1;
nodes = (
"761 40 OFFCURVE",
"790 79 OFFCURVE",
"790 156 CURVE SMOOTH",
"790 216 LINE SMOOTH",
"790 293 OFFCURVE",
"761 332 OFFCURVE",
"704 332 CURVE SMOOTH",
"647 332 OFFCURVE",
"618 293 OFFCURVE",
"618 216 CURVE SMOOTH",
"618 156 LINE SMOOTH",
"618 79 OFFCURVE",
"647 40 OFFCURVE",
"704 40 CURVE SMOOTH"
);
}
);
width = 927;
}
);
rightKerningGroup = percent;
unicode = 0025;
},
{
glyphname = perthousand;
layers = (
{
layerId = "E47AB2A9-A2CF-4FC9-8B8C-127EA756ED3A";
name = Regular;
paths = (
{
closed = 1;
nodes = (
"183 0 LINE",
"667 698 LINE",
"744 698 LINE",
"260 0 LINE"
);
},
{
closed = 1;
nodes = (
"122 314 OFFCURVE",
"65 383 OFFCURVE",
"65 512 CURVE SMOOTH",
"65 641 OFFCURVE",
"122 710 OFFCURVE",
"223 710 CURVE SMOOTH",
"324 710 OFFCURVE",
"381 641 OFFCURVE",
"381 512 CURVE SMOOTH",
"381 383 OFFCURVE",
"324 314 OFFCURVE",
"223 314 CURVE SMOOTH"
);
},
{
closed = 1;
nodes = (
"280 366 OFFCURVE",
"309 405 OFFCURVE",
"309 482 CURVE SMOOTH",
"309 542 LINE SMOOTH",
"309 619 OFFCURVE",
"280 658 OFFCURVE",
"223 658 CURVE SMOOTH",
"166 658 OFFCURVE",
"137 619 OFFCURVE",
"137 542 CURVE SMOOTH",
"137 482 LINE SMOOTH",
"137 405 OFFCURVE",
"166 366 OFFCURVE",
"223 366 CURVE SMOOTH"
);
},
{
closed = 1;
nodes = (
"603 -12 OFFCURVE",
"546 57 OFFCURVE",
"546 186 CURVE SMOOTH",
"546 315 OFFCURVE",
"603 384 OFFCURVE",
"704 384 CURVE SMOOTH",
"805 384 OFFCURVE",
"862 315 OFFCURVE",
"862 186 CURVE SMOOTH",
"862 57 OFFCURVE",
"805 -12 OFFCURVE",
"704 -12 CURVE SMOOTH"
);
},
{
closed = 1;
nodes = (
"761 40 OFFCURVE",
"790 79 OFFCURVE",
"790 156 CURVE SMOOTH",
"790 216 LINE SMOOTH",
"790 293 OFFCURVE",
"761 332 OFFCURVE",
"704 332 CURVE SMOOTH",
"647 332 OFFCURVE",
"618 293 OFFCURVE",
"618 216 CURVE SMOOTH",
"618 156 LINE SMOOTH",
"618 79 OFFCURVE",
"647 40 OFFCURVE",
"704 40 CURVE SMOOTH"
);
},
{
closed = 1;
nodes = (
"982 -12 OFFCURVE",
"925 57 OFFCURVE",
"925 186 CURVE SMOOTH",
"925 315 OFFCURVE",
"982 384 OFFCURVE",
"1083 384 CURVE SMOOTH",
"1184 384 OFFCURVE",
"1241 315 OFFCURVE",
"1241 186 CURVE SMOOTH",
"1241 57 OFFCURVE",
"1184 -12 OFFCURVE",
"1083 -12 CURVE SMOOTH"
);
},
{
closed = 1;
nodes = (
"1140 40 OFFCURVE",
"1169 79 OFFCURVE",
"1169 156 CURVE SMOOTH",
"1169 216 LINE SMOOTH",
"1169 293 OFFCURVE",
"1140 332 OFFCURVE",
"1083 332 CURVE SMOOTH",
"1026 332 OFFCURVE",
"997 293 OFFCURVE",
"997 216 CURVE SMOOTH",
"997 156 LINE SMOOTH",
"997 79 OFFCURVE",
"1026 40 OFFCURVE",
"1083 40 CURVE SMOOTH"
);
}
);
width = 1306;
}
);
rightKerningGroup = perthousand;
unicode = 2030;
},
{
glyphname = bar;
lastChange = "2018-11-04 18:57:19 +0000";
layers = (
{
layerId = "E47AB2A9-A2CF-4FC9-8B8C-127EA756ED3A";
name = Regular;
paths = (
{
closed = 1;
nodes = (
"123 -138 LINE",
"123 760 LINE",
"191 760 LINE",
"191 -138 LINE"
);
}
);
width = 314;
}
);
unicode = 007C;
},
{
glyphname = brokenbar;
layers = (
{
layerId = "E47AB2A9-A2CF-4FC9-8B8C-127EA756ED3A";
name = Regular;
paths = (
{
closed = 1;
nodes = (
"123 406 LINE",
"123 760 LINE",
"191 760 LINE",
"191 406 LINE"
);
},
{
closed = 1;
nodes = (
"123 -138 LINE",
"123 216 LINE",
"191 216 LINE",
"191 -138 LINE"
);
}
);
width = 314;
}
);
unicode = 00A6;
},
{
glyphname = section;
layers = (
{
layerId = "E47AB2A9-A2CF-4FC9-8B8C-127EA756ED3A";
name = Regular;
paths = (
{
closed = 1;
nodes = (
"475 -45 OFFCURVE",
"455 -85 OFFCURVE",
"420 -112 CURVE SMOOTH",
"385 -140 OFFCURVE",
"336 -155 OFFCURVE",
"277 -155 CURVE SMOOTH",
"217 -155 OFFCURVE",
"157 -139 OFFCURVE",
"110 -99 CURVE",
"156 -43 LINE",
"188 -70 OFFCURVE",
"227 -86 OFFCURVE",
"278 -86 CURVE SMOOTH",
"353 -86 OFFCURVE",
"396 -53 OFFCURVE",
"396 2 CURVE SMOOTH",
"396 53 OFFCURVE",
"357 79 OFFCURVE",
"292 99 CURVE SMOOTH",
"229 118 LINE SMOOTH",
"121 150 OFFCURVE",
"76 203 OFFCURVE",
"76 271 CURVE SMOOTH",
"76 335 OFFCURVE",
"116 386 OFFCURVE",
"185 414 CURVE",
"185 421 LINE",
"141 450 OFFCURVE",
"111 492 OFFCURVE",
"111 552 CURVE SMOOTH",
"111 600 OFFCURVE",
"130 639 OFFCURVE",
"165 667 CURVE SMOOTH",
"200 695 OFFCURVE",
"249 710 OFFCURVE",
"308 710 CURVE SMOOTH",
"368 710 OFFCURVE",
"429 694 OFFCURVE",
"476 654 CURVE",
"429 598 LINE",
"397 625 OFFCURVE",
"358 641 OFFCURVE",
"307 641 CURVE SMOOTH",
"232 641 OFFCURVE",
"189 608 OFFCURVE",
"189 553 CURVE SMOOTH",
"189 502 OFFCURVE",
"228 476 OFFCURVE",
"293 456 CURVE SMOOTH",
"356 437 LINE SMOOTH",
"464 405 OFFCURVE",
"510 352 OFFCURVE",
"510 284 CURVE SMOOTH",
"510 220 OFFCURVE",
"471 169 OFFCURVE",
"400 141 CURVE",
"400 135 LINE",
"448 104 OFFCURVE",
"475 61 OFFCURVE",
"475 4 CURVE SMOOTH"
);
},
{
closed = 1;
nodes = (
"431 319 OFFCURVE",
"394 352 OFFCURVE",
"314 375 CURVE SMOOTH",
"252 392 LINE SMOOTH",
"241 395 OFFCURVE",
"231 399 OFFCURVE",
"220 403 CURVE",
"180 375 OFFCURVE",
"155 339 OFFCURVE",
"155 292 CURVE SMOOTH",
"155 236 OFFCURVE",
"191 203 OFFCURVE",
"271 180 CURVE SMOOTH",
"333 163 LINE SMOOTH",
"344 160 OFFCURVE",
"354 156 OFFCURVE",
"365 152 CURVE",
"405 181 OFFCURVE",
"431 216 OFFCURVE",
"431 263 CURVE SMOOTH"
);
}
);
width = 586;
}
);
unicode = 00A7;
},
{
glyphname = paragraph;
layers = (
{
layerId = "E47AB2A9-A2CF-4FC9-8B8C-127EA756ED3A";
name = Regular;
paths = (
{
closed = 1;
nodes = (
"246 300 LINE",
"191 300 OFFCURVE",
"144 323 OFFCURVE",
"109 359 CURVE SMOOTH",
"73 395 OFFCURVE",
"52 444 OFFCURVE",
"52 499 CURVE SMOOTH",
"52 552 OFFCURVE",
"73 603 OFFCURVE",
"109 639 CURVE SMOOTH",
"144 675 OFFCURVE",
"191 698 OFFCURVE",
"246 698 CURVE SMOOTH",
"570 698 LINE",
"570 630 LINE",
"503 630 LINE",
"503 -149 LINE",
"430 -149 LINE",
"430 630 LINE",
"319 630 LINE",
"319 -149 LINE",
"246 -149 LINE"
);
}
);
width = 652;
}
);
unicode = 00B6;
},
{
glyphname = copyright;
layers = (
{
layerId = "E47AB2A9-A2CF-4FC9-8B8C-127EA756ED3A";
name = Regular;
paths = (
{
closed = 1;
nodes = (
"295 -11 OFFCURVE",
"211 24 OFFCURVE",
"151 86 CURVE SMOOTH",
"91 148 OFFCURVE",
"54 238 OFFCURVE",
"54 349 CURVE SMOOTH",
"54 460 OFFCURVE",
"91 551 OFFCURVE",
"151 613 CURVE SMOOTH",
"211 675 OFFCURVE",
"295 709 OFFCURVE",
"388 709 CURVE SMOOTH",
"481 709 OFFCURVE",
"565 675 OFFCURVE",
"625 613 CURVE SMOOTH",
"685 551 OFFCURVE",
"722 460 OFFCURVE",
"722 349 CURVE SMOOTH",
"722 238 OFFCURVE",
"685 148 OFFCURVE",
"625 86 CURVE SMOOTH",
"565 24 OFFCURVE",
"481 -11 OFFCURVE",
"388 -11 CURVE SMOOTH"
);
},
{
closed = 1;
nodes = (
"465 49 OFFCURVE",
"532 78 OFFCURVE",
"580 126 CURVE SMOOTH",
"627 174 OFFCURVE",
"654 242 OFFCURVE",
"654 319 CURVE SMOOTH",
"654 379 LINE SMOOTH",
"654 456 OFFCURVE",
"627 524 OFFCURVE",
"580 572 CURVE SMOOTH",
"532 620 OFFCURVE",
"465 649 OFFCURVE",
"388 649 CURVE SMOOTH",
"309 649 OFFCURVE",
"244 620 OFFCURVE",
"197 572 CURVE SMOOTH",
"149 524 OFFCURVE",
"122 456 OFFCURVE",
"122 379 CURVE SMOOTH",
"122 319 LINE SMOOTH",
"122 242 OFFCURVE",
"149 174 OFFCURVE",
"197 126 CURVE SMOOTH",
"244 78 OFFCURVE",
"309 49 OFFCURVE",
"388 49 CURVE SMOOTH"
);
},
{
closed = 1;
nodes = (
"292 155 OFFCURVE",
"231 230 OFFCURVE",
"231 349 CURVE SMOOTH",
"231 468 OFFCURVE",
"292 543 OFFCURVE",
"396 543 CURVE SMOOTH",
"464 543 OFFCURVE",
"506 508 OFFCURVE",
"529 456 CURVE",
"472 424 LINE",
"457 459 OFFCURVE",
"435 480 OFFCURVE",
"396 480 CURVE SMOOTH",
"337 480 OFFCURVE",
"307 440 OFFCURVE",
"307 381 CURVE SMOOTH",
"307 316 LINE SMOOTH",
"307 257 OFFCURVE",
"337 217 OFFCURVE",
"396 217 CURVE SMOOTH",
"439 217 OFFCURVE",
"461 241 OFFCURVE",
"481 277 CURVE",
"535 243 LINE",
"512 192 OFFCURVE",
"467 155 OFFCURVE",
"396 155 CURVE SMOOTH"
);
}
);
width = 776;
}
);
leftKerningGroup = copyright;
unicode = 00A9;
},
{
glyphname = registered;
layers = (
{
layerId = "E47AB2A9-A2CF-4FC9-8B8C-127EA756ED3A";
name = Regular;
paths = (
{
closed = 1;
nodes = (
"183 298 OFFCURVE",
"134 320 OFFCURVE",
"98 357 CURVE SMOOTH",
"62 394 OFFCURVE",
"40 445 OFFCURVE",
"40 504 CURVE SMOOTH",
"40 563 OFFCURVE",
"62 614 OFFCURVE",
"98 651 CURVE SMOOTH",
"134 688 OFFCURVE",
"183 710 OFFCURVE",
"238 710 CURVE SMOOTH",
"291 710 OFFCURVE",
"341 688 OFFCURVE",
"377 651 CURVE SMOOTH",
"413 614 OFFCURVE",
"436 563 OFFCURVE",
"436 504 CURVE SMOOTH",
"436 445 OFFCURVE",
"413 394 OFFCURVE",
"377 357 CURVE SMOOTH",
"341 320 OFFCURVE",
"291 298 OFFCURVE",
"238 298 CURVE SMOOTH"
);
},
{
closed = 1;
nodes = (
"283 338 OFFCURVE",
"322 357 OFFCURVE",
"350 386 CURVE SMOOTH",
"377 414 OFFCURVE",
"393 453 OFFCURVE",
"393 493 CURVE SMOOTH",
"393 515 LINE SMOOTH",
"393 555 OFFCURVE",
"377 594 OFFCURVE",
"350 623 CURVE",
"322 651 OFFCURVE",
"283 670 OFFCURVE",
"238 670 CURVE SMOOTH",
"193 670 OFFCURVE",
"154 651 OFFCURVE",
"127 623 CURVE SMOOTH",
"99 594 OFFCURVE",
"83 555 OFFCURVE",
"83 515 CURVE SMOOTH",
"83 493 LINE SMOOTH",
"83 453 OFFCURVE",
"99 414 OFFCURVE",
"127 386 CURVE",
"154 357 OFFCURVE",
"193 338 OFFCURVE",
"238 338 CURVE SMOOTH"
);
},
{
closed = 1;
nodes = (
"203 396 LINE",
"163 396 LINE",
"163 605 LINE",
"253 605 LINE SMOOTH",
"293 605 OFFCURVE",
"317 579 OFFCURVE",
"317 542 CURVE SMOOTH",
"317 510 OFFCURVE",
"301 490 OFFCURVE",
"278 481 CURVE",
"327 396 LINE",
"282 396 LINE",
"238 476 LINE",
"203 476 LINE"
);
},
{
closed = 1;
nodes = (
"251 508 LINE SMOOTH",
"266 508 OFFCURVE",
"274 515 OFFCURVE",
"274 529 CURVE SMOOTH",
"274 551 LINE SMOOTH",
"274 565 OFFCURVE",
"266 572 OFFCURVE",
"251 572 CURVE SMOOTH",
"203 572 LINE",
"203 508 LINE"
);
}
);
width = 476;
}
);
leftKerningGroup = registered;
rightKerningGroup = registered;
unicode = 00AE;
},
{
glyphname = trademark;
layers = (
{
layerId = "E47AB2A9-A2CF-4FC9-8B8C-127EA756ED3A";
name = Regular;
paths = (
{
closed = 1;
nodes = (
"122 419 LINE",
"122 653 LINE",
"32 653 LINE",
"32 698 LINE",
"261 698 LINE",
"261 653 LINE",
"172 653 LINE",
"172 419 LINE"
);
},
{
closed = 1;
nodes = (
"313 419 LINE",
"313 698 LINE",
"376 698 LINE",
"445 565 LINE",
"448 565 LINE",
"516 698 LINE",
"576 698 LINE",
"576 419 LINE",
"530 419 LINE",
"530 545 LINE",
"531 628 LINE",
"527 628 LINE",
"445 473 LINE",
"362 628 LINE",
"358 628 LINE",
"360 545 LINE",
"360 419 LINE"
);
}
);
width = 658;
}
);
leftKerningGroup = trademark;
rightKerningGroup = trademark;
unicode = 2122;
},
{
glyphname = ordfeminine;
lastChange = "2018-11-02 02:44:45 +0000";
layers = (
{
layerId = "E47AB2A9-A2CF-4FC9-8B8C-127EA756ED3A";
name = Regular;
paths = (
{
closed = 1;
nodes = (
"115 710 OFFCURVE",
"72 675 OFFCURVE",
"52 640 CURVE",
"94 606 LINE",
"109 637 OFFCURVE",
"140 658 OFFCURVE",
"185 658 CURVE SMOOTH",
"235 658 OFFCURVE",
"260 632 OFFCURVE",
"260 580 CURVE SMOOTH",
"260 552 LINE",
"189 552 LINE SMOOTH",
"93 552 OFFCURVE",
"40 520 OFFCURVE",
"40 448 CURVE SMOOTH",
"40 388 OFFCURVE",
"78 349 OFFCURVE",
"149 349 CURVE SMOOTH",
"210 349 OFFCURVE",
"245 379 OFFCURVE",
"260 410 CURVE",
"264 410 LINE",
"264 357 LINE",
"323 357 LINE",
"323 583 LINE SMOOTH",
"323 664 OFFCURVE",
"272 710 OFFCURVE",
"188 710 CURVE SMOOTH"
);
},
{
closed = 1;
nodes = (
"260 445 OFFCURVE",
"249 429 OFFCURVE",
"231 418 CURVE",
"213 406 OFFCURVE",
"188 400 OFFCURVE",
"163 400 CURVE SMOOTH",
"123 400 OFFCURVE",
"103 416 OFFCURVE",
"103 449 CURVE SMOOTH",
"103 459 LINE SMOOTH",
"103 490 OFFCURVE",
"132 506 OFFCURVE",
"187 506 CURVE SMOOTH",
"260 506 LINE",
"260 465 LINE SMOOTH"
);
}
);
width = 379;
}
);
unicode = 00AA;
},
{
glyphname = ordmasculine;
layers = (
{
layerId = "E47AB2A9-A2CF-4FC9-8B8C-127EA756ED3A";
name = Regular;
paths = (
{
closed = 1;
nodes = (
"102 350 OFFCURVE",
"44 417 OFFCURVE",
"44 530 CURVE SMOOTH",
"44 643 OFFCURVE",
"102 710 OFFCURVE",
"199 710 CURVE SMOOTH",
"296 710 OFFCURVE",
"354 643 OFFCURVE",
"354 530 CURVE SMOOTH",
"354 417 OFFCURVE",
"296 350 OFFCURVE",
"199 350 CURVE SMOOTH"
);
},
{
closed = 1;
nodes = (
"258 402 OFFCURVE",
"286 442 OFFCURVE",
"286 499 CURVE SMOOTH",
"286 561 LINE SMOOTH",
"286 618 OFFCURVE",
"258 658 OFFCURVE",
"199 658 CURVE SMOOTH",
"140 658 OFFCURVE",
"112 618 OFFCURVE",
"112 561 CURVE SMOOTH",
"112 499 LINE SMOOTH",
"112 442 OFFCURVE",
"140 402 OFFCURVE",
"199 402 CURVE SMOOTH"
);
}
);
width = 398;
}
);
unicode = 00BA;
},
{
glyphname = degree;
layers = (
{
layerId = "E47AB2A9-A2CF-4FC9-8B8C-127EA756ED3A";
name = Regular;
paths = (
{
closed = 1;
nodes = (
"186 366 OFFCURVE",
"145 384 OFFCURVE",
"115 415 CURVE SMOOTH",
"85 446 OFFCURVE",
"66 489 OFFCURVE",
"66 538 CURVE SMOOTH",
"66 587 OFFCURVE",
"85 630 OFFCURVE",
"115 661 CURVE SMOOTH",
"145 692 OFFCURVE",
"186 710 OFFCURVE",
"234 710 CURVE SMOOTH",
"282 710 OFFCURVE",
"324 692 OFFCURVE",
"354 661 CURVE SMOOTH",
"384 630 OFFCURVE",
"402 587 OFFCURVE",
"402 538 CURVE SMOOTH",
"402 489 OFFCURVE",
"384 446 OFFCURVE",
"354 415 CURVE SMOOTH",
"324 384 OFFCURVE",
"282 366 OFFCURVE",
"234 366 CURVE SMOOTH"
);
},
{
closed = 1;
nodes = (
"294 430 OFFCURVE",
"332 478 OFFCURVE",
"332 538 CURVE SMOOTH",
"332 598 OFFCURVE",
"294 646 OFFCURVE",
"234 646 CURVE SMOOTH",
"174 646 OFFCURVE",
"136 598 OFFCURVE",
"136 538 CURVE SMOOTH",
"136 478 OFFCURVE",
"174 430 OFFCURVE",
"234 430 CURVE SMOOTH"
);
}
);
width = 468;
}
);
unicode = 00B0;
},
{
glyphname = asterisk;
layers = (
{
layerId = "E47AB2A9-A2CF-4FC9-8B8C-127EA756ED3A";
name = Regular;
paths = (
{
closed = 1;
nodes = (
"143 388 LINE",
"87 429 LINE",
"178 545 LINE",
"36 584 LINE",
"58 651 LINE",
"196 600 LINE",
"190 747 LINE",
"260 747 LINE",
"254 600 LINE",
"392 651 LINE",
"414 584 LINE",
"272 545 LINE",
"363 429 LINE",
"307 388 LINE",
"225 511 LINE"
);
}
);
width = 450;
}
);
leftKerningGroup = quotesingle;
rightKerningGroup = quotesingle;
unicode = 002A;
},
{
glyphname = dagger;
layers = (
{
layerId = "E47AB2A9-A2CF-4FC9-8B8C-127EA756ED3A";
name = Regular;
paths = (
{
closed = 1;
nodes = (
"241 -200 LINE",
"241 452 LINE",
"50 452 LINE",
"50 516 LINE",
"241 516 LINE",
"241 740 LINE",
"311 740 LINE",
"311 516 LINE",
"502 516 LINE",
"502 452 LINE",
"311 452 LINE",
"311 -200 LINE"
);
}
);
width = 552;
}
);
unicode = 2020;
},
{
glyphname = daggerdbl;
layers = (
{
layerId = "E47AB2A9-A2CF-4FC9-8B8C-127EA756ED3A";
name = Regular;
paths = (
{
closed = 1;
nodes = (
"241 -200 LINE",
"241 24 LINE",
"50 24 LINE",
"50 88 LINE",
"241 88 LINE",
"241 452 LINE",
"50 452 LINE",
"50 516 LINE",
"241 516 LINE",
"241 740 LINE",
"311 740 LINE",
"311 516 LINE",
"502 516 LINE",
"502 452 LINE",
"311 452 LINE",
"311 88 LINE",
"502 88 LINE",
"502 24 LINE",
"311 24 LINE",
"311 -200 LINE"
);
}
);
width = 552;
}
);
unicode = 2021;
},
{
glyphname = numbersign;
layers = (
{
layerId = "E47AB2A9-A2CF-4FC9-8B8C-127EA756ED3A";
name = Regular;
paths = (
{
closed = 1;
nodes = (
"406 205 LINE",
"252 205 LINE",
"216 0 LINE",
"152 0 LINE",
"188 205 LINE",
"60 205 LINE",
"60 265 LINE",
"198 265 LINE",
"226 433 LINE",
"99 433 LINE",
"99 493 LINE",
"237 493 LINE",
"272 698 LINE",
"336 698 LINE",
"301 493 LINE",
"455 493 LINE",
"490 698 LINE",
"554 698 LINE",
"519 493 LINE",
"647 493 LINE",
"647 433 LINE",
"508 433 LINE",
"480 265 LINE",
"608 265 LINE",
"608 205 LINE",
"470 205 LINE",
"434 0 LINE",
"370 0 LINE"
);
},
{
closed = 1;
nodes = (
"416 265 LINE",
"444 433 LINE",
"290 433 LINE",
"262 265 LINE"
);
}
);
width = 713;
}
);
unicode = 0023;
},
{
glyphname = asciicircum;
layers = (
{
layerId = "E47AB2A9-A2CF-4FC9-8B8C-127EA756ED3A";
name = Regular;
paths = (
{
closed = 1;
nodes = (
"489 296 LINE",
"302 624 LINE",
"298 624 LINE",
"111 296 LINE",
"50 328 LINE",
"257 698 LINE",
"343 698 LINE",
"550 328 LINE"
);
}
);
width = 600;
}
);
unicode = 005E;
},
{
glyphname = asciitilde;
layers = (
{
layerId = "E47AB2A9-A2CF-4FC9-8B8C-127EA756ED3A";
name = Regular;
paths = (
{
closed = 1;
nodes = (
"370 236 OFFCURVE",
"337 250 OFFCURVE",
"290 273 CURVE SMOOTH",
"253 292 OFFCURVE",
"218 307 OFFCURVE",
"177 307 CURVE SMOOTH",
"144 307 OFFCURVE",
"125 298 OFFCURVE",
"94 275 CURVE",
"61 319 LINE",
"88 352 OFFCURVE",
"121 374 OFFCURVE",
"181 374 CURVE SMOOTH",
"230 374 OFFCURVE",
"263 360 OFFCURVE",
"310 337 CURVE SMOOTH",
"347 318 OFFCURVE",
"382 303 OFFCURVE",
"423 303 CURVE SMOOTH",
"456 303 OFFCURVE",
"475 312 OFFCURVE",
"506 335 CURVE",
"539 291 LINE",
"512 258 OFFCURVE",
"479 236 OFFCURVE",
"419 236 CURVE SMOOTH"
);
}
);
width = 600;
}
);
unicode = 007E;
},
{
glyphname = plus;
layers = (
{
layerId = "E47AB2A9-A2CF-4FC9-8B8C-127EA756ED3A";
name = Regular;
paths = (
{
closed = 1;
nodes = (
"262 62 LINE",
"262 271 LINE",
"67 271 LINE",
"67 339 LINE",
"262 339 LINE",
"262 548 LINE",
"338 548 LINE",
"338 339 LINE",
"533 339 LINE",
"533 271 LINE",
"338 271 LINE",
"338 62 LINE"
);
}
);
width = 600;
}
);
unicode = 002B;
},
{
glyphname = minus;
layers = (
{
layerId = "E47AB2A9-A2CF-4FC9-8B8C-127EA756ED3A";
name = Regular;
paths = (
{
closed = 1;
nodes = (
"67 271 LINE",
"67 339 LINE",
"533 339 LINE",
"533 271 LINE"
);
}
);
width = 600;
}
);
unicode = 2212;
},
{
glyphname = plusminus;
layers = (
{
layerId = "E47AB2A9-A2CF-4FC9-8B8C-127EA756ED3A";
name = Regular;
paths = (
{
closed = 1;
nodes = (
"262 152 LINE",
"262 351 LINE",
"67 351 LINE",
"67 419 LINE",
"262 419 LINE",
"262 618 LINE",
"338 618 LINE",
"338 419 LINE",
"533 419 LINE",
"533 351 LINE",
"338 351 LINE",
"338 152 LINE"
);
},
{
closed = 1;
nodes = (
"67 0 LINE",
"67 68 LINE",
"533 68 LINE",
"533 0 LINE"
);
}
);
width = 600;
}
);
unicode = 00B1;
},
{
glyphname = multiply;
layers = (
{
layerId = "E47AB2A9-A2CF-4FC9-8B8C-127EA756ED3A";
name = Regular;
paths = (
{
closed = 1;
nodes = (
"300 256 LINE",
"141 93 LINE",
"92 142 LINE",
"251 305 LINE",
"92 468 LINE",
"141 517 LINE",
"300 354 LINE",
"459 517 LINE",
"508 468 LINE",
"349 305 LINE",
"508 142 LINE",
"459 93 LINE"
);
}
);
width = 600;
}
);
unicode = 00D7;
},
{
glyphname = divide;
layers = (
{
layerId = "E47AB2A9-A2CF-4FC9-8B8C-127EA756ED3A";
name = Regular;
paths = (
{
closed = 1;
nodes = (
"67 271 LINE",
"67 339 LINE",
"533 339 LINE",
"533 271 LINE"
);
},
{
closed = 1;
nodes = (
"253 52 OFFCURVE",
"238 73 OFFCURVE",
"238 100 CURVE SMOOTH",
"238 122 LINE SMOOTH",
"238 149 OFFCURVE",
"253 170 OFFCURVE",
"300 170 CURVE SMOOTH",
"347 170 OFFCURVE",
"362 149 OFFCURVE",
"362 122 CURVE SMOOTH",
"362 100 LINE SMOOTH",
"362 73 OFFCURVE",
"347 52 OFFCURVE",
"300 52 CURVE SMOOTH"
);
},
{
closed = 1;
nodes = (
"253 440 OFFCURVE",
"238 461 OFFCURVE",
"238 488 CURVE SMOOTH",
"238 510 LINE SMOOTH",
"238 537 OFFCURVE",
"253 558 OFFCURVE",
"300 558 CURVE SMOOTH",
"347 558 OFFCURVE",
"362 537 OFFCURVE",
"362 510 CURVE SMOOTH",
"362 488 LINE SMOOTH",
"362 461 OFFCURVE",
"347 440 OFFCURVE",
"300 440 CURVE SMOOTH"
);
}
);
width = 600;
}
);
unicode = 00F7;
},
{
glyphname = equal;
layers = (
{
layerId = "E47AB2A9-A2CF-4FC9-8B8C-127EA756ED3A";
name = Regular;
paths = (
{
closed = 1;
nodes = (
"67 372 LINE",
"67 440 LINE",
"533 440 LINE",
"533 372 LINE"
);
},
{
closed = 1;
nodes = (
"67 172 LINE",
"67 240 LINE",
"533 240 LINE",
"533 172 LINE"
);
}
);
width = 600;
}
);
unicode = 003D;
},
{
glyphname = approxequal;
layers = (
{
layerId = "E47AB2A9-A2CF-4FC9-8B8C-127EA756ED3A";
name = Regular;
paths = (
{
closed = 1;
nodes = (
"370 336 OFFCURVE",
"337 350 OFFCURVE",
"290 373 CURVE SMOOTH",
"253 392 OFFCURVE",
"218 407 OFFCURVE",
"177 407 CURVE SMOOTH",
"144 407 OFFCURVE",
"125 398 OFFCURVE",
"94 375 CURVE",
"61 419 LINE",
"88 452 OFFCURVE",
"121 474 OFFCURVE",
"181 474 CURVE SMOOTH",
"230 474 OFFCURVE",
"263 460 OFFCURVE",
"310 437 CURVE SMOOTH",
"347 418 OFFCURVE",
"382 403 OFFCURVE",
"423 403 CURVE SMOOTH",
"456 403 OFFCURVE",
"475 412 OFFCURVE",
"506 435 CURVE",
"539 391 LINE",
"512 358 OFFCURVE",
"479 336 OFFCURVE",
"419 336 CURVE SMOOTH"
);
},
{
closed = 1;
nodes = (
"370 138 OFFCURVE",
"337 152 OFFCURVE",
"290 175 CURVE SMOOTH",
"253 194 OFFCURVE",
"218 209 OFFCURVE",
"177 209 CURVE SMOOTH",
"144 209 OFFCURVE",
"125 200 OFFCURVE",
"94 177 CURVE",
"61 221 LINE",
"88 254 OFFCURVE",
"121 276 OFFCURVE",
"181 276 CURVE SMOOTH",
"230 276 OFFCURVE",
"263 262 OFFCURVE",
"310 239 CURVE SMOOTH",
"347 220 OFFCURVE",
"382 205 OFFCURVE",
"423 205 CURVE SMOOTH",
"456 205 OFFCURVE",
"475 214 OFFCURVE",
"506 237 CURVE",
"539 193 LINE",
"512 160 OFFCURVE",
"479 138 OFFCURVE",
"419 138 CURVE SMOOTH"
);
}
);
width = 600;
}
);
unicode = 2248;
},
{
glyphname = notequal;
layers = (
{
layerId = "E47AB2A9-A2CF-4FC9-8B8C-127EA756ED3A";
name = Regular;
paths = (
{
closed = 1;
nodes = (
"139 72 LINE",
"193 172 LINE",
"67 172 LINE",
"67 240 LINE",
"230 240 LINE",
"299 372 LINE",
"67 372 LINE",
"67 440 LINE",
"336 440 LINE",
"389 540 LINE",
"461 540 LINE",
"407 440 LINE",
"533 440 LINE",
"533 372 LINE",
"370 372 LINE",
"301 240 LINE",
"533 240 LINE",
"533 172 LINE",
"264 172 LINE",
"211 72 LINE"
);
}
);
width = 600;
}
);
unicode = 2260;
},
{
glyphname = less;
layers = (
{
layerId = "E47AB2A9-A2CF-4FC9-8B8C-127EA756ED3A";
name = Regular;
paths = (
{
closed = 1;
nodes = (
"90 237 LINE",
"90 317 LINE",
"510 566 LINE",
"510 482 LINE",
"165 281 LINE",
"165 273 LINE",
"510 72 LINE",
"510 -12 LINE"
);
}
);
width = 600;
}
);
unicode = 003C;
},
{
glyphname = greater;
layers = (
{
layerId = "E47AB2A9-A2CF-4FC9-8B8C-127EA756ED3A";
name = Regular;
paths = (
{
closed = 1;
nodes = (
"90 72 LINE",
"435 273 LINE",
"435 281 LINE",
"90 482 LINE",
"90 566 LINE",
"510 317 LINE",
"510 237 LINE",
"90 -12 LINE"
);
}
);
width = 600;
}
);
unicode = 003E;
},
{
glyphname = lessequal;
layers = (
{
layerId = "E47AB2A9-A2CF-4FC9-8B8C-127EA756ED3A";
name = Regular;
paths = (
{
closed = 1;
nodes = (
"90 0 LINE",
"90 68 LINE",
"510 68 LINE",
"510 0 LINE"
);
},
{
closed = 1;
nodes = (
"510 511 LINE",
"166 360 LINE",
"166 353 LINE",
"510 202 LINE",
"510 121 LINE",
"90 312 LINE",
"90 401 LINE",
"510 591 LINE"
);
}
);
width = 600;
}
);
unicode = 2264;
},
{
glyphname = greaterequal;
layers = (
{
layerId = "E47AB2A9-A2CF-4FC9-8B8C-127EA756ED3A";
name = Regular;
paths = (
{
closed = 1;
nodes = (
"90 202 LINE",
"434 353 LINE",
"434 360 LINE",
"90 511 LINE",
"90 591 LINE",
"510 401 LINE",
"510 312 LINE",
"90 121 LINE"
);
},
{
closed = 1;
nodes = (
"90 68 LINE",
"510 68 LINE",
"510 0 LINE",
"90 0 LINE"
);
}
);
width = 600;
}
);
unicode = 2265;
},
{
glyphname = periodcentered;
layers = (
{
layerId = "E47AB2A9-A2CF-4FC9-8B8C-127EA756ED3A";
name = Regular;
paths = (
{
closed = 1;
nodes = (
"120 240 OFFCURVE",
"102 263 OFFCURVE",
"102 298 CURVE SMOOTH",
"102 311 LINE SMOOTH",
"102 346 OFFCURVE",
"120 369 OFFCURVE",
"163 369 CURVE SMOOTH",
"206 369 OFFCURVE",
"224 346 OFFCURVE",
"224 311 CURVE SMOOTH",
"224 298 LINE SMOOTH",
"224 263 OFFCURVE",
"206 240 OFFCURVE",
"163 240 CURVE SMOOTH"
);
}
);
width = 326;
}
);
unicode = 00B7;
},
{
glyphname = bullet;
layers = (
{
layerId = "E47AB2A9-A2CF-4FC9-8B8C-127EA756ED3A";
name = Regular;
paths = (
{
closed = 1;
nodes = (
"109 186 OFFCURVE",
"76 231 OFFCURVE",
"76 290 CURVE SMOOTH",
"76 318 LINE SMOOTH",
"76 377 OFFCURVE",
"109 422 OFFCURVE",
"198 422 CURVE SMOOTH",
"287 422 OFFCURVE",
"320 377 OFFCURVE",
"320 318 CURVE SMOOTH",
"320 290 LINE SMOOTH",
"320 231 OFFCURVE",
"287 186 OFFCURVE",
"198 186 CURVE SMOOTH"
);
}
);
width = 396;
}
);
unicode = 2022;
},
{
glyphname = lozenge;
layers = (
{
layerId = "E47AB2A9-A2CF-4FC9-8B8C-127EA756ED3A";
name = Regular;
paths = (
{
closed = 1;
nodes = (
"261 0 LINE",
"47 349 LINE",
"261 698 LINE",
"340 698 LINE",
"554 349 LINE",
"340 0 LINE"
);
},
{
closed = 1;
nodes = (
"304 75 LINE",
"470 349 LINE",
"304 623 LINE",
"297 623 LINE",
"131 349 LINE",
"297 75 LINE"
);
}
);
width = 600;
}
);
unicode = 25CA;
},
{
glyphname = logicalnot;
layers = (
{
layerId = "E47AB2A9-A2CF-4FC9-8B8C-127EA756ED3A";
name = Regular;
paths = (
{
closed = 1;
nodes = (
"464 78 LINE",
"464 271 LINE",
"67 271 LINE",
"67 339 LINE",
"533 339 LINE",
"533 78 LINE"
);
}
);
width = 600;
}
);
unicode = 00AC;
},
{
glyphname = radical;
layers = (
{
layerId = "E47AB2A9-A2CF-4FC9-8B8C-127EA756ED3A";
name = Regular;
paths = (
{
closed = 1;
nodes = (
"253 0 LINE",
"128 452 LINE",
"29 452 LINE",
"29 516 LINE",
"189 516 LINE",
"234 350 LINE",
"309 67 LINE",
"314 67 LINE",
"392 350 LINE",
"489 698 LINE",
"567 698 LINE",
"366 0 LINE"
);
}
);
width = 600;
}
);
unicode = 221A;
},
{
glyphname = integral;
layers = (
{
layerId = "E47AB2A9-A2CF-4FC9-8B8C-127EA756ED3A";
name = Regular;
paths = (
{
closed = 1;
nodes = (
"50 -130 LINE",
"173 -130 LINE",
"173 622 LINE SMOOTH",
"173 693 OFFCURVE",
"209 740 OFFCURVE",
"286 740 CURVE SMOOTH",
"376 740 LINE",
"376 670 LINE",
"253 670 LINE",
"253 -82 LINE SMOOTH",
"253 -153 OFFCURVE",
"217 -200 OFFCURVE",
"140 -200 CURVE SMOOTH",
"50 -200 LINE"
);
}
);
width = 426;
}
);
unicode = 222B;
},
{
glyphname = infinity;
layers = (
{
layerId = "E47AB2A9-A2CF-4FC9-8B8C-127EA756ED3A";
name = Regular;
paths = (
{
closed = 1;
nodes = (
"139 115 OFFCURVE",
"95 135 OFFCURVE",
"64 169 CURVE SMOOTH",
"33 203 OFFCURVE",
"16 250 OFFCURVE",
"16 305 CURVE SMOOTH",
"16 360 OFFCURVE",
"33 408 OFFCURVE",
"64 442 CURVE SMOOTH",
"95 476 OFFCURVE",
"139 495 OFFCURVE",
"194 495 CURVE SMOOTH",
"299 495 OFFCURVE",
"355 450 OFFCURVE",
"387 355 CURVE",
"392 355 LINE",
"412 454 OFFCURVE",
"470 495 OFFCURVE",
"546 495 CURVE SMOOTH",
"601 495 OFFCURVE",
"645 476 OFFCURVE",
"676 442 CURVE SMOOTH",
"707 408 OFFCURVE",
"724 360 OFFCURVE",
"724 305 CURVE SMOOTH",
"724 250 OFFCURVE",
"707 203 OFFCURVE",
"676 169 CURVE SMOOTH",
"645 135 OFFCURVE",
"601 115 OFFCURVE",
"546 115 CURVE SMOOTH",
"441 115 OFFCURVE",
"385 160 OFFCURVE",
"353 255 CURVE",
"348 255 LINE",
"328 156 OFFCURVE",
"270 115 OFFCURVE",
"194 115 CURVE SMOOTH"
);
},
{
closed = 1;
nodes = (
"259 183 OFFCURVE",
"306 217 OFFCURVE",
"329 305 CURVE",
"306 393 OFFCURVE",
"259 427 OFFCURVE",
"194 427 CURVE SMOOTH",
"135 427 OFFCURVE",
"98 389 OFFCURVE",
"98 330 CURVE SMOOTH",
"98 280 LINE SMOOTH",
"98 221 OFFCURVE",
"135 183 OFFCURVE",
"194 183 CURVE SMOOTH"
);
},
{
closed = 1;
nodes = (
"605 183 OFFCURVE",
"642 221 OFFCURVE",
"642 280 CURVE SMOOTH",
"642 330 LINE SMOOTH",
"642 389 OFFCURVE",
"605 427 OFFCURVE",
"546 427 CURVE SMOOTH",
"481 427 OFFCURVE",
"434 393 OFFCURVE",
"411 305 CURVE",
"434 217 OFFCURVE",
"481 183 OFFCURVE",
"546 183 CURVE SMOOTH"
);
}
);
width = 740;
}
);
unicode = 221E;
},
{
glyphname = uni212E;
layers = (
{
layerId = "E47AB2A9-A2CF-4FC9-8B8C-127EA756ED3A";
name = Regular;
paths = (
{
closed = 1;
nodes = (
"180 109 LINE",
"223 69 OFFCURVE",
"283 39 OFFCURVE",
"363 39 CURVE SMOOTH",
"483 39 OFFCURVE",
"559 99 OFFCURVE",
"607 188 CURVE",
"653 163 LINE",
"626 112 OFFCURVE",
"589 69 OFFCURVE",
"541 38 CURVE SMOOTH",
"493 6 OFFCURVE",
"434 -12 OFFCURVE",
"363 -12 CURVE SMOOTH",
"268 -12 OFFCURVE",
"188 23 OFFCURVE",
"129 86 CURVE SMOOTH",
"70 149 OFFCURVE",
"36 238 OFFCURVE",
"36 349 CURVE SMOOTH",
"36 458 OFFCURVE",
"70 549 OFFCURVE",
"129 612 CURVE SMOOTH",
"188 675 OFFCURVE",
"268 710 OFFCURVE",
"363 710 CURVE SMOOTH",
"456 710 OFFCURVE",
"538 675 OFFCURVE",
"597 612 CURVE SMOOTH",
"656 549 OFFCURVE",
"690 458 OFFCURVE",
"690 349 CURVE",
"180 349 LINE"
);
},
{
closed = 1;
nodes = (
"546 397 LINE",
"546 592 LINE",
"503 632 OFFCURVE",
"443 662 OFFCURVE",
"363 662 CURVE SMOOTH",
"283 662 OFFCURVE",
"223 632 OFFCURVE",
"180 592 CURVE",
"180 397 LINE"
);
}
);
width = 726;
}
);
unicode = 212E;
},
{
glyphname = uni2113;
layers = (
{
layerId = "E47AB2A9-A2CF-4FC9-8B8C-127EA756ED3A";
name = Regular;
paths = (
{
closed = 1;
nodes = (
"173 -12 OFFCURVE",
"122 58 OFFCURVE",
"122 159 CURVE SMOOTH",
"122 169 LINE",
"103 154 OFFCURVE",
"86 143 OFFCURVE",
"67 131 CURVE",
"34 185 LINE",
"48 194 OFFCURVE",
"63 204 OFFCURVE",
"78 214 CURVE",
"93 223 OFFCURVE",
"107 233 OFFCURVE",
"120 244 CURVE",
"120 561 LINE SMOOTH",
"120 633 OFFCURVE",
"135 681 OFFCURVE",
"160 711 CURVE SMOOTH",
"184 741 OFFCURVE",
"220 752 OFFCURVE",
"260 752 CURVE SMOOTH",
"352 752 OFFCURVE",
"400 693 OFFCURVE",
"400 584 CURVE SMOOTH",
"400 452 OFFCURVE",
"328 342 OFFCURVE",
"197 222 CURVE",
"197 178 LINE SMOOTH",
"197 90 OFFCURVE",
"227 58 OFFCURVE",
"279 58 CURVE SMOOTH",
"339 58 OFFCURVE",
"374 102 OFFCURVE",
"402 163 CURVE",
"459 128 LINE",
"442 89 OFFCURVE",
"419 54 OFFCURVE",
"388 29 CURVE SMOOTH",
"357 4 OFFCURVE",
"319 -12 OFFCURVE",
"272 -12 CURVE SMOOTH"
);
},
{
closed = 1;
nodes = (
"244 685 OFFCURVE",
"228 677 OFFCURVE",
"216 661 CURVE SMOOTH",
"203 644 OFFCURVE",
"197 613 OFFCURVE",
"197 568 CURVE SMOOTH",
"197 308 LINE",
"281 396 OFFCURVE",
"326 485 OFFCURVE",
"326 574 CURVE SMOOTH",
"326 591 LINE SMOOTH",
"326 659 OFFCURVE",
"302 685 OFFCURVE",
"263 685 CURVE SMOOTH"
);
}
);
width = 488;
}
);
unicode = 2113;
},
{
glyphname = uni2116;
layers = (
{
layerId = "E47AB2A9-A2CF-4FC9-8B8C-127EA756ED3A";
name = Regular;
paths = (
{
closed = 1;
nodes = (
"778 364 OFFCURVE",
"738 380 OFFCURVE",
"710 409 CURVE SMOOTH",
"681 438 OFFCURVE",
"663 482 OFFCURVE",
"663 537 CURVE SMOOTH",
"663 592 OFFCURVE",
"681 636 OFFCURVE",
"710 665 CURVE SMOOTH",
"738 694 OFFCURVE",
"778 710 OFFCURVE",
"823 710 CURVE SMOOTH",
"868 710 OFFCURVE",
"908 694 OFFCURVE",
"937 665 CURVE SMOOTH",
"965 636 OFFCURVE",
"983 592 OFFCURVE",
"983 537 CURVE SMOOTH",
"983 482 OFFCURVE",
"965 438 OFFCURVE",
"937 409 CURVE SMOOTH",
"908 380 OFFCURVE",
"868 364 OFFCURVE",
"823 364 CURVE SMOOTH"
);
},
{
closed = 1;
nodes = (
"93 0 LINE",
"93 698 LINE",
"185 698 LINE",
"409 293 LINE",
"506 116 LINE",
"509 116 LINE",
"509 698 LINE",
"587 698 LINE",
"587 0 LINE",
"493 0 LINE",
"257 419 LINE",
"174 574 LINE",
"171 574 LINE",
"171 0 LINE"
);
},
{
closed = 1;
nodes = (
"879 417 OFFCURVE",
"913 458 OFFCURVE",
"913 509 CURVE SMOOTH",
"913 565 LINE SMOOTH",
"913 616 OFFCURVE",
"879 657 OFFCURVE",
"823 657 CURVE SMOOTH",
"767 657 OFFCURVE",
"733 616 OFFCURVE",
"733 565 CURVE SMOOTH",
"733 509 LINE SMOOTH",
"733 458 OFFCURVE",
"767 417 OFFCURVE",
"823 417 CURVE SMOOTH"
);
},
{
closed = 1;
nodes = (
"686 243 LINE",
"686 309 LINE",
"960 309 LINE",
"960 243 LINE"
);
}
);
width = 1027;
}
);
unicode = 2116;
},
{
glyphname = partialdiff;
layers = (
{
layerId = "E47AB2A9-A2CF-4FC9-8B8C-127EA756ED3A";
name = Regular;
paths = (
{
closed = 1;
nodes = (
"523 78 OFFCURVE",
"435 -12 OFFCURVE",
"296 -12 CURVE SMOOTH",
"223 -12 OFFCURVE",
"165 13 OFFCURVE",
"125 58 CURVE SMOOTH",
"85 103 OFFCURVE",
"63 167 OFFCURVE",
"63 246 CURVE SMOOTH",
"63 325 OFFCURVE",
"84 389 OFFCURVE",
"123 434 CURVE SMOOTH",
"162 479 OFFCURVE",
"216 504 OFFCURVE",
"283 504 CURVE SMOOTH",
"342 504 OFFCURVE",
"380 484 OFFCURVE",
"409 449 CURVE",
"412 451 LINE",
"396 499 OFFCURVE",
"358 545 OFFCURVE",
"310 587 CURVE SMOOTH",
"261 629 OFFCURVE",
"201 666 OFFCURVE",
"141 698 CURVE",
"267 698 LINE",
"312 670 OFFCURVE",
"377 628 OFFCURVE",
"430 560 CURVE SMOOTH",
"482 492 OFFCURVE",
"523 398 OFFCURVE",
"523 269 CURVE SMOOTH"
);
},
{
closed = 1;
nodes = (
"381 57 OFFCURVE",
"438 107 OFFCURVE",
"438 211 CURVE SMOOTH",
"438 281 LINE SMOOTH",
"438 385 OFFCURVE",
"381 435 OFFCURVE",
"293 435 CURVE SMOOTH",
"205 435 OFFCURVE",
"148 385 OFFCURVE",
"148 281 CURVE SMOOTH",
"148 211 LINE SMOOTH",
"148 107 OFFCURVE",
"205 57 OFFCURVE",
"293 57 CURVE SMOOTH"
);
}
);
width = 591;
}
);
unicode = 2202;
},
{
glyphname = cent;
layers = (
{
layerId = "E47AB2A9-A2CF-4FC9-8B8C-127EA756ED3A";
name = Regular;
paths = (
{
closed = 1;
nodes = (
"235 -114 LINE",
"235 -9 LINE",
"114 8 OFFCURVE",
"47 109 OFFCURVE",
"47 258 CURVE SMOOTH",
"47 409 OFFCURVE",
"115 508 OFFCURVE",
"235 525 CURVE",
"235 630 LINE",
"305 630 LINE",
"305 527 LINE",
"389 520 OFFCURVE",
"441 473 OFFCURVE",
"469 409 CURVE",
"405 374 LINE",
"387 421 OFFCURVE",
"353 449 OFFCURVE",
"304 456 CURVE",
"304 60 LINE",
"356 66 OFFCURVE",
"394 95 OFFCURVE",
"418 148 CURVE",
"476 109 LINE",
"447 41 OFFCURVE",
"389 -4 OFFCURVE",
"305 -11 CURVE",
"305 -114 LINE"
);
},
{
closed = 1;
nodes = (
"133 214 LINE SMOOTH",
"133 138 OFFCURVE",
"168 78 OFFCURVE",
"236 63 CURVE",
"236 453 LINE",
"168 438 OFFCURVE",
"133 379 OFFCURVE",
"133 302 CURVE SMOOTH"
);
}
);
width = 514;
}
);
unicode = 00A2;
},
{
glyphname = Euro;
layers = (
{
layerId = "E47AB2A9-A2CF-4FC9-8B8C-127EA756ED3A";
name = Regular;
paths = (
{
closed = 1;
nodes = (
"161 -12 OFFCURVE",
"58 114 OFFCURVE",
"58 349 CURVE SMOOTH",
"58 584 OFFCURVE",
"161 710 OFFCURVE",
"338 710 CURVE SMOOTH",
"455 710 OFFCURVE",
"532 653 OFFCURVE",
"576 557 CURVE",
"511 517 LINE",
"483 589 OFFCURVE",
"423 636 OFFCURVE",
"338 636 CURVE SMOOTH",
"230 636 OFFCURVE",
"165 568 OFFCURVE",
"149 464 CURVE",
"406 464 LINE",
"406 397 LINE",
"145 397 LINE",
"145 301 LINE",
"406 301 LINE",
"406 234 LINE",
"149 234 LINE",
"166 130 OFFCURVE",
"231 62 OFFCURVE",
"338 62 CURVE SMOOTH",
"426 62 OFFCURVE",
"487 113 OFFCURVE",
"516 189 CURVE",
"581 146 LINE",
"560 101 OFFCURVE",
"531 61 OFFCURVE",
"492 33 CURVE SMOOTH",
"452 5 OFFCURVE",
"402 -12 OFFCURVE",
"338 -12 CURVE SMOOTH"
);
}
);
width = 625;
}
);
unicode = 20AC;
},
{
glyphname = florin;
layers = (
{
layerId = "E47AB2A9-A2CF-4FC9-8B8C-127EA756ED3A";
name = Regular;
paths = (
{
closed = 1;
nodes = (
"4 -64 LINE",
"149 -64 LINE",
"186 301 LINE",
"43 301 LINE",
"51 374 LINE",
"193 374 LINE",
"214 580 LINE SMOOTH",
"221 651 OFFCURVE",
"263 698 OFFCURVE",
"340 698 CURVE SMOOTH",
"461 698 LINE",
"453 628 LINE",
"300 628 LINE",
"274 374 LINE",
"443 374 LINE",
"436 301 LINE",
"267 301 LINE",
"235 -16 LINE SMOOTH",
"228 -85 OFFCURVE",
"188 -134 OFFCURVE",
"109 -134 CURVE SMOOTH",
"-3 -134 LINE"
);
}
);
width = 485;
}
);
unicode = 0192;
},
{
glyphname = sterling;
layers = (
{
layerId = "E47AB2A9-A2CF-4FC9-8B8C-127EA756ED3A";
name = Regular;
paths = (
{
closed = 1;
nodes = (
"82 0 LINE",
"82 100 LINE",
"138 124 OFFCURVE",
"154 181 OFFCURVE",
"154 237 CURVE SMOOTH",
"154 254 OFFCURVE",
"153 271 OFFCURVE",
"150 286 CURVE",
"60 286 LINE",
"60 356 LINE",
"131 356 LINE",
"116 401 OFFCURVE",
"100 443 OFFCURVE",
"100 499 CURVE SMOOTH",
"100 560 OFFCURVE",
"121 614 OFFCURVE",
"161 651 CURVE SMOOTH",
"200 688 OFFCURVE",
"258 710 OFFCURVE",
"330 710 CURVE SMOOTH",
"433 710 OFFCURVE",
"499 668 OFFCURVE",
"544 596 CURVE",
"481 550 LINE",
"446 603 OFFCURVE",
"400 636 OFFCURVE",
"327 636 CURVE SMOOTH",
"240 636 OFFCURVE",
"187 588 OFFCURVE",
"187 491 CURVE SMOOTH",
"187 440 OFFCURVE",
"202 399 OFFCURVE",
"215 356 CURVE",
"431 356 LINE",
"431 286 LINE",
"233 286 LINE",
"235 273 OFFCURVE",
"236 259 OFFCURVE",
"236 246 CURVE SMOOTH",
"236 171 OFFCURVE",
"201 107 OFFCURVE",
"161 80 CURVE",
"161 75 LINE",
"525 75 LINE",
"525 0 LINE"
);
}
);
width = 595;
}
);
unicode = 00A3;
},
{
glyphname = dollar;
layers = (
{
layerId = "E47AB2A9-A2CF-4FC9-8B8C-127EA756ED3A";
name = Regular;
paths = (
{
closed = 1;
nodes = (
"270 -82 LINE",
"270 0 LINE",
"169 7 OFFCURVE",
"101 54 OFFCURVE",
"52 119 CURVE",
"111 172 LINE",
"154 115 OFFCURVE",
"203 80 OFFCURVE",
"271 71 CURVE",
"271 328 LINE",
"134 359 OFFCURVE",
"73 414 OFFCURVE",
"73 518 CURVE SMOOTH",
"73 571 OFFCURVE",
"93 613 OFFCURVE",
"128 644 CURVE SMOOTH",
"163 675 OFFCURVE",
"211 693 OFFCURVE",
"270 698 CURVE",
"270 780 LINE",
"332 780 LINE",
"332 699 LINE",
"423 691 OFFCURVE",
"487 653 OFFCURVE",
"535 586 CURVE",
"474 540 LINE",
"441 587 OFFCURVE",
"395 618 OFFCURVE",
"331 627 CURVE",
"331 393 LINE",
"340 391 LINE SMOOTH",
"479 360 OFFCURVE",
"539 305 OFFCURVE",
"539 200 CURVE SMOOTH",
"539 85 OFFCURVE",
"460 12 OFFCURVE",
"332 0 CURVE",
"332 -82 LINE"
);
},
{
closed = 1;
nodes = (
"460 263 OFFCURVE",
"424 294 OFFCURVE",
"331 317 CURVE",
"331 71 LINE",
"411 82 OFFCURVE",
"460 127 OFFCURVE",
"460 195 CURVE SMOOTH"
);
},
{
closed = 1;
nodes = (
"152 456 OFFCURVE",
"191 427 OFFCURVE",
"271 406 CURVE",
"271 627 LINE",
"199 618 OFFCURVE",
"152 583 OFFCURVE",
"152 524 CURVE SMOOTH"
);
}
);
width = 598;
}
);
unicode = 0024;
},
{
glyphname = yen;
layers = (
{
layerId = "E47AB2A9-A2CF-4FC9-8B8C-127EA756ED3A";
name = Regular;
paths = (
{
closed = 1;
nodes = (
"344 145 LINE",
"344 0 LINE",
"261 0 LINE",
"261 145 LINE",
"85 145 LINE",
"85 212 LINE",
"261 212 LINE",
"261 308 LINE",
"85 308 LINE",
"85 375 LINE",
"221 375 LINE",
"34 698 LINE",
"128 698 LINE",
"303 383 LINE",
"308 383 LINE",
"478 698 LINE",
"571 698 LINE",
"384 375 LINE",
"520 375 LINE",
"520 308 LINE",
"344 308 LINE",
"344 212 LINE",
"520 212 LINE",
"520 145 LINE"
);
}
);
width = 605;
}
);
unicode = 00A5;
},
{
glyphname = uni0E3F;
layers = (
{
layerId = "E47AB2A9-A2CF-4FC9-8B8C-127EA756ED3A";
name = Regular;
paths = (
{
closed = 1;
nodes = (
"350 -82 LINE",
"282 -82 LINE",
"282 21 LINE",
"93 21 LINE",
"93 677 LINE",
"282 677 LINE",
"282 780 LINE",
"350 780 LINE",
"350 677 LINE",
"371 677 LINE SMOOTH",
"486 677 OFFCURVE",
"556 611 OFFCURVE",
"556 508 CURVE SMOOTH",
"556 464 OFFCURVE",
"542 432 OFFCURVE",
"521 409 CURVE SMOOTH",
"500 386 OFFCURVE",
"471 373 OFFCURVE",
"439 368 CURVE",
"439 362 LINE",
"471 357 OFFCURVE",
"507 347 OFFCURVE",
"535 324 CURVE SMOOTH",
"562 301 OFFCURVE",
"581 266 OFFCURVE",
"581 211 CURVE SMOOTH",
"581 156 OFFCURVE",
"561 110 OFFCURVE",
"529 76 CURVE SMOOTH",
"497 42 OFFCURVE",
"452 21 OFFCURVE",
"400 21 CURVE SMOOTH",
"350 21 LINE"
);
},
{
closed = 1;
nodes = (
"283 393 LINE",
"283 603 LINE",
"176 603 LINE",
"176 393 LINE"
);
},
{
closed = 1;
nodes = (
"349 393 LINE",
"373 393 LINE SMOOTH",
"440 393 OFFCURVE",
"469 423 OFFCURVE",
"469 483 CURVE SMOOTH",
"469 513 LINE SMOOTH",
"469 573 OFFCURVE",
"440 603 OFFCURVE",
"373 603 CURVE SMOOTH",
"349 603 LINE"
);
},
{
closed = 1;
nodes = (
"283 95 LINE",
"283 324 LINE",
"176 324 LINE",
"176 95 LINE"
);
},
{
closed = 1;
nodes = (
"349 95 LINE",
"377 95 LINE SMOOTH",
"449 95 OFFCURVE",
"494 127 OFFCURVE",
"494 192 CURVE SMOOTH",
"494 227 LINE SMOOTH",
"494 292 OFFCURVE",
"449 324 OFFCURVE",
"377 324 CURVE SMOOTH",
"349 324 LINE"
);
}
);
width = 644;
}
);
unicode = 0E3F;
},
{
glyphname = uni20A1;
layers = (
{
layerId = "E47AB2A9-A2CF-4FC9-8B8C-127EA756ED3A";
name = Regular;
paths = (
{
closed = 1;
nodes = (
"316 -1 LINE",
"297 0 OFFCURVE",
"280 2 OFFCURVE",
"265 6 CURVE",
"255 -82 LINE",
"187 -82 LINE",
"199 28 LINE",
"108 75 OFFCURVE",
"58 182 OFFCURVE",
"58 347 CURVE SMOOTH",
"58 551 OFFCURVE",
"135 667 OFFCURVE",
"268 694 CURVE",
"277 780 LINE",
"345 780 LINE",
"336 700 LINE",
"339 700 LINE SMOOTH",
"356 700 OFFCURVE",
"373 699 OFFCURVE",
"388 696 CURVE",
"397 780 LINE",
"465 780 LINE",
"455 678 LINE",
"511 655 OFFCURVE",
"551 608 OFFCURVE",
"579 547 CURVE",
"512 506 LINE",
"496 545 OFFCURVE",
"475 577 OFFCURVE",
"444 597 CURVE",
"390 78 LINE",
"454 93 OFFCURVE",
"494 139 OFFCURVE",
"517 200 CURVE",
"584 156 LINE",
"545 75 OFFCURVE",
"487 14 OFFCURVE",
"384 1 CURVE",
"375 -82 LINE",
"307 -82 LINE"
);
},
{
closed = 1;
nodes = (
"327 625 LINE",
"271 85 LINE",
"287 78 OFFCURVE",
"305 74 OFFCURVE",
"325 73 CURVE",
"382 620 LINE",
"367 623 OFFCURVE",
"354 625 OFFCURVE",
"341 625 CURVE SMOOTH"
);
},
{
closed = 1;
nodes = (
"148 293 LINE SMOOTH",
"148 217 OFFCURVE",
"168 154 OFFCURVE",
"211 117 CURVE",
"261 612 LINE",
"188 584 OFFCURVE",
"148 509 OFFCURVE",
"148 406 CURVE SMOOTH"
);
}
);
width = 628;
}
);
unicode = 20A1;
},
{
glyphname = uni20A4;
layers = (
{
layerId = "E47AB2A9-A2CF-4FC9-8B8C-127EA756ED3A";
name = Regular;
paths = (
{
closed = 1;
nodes = (
"525 0 LINE",
"82 0 LINE",
"82 100 LINE",
"138 124 OFFCURVE",
"154 181 OFFCURVE",
"154 238 CURVE",
"60 238 LINE",
"60 305 LINE",
"146 305 LINE",
"143 320 OFFCURVE",
"139 335 OFFCURVE",
"134 350 CURVE SMOOTH",
"129 364 OFFCURVE",
"124 378 OFFCURVE",
"119 393 CURVE",
"60 393 LINE",
"60 460 LINE",
"103 460 LINE",
"101 472 OFFCURVE",
"100 485 OFFCURVE",
"100 499 CURVE SMOOTH",
"100 560 OFFCURVE",
"121 614 OFFCURVE",
"161 651 CURVE SMOOTH",
"200 688 OFFCURVE",
"258 710 OFFCURVE",
"330 710 CURVE SMOOTH",
"433 710 OFFCURVE",
"499 668 OFFCURVE",
"544 596 CURVE",
"481 550 LINE",
"446 603 OFFCURVE",
"400 636 OFFCURVE",
"327 636 CURVE SMOOTH",
"240 636 OFFCURVE",
"187 588 OFFCURVE",
"187 491 CURVE SMOOTH",
"187 480 OFFCURVE",
"188 471 OFFCURVE",
"189 460 CURVE",
"431 460 LINE",
"431 393 LINE",
"203 393 LINE",
"208 378 OFFCURVE",
"212 364 OFFCURVE",
"217 350 CURVE SMOOTH",
"222 335 OFFCURVE",
"226 320 OFFCURVE",
"229 305 CURVE",
"431 305 LINE",
"431 238 LINE",
"236 238 LINE",
"233 166 OFFCURVE",
"200 107 OFFCURVE",
"161 80 CURVE",
"161 75 LINE",
"525 75 LINE"
);
}
);
width = 595;
}
);
unicode = 20A4;
},
{
glyphname = uni20A6;
layers = (
{
layerId = "E47AB2A9-A2CF-4FC9-8B8C-127EA756ED3A";
name = Regular;
paths = (
{
closed = 1;
nodes = (
"362 237 LINE",
"177 237 LINE",
"177 0 LINE",
"95 0 LINE",
"95 234 LINE",
"15 234 LINE",
"15 301 LINE",
"95 301 LINE",
"95 397 LINE",
"15 397 LINE",
"15 464 LINE",
"95 464 LINE",
"95 698 LINE",
"190 698 LINE",
"329 461 LINE",
"519 461 LINE",
"519 698 LINE",
"601 698 LINE",
"601 464 LINE",
"681 464 LINE",
"681 397 LINE",
"601 397 LINE",
"601 301 LINE",
"681 301 LINE",
"681 234 LINE",
"601 234 LINE",
"601 0 LINE",
"502 0 LINE"
);
},
{
closed = 1;
nodes = (
"332 298 LINE",
"180 567 LINE",
"177 567 LINE",
"177 298 LINE"
);
},
{
closed = 1;
nodes = (
"516 120 LINE",
"519 120 LINE",
"519 400 LINE",
"359 400 LINE"
);
}
);
width = 696;
}
);
unicode = 20A6;
},
{
glyphname = uni20A8;
layers = (
{
layerId = "E47AB2A9-A2CF-4FC9-8B8C-127EA756ED3A";
name = Regular;
paths = (
{
closed = 1;
nodes = (
"93 0 LINE",
"93 698 LINE",
"266 698 LINE SMOOTH",
"386 698 OFFCURVE",
"445 631 OFFCURVE",
"445 511 CURVE SMOOTH",
"445 419 OFFCURVE",
"410 359 OFFCURVE",
"337 336 CURVE",
"434 132 LINE SMOOTH",
"459 80 OFFCURVE",
"483 55 OFFCURVE",
"532 55 CURVE SMOOTH",
"580 55 OFFCURVE",
"608 77 OFFCURVE",
"608 120 CURVE SMOOTH",
"608 135 OFFCURVE",
"606 145 OFFCURVE",
"598 157 CURVE",
"590 168 OFFCURVE",
"577 182 OFFCURVE",
"554 205 CURVE SMOOTH",
"535 224 LINE SMOOTH",
"479 280 OFFCURVE",
"462 316 OFFCURVE",
"462 361 CURVE SMOOTH",
"462 428 OFFCURVE",
"506 477 OFFCURVE",
"583 477 CURVE SMOOTH",
"618 477 OFFCURVE",
"652 471 OFFCURVE",
"683 448 CURVE",
"651 391 LINE",
"632 406 OFFCURVE",
"611 413 OFFCURVE",
"587 413 CURVE SMOOTH",
"555 413 OFFCURVE",
"537 394 OFFCURVE",
"537 362 CURVE SMOOTH",
"537 331 OFFCURVE",
"550 313 OFFCURVE",
"590 273 CURVE SMOOTH",
"605 258 LINE SMOOTH",
"636 227 OFFCURVE",
"655 206 OFFCURVE",
"667 186 CURVE SMOOTH",
"679 166 OFFCURVE",
"683 147 OFFCURVE",
"683 120 CURVE SMOOTH",
"683 40 OFFCURVE",
"633 -12 OFFCURVE",
"525 -12 CURVE SMOOTH",
"449 -12 OFFCURVE",
"397 15 OFFCURVE",
"362 94 CURVE SMOOTH",
"260 322 LINE",
"173 322 LINE",
"173 0 LINE"
);
},
{
closed = 1;
nodes = (
"258 392 LINE SMOOTH",
"325 392 OFFCURVE",
"363 425 OFFCURVE",
"363 486 CURVE SMOOTH",
"363 532 LINE SMOOTH",
"363 593 OFFCURVE",
"325 626 OFFCURVE",
"258 626 CURVE SMOOTH",
"173 626 LINE",
"173 392 LINE"
);
}
);
width = 713;
}
);
unicode = 20A8;
},
{
glyphname = uni20A9;
layers = (
{
layerId = "E47AB2A9-A2CF-4FC9-8B8C-127EA756ED3A";
name = Regular;
paths = (
{
closed = 1;
nodes = (
"567 238 LINE",
"376 238 LINE",
"313 0 LINE",
"222 0 LINE",
"166 235 LINE",
"37 235 LINE",
"37 302 LINE",
"150 302 LINE",
"128 397 LINE",
"37 397 LINE",
"37 464 LINE",
"112 464 LINE",
"56 698 LINE",
"139 698 LINE",
"192 461 LINE",
"365 461 LINE",
"427 698 LINE",
"523 698 LINE",
"583 461 LINE",
"760 461 LINE",
"815 698 LINE",
"899 698 LINE",
"839 464 LINE",
"915 464 LINE",
"915 397 LINE",
"822 397 LINE",
"798 302 LINE",
"915 302 LINE",
"915 235 LINE",
"781 235 LINE",
"720 0 LINE",
"629 0 LINE"
);
},
{
closed = 1;
nodes = (
"339 362 LINE",
"348 400 LINE",
"206 400 LINE",
"214 362 LINE",
"272 101 LINE",
"274 101 LINE"
);
},
{
closed = 1;
nodes = (
"676 102 LINE",
"736 362 LINE",
"745 400 LINE",
"599 400 LINE",
"608 362 LINE",
"673 102 LINE"
);
},
{
closed = 1;
nodes = (
"393 299 LINE",
"551 299 LINE",
"538 348 LINE",
"474 611 LINE",
"472 611 LINE",
"406 348 LINE"
);
}
);
width = 952;
}
);
unicode = 20A9;
},
{
glyphname = uni20AA;
layers = (
{
layerId = "E47AB2A9-A2CF-4FC9-8B8C-127EA756ED3A";
name = Regular;
paths = (
{
closed = 1;
nodes = (
"261 540 LINE",
"341 540 LINE",
"341 70 LINE",
"491 70 LINE SMOOTH",
"518 70 OFFCURVE",
"544 77 OFFCURVE",
"564 94 CURVE SMOOTH",
"584 110 OFFCURVE",
"597 138 OFFCURVE",
"597 182 CURVE SMOOTH",
"597 698 LINE",
"677 698 LINE",
"677 198 LINE SMOOTH",
"677 131 OFFCURVE",
"657 82 OFFCURVE",
"625 49 CURVE SMOOTH",
"592 16 OFFCURVE",
"544 0 OFFCURVE",
"491 0 CURVE SMOOTH",
"261 0 LINE"
);
},
{
closed = 1;
nodes = (
"93 0 LINE",
"93 698 LINE",
"325 698 LINE SMOOTH",
"433 698 OFFCURVE",
"509 633 OFFCURVE",
"509 500 CURVE SMOOTH",
"509 158 LINE",
"429 158 LINE",
"429 516 LINE SMOOTH",
"429 560 OFFCURVE",
"417 588 OFFCURVE",
"398 605 CURVE",
"378 621 OFFCURVE",
"352 628 OFFCURVE",
"324 628 CURVE SMOOTH",
"173 628 LINE",
"173 0 LINE"
);
}
);
width = 770;
}
);
unicode = 20AA;
},
{
glyphname = uni20AB;
layers = (
{
layerId = "E47AB2A9-A2CF-4FC9-8B8C-127EA756ED3A";
name = Regular;
paths = (
{
closed = 1;
nodes = (
"392 209 LINE",
"388 209 LINE",
"360 158 OFFCURVE",
"314 131 OFFCURVE",
"247 131 CURVE SMOOTH",
"139 131 OFFCURVE",
"71 207 OFFCURVE",
"71 346 CURVE SMOOTH",
"71 485 OFFCURVE",
"139 561 OFFCURVE",
"247 561 CURVE SMOOTH",
"314 561 OFFCURVE",
"360 533 OFFCURVE",
"388 482 CURVE",
"392 482 LINE",
"392 619 LINE",
"243 619 LINE",
"243 680 LINE",
"392 680 LINE",
"392 740 LINE",
"468 740 LINE",
"468 680 LINE",
"536 680 LINE",
"536 619 LINE",
"468 619 LINE",
"468 140 LINE",
"392 140 LINE"
);
},
{
closed = 1;
nodes = (
"343 195 OFFCURVE",
"392 232 OFFCURVE",
"392 288 CURVE SMOOTH",
"392 404 LINE SMOOTH",
"392 460 OFFCURVE",
"343 497 OFFCURVE",
"275 497 CURVE SMOOTH",
"200 497 OFFCURVE",
"152 451 OFFCURVE",
"152 380 CURVE SMOOTH",
"152 312 LINE SMOOTH",
"152 241 OFFCURVE",
"200 195 OFFCURVE",
"275 195 CURVE SMOOTH"
);
},
{
closed = 1;
nodes = (
"71 0 LINE",
"71 67 LINE",
"498 67 LINE",
"498 0 LINE"
);
}
);
width = 580;
}
);
unicode = 20AB;
},
{
glyphname = uni20AD;
layers = (
{
layerId = "E47AB2A9-A2CF-4FC9-8B8C-127EA756ED3A";
name = Regular;
paths = (
{
closed = 1;
nodes = (
"177 0 LINE",
"95 0 LINE",
"95 327 LINE",
"10 327 LINE",
"10 396 LINE",
"95 396 LINE",
"95 698 LINE",
"177 698 LINE",
"177 396 LINE",
"257 396 LINE",
"481 698 LINE",
"574 698 LINE",
"344 396 LINE",
"558 396 LINE",
"558 327 LINE",
"350 327 LINE",
"590 0 LINE",
"490 0 LINE",
"259 327 LINE",
"177 327 LINE"
);
}
);
width = 617;
}
);
unicode = 20AD;
},
{
glyphname = uni20AE;
layers = (
{
layerId = "E47AB2A9-A2CF-4FC9-8B8C-127EA756ED3A";
name = Regular;
paths = (
{
closed = 1;
nodes = (
"346 217 LINE",
"346 0 LINE",
"262 0 LINE",
"262 176 LINE",
"129 112 LINE",
"129 181 LINE",
"262 245 LINE",
"262 336 LINE",
"129 272 LINE",
"129 341 LINE",
"262 405 LINE",
"262 624 LINE",
"40 624 LINE",
"40 698 LINE",
"568 698 LINE",
"568 624 LINE",
"346 624 LINE",
"346 446 LINE",
"480 511 LINE",
"480 442 LINE",
"346 377 LINE",
"346 286 LINE",
"480 351 LINE",
"480 282 LINE"
);
}
);
width = 608;
}
);
unicode = 20AE;
},
{
glyphname = uni20B1;
layers = (
{
layerId = "E47AB2A9-A2CF-4FC9-8B8C-127EA756ED3A";
name = Regular;
paths = (
{
closed = 1;
nodes = (
"193 0 LINE",
"110 0 LINE",
"110 332 LINE",
"30 332 LINE",
"30 399 LINE",
"110 399 LINE",
"110 495 LINE",
"30 495 LINE",
"30 562 LINE",
"110 562 LINE",
"110 698 LINE",
"341 698 LINE SMOOTH",
"437 698 OFFCURVE",
"494 647 OFFCURVE",
"519 562 CURVE",
"610 562 LINE",
"610 495 LINE",
"531 495 LINE",
"532 479 OFFCURVE",
"533 462 OFFCURVE",
"533 446 CURVE SMOOTH",
"533 430 OFFCURVE",
"532 414 OFFCURVE",
"531 399 CURVE",
"610 399 LINE",
"610 332 LINE",
"519 332 LINE",
"495 245 OFFCURVE",
"438 194 OFFCURVE",
"341 194 CURVE SMOOTH",
"193 194 LINE"
);
},
{
closed = 1;
nodes = (
"193 559 LINE",
"442 559 LINE",
"427 599 OFFCURVE",
"392 626 OFFCURVE",
"341 626 CURVE SMOOTH",
"193 626 LINE"
);
},
{
closed = 1;
nodes = (
"450 396 LINE",
"450 498 LINE",
"193 498 LINE",
"193 396 LINE"
);
},
{
closed = 1;
nodes = (
"341 266 LINE SMOOTH",
"392 266 OFFCURVE",
"429 292 OFFCURVE",
"444 335 CURVE",
"193 335 LINE",
"193 266 LINE"
);
}
);
width = 628;
}
);
unicode = 20B1;
},
{
glyphname = uni20B2;
layers = (
{
layerId = "E47AB2A9-A2CF-4FC9-8B8C-127EA756ED3A";
name = Regular;
paths = (
{
closed = 1;
nodes = (
"220 -82 LINE",
"237 13 LINE",
"125 52 OFFCURVE",
"58 164 OFFCURVE",
"58 352 CURVE SMOOTH",
"58 584 OFFCURVE",
"162 700 OFFCURVE",
"341 700 CURVE SMOOTH",
"344 700 OFFCURVE",
"346 700 OFFCURVE",
"349 700 CURVE",
"351 699 OFFCURVE",
"353 699 OFFCURVE",
"356 699 CURVE",
"370 780 LINE",
"441 780 LINE",
"425 689 LINE",
"500 669 OFFCURVE",
"555 622 OFFCURVE",
"589 547 CURVE",
"521 506 LINE",
"500 561 OFFCURVE",
"463 599 OFFCURVE",
"411 616 CURVE",
"366 359 LINE",
"604 359 LINE",
"604 260 LINE SMOOTH",
"604 156 OFFCURVE",
"565 91 OFFCURVE",
"512 52 CURVE SMOOTH",
"459 12 OFFCURVE",
"392 -2 OFFCURVE",
"335 -2 CURVE SMOOTH",
"324 -2 OFFCURVE",
"315 -1 OFFCURVE",
"306 0 CURVE",
"291 -82 LINE"
);
},
{
closed = 1;
nodes = (
"148 293 LINE SMOOTH",
"148 194 OFFCURVE",
"186 125 OFFCURVE",
"251 93 CURVE",
"345 626 LINE",
"342 626 LINE SMOOTH",
"218 626 OFFCURVE",
"148 545 OFFCURVE",
"148 406 CURVE SMOOTH"
);
},
{
closed = 1;
nodes = (
"353 283 LINE",
"317 74 LINE",
"328 73 OFFCURVE",
"337 72 OFFCURVE",
"348 72 CURVE SMOOTH",
"459 72 OFFCURVE",
"522 136 OFFCURVE",
"522 240 CURVE SMOOTH",
"522 283 LINE"
);
}
);
width = 676;
}
);
unicode = 20B2;
},
{
glyphname = uni20B4;
layers = (
{
layerId = "E47AB2A9-A2CF-4FC9-8B8C-127EA756ED3A";
name = Regular;
paths = (
{
closed = 1;
nodes = (
"252 -12 OFFCURVE",
"200 8 OFFCURVE",
"164 41 CURVE SMOOTH",
"128 73 OFFCURVE",
"107 120 OFFCURVE",
"107 176 CURVE SMOOTH",
"107 205 OFFCURVE",
"113 228 OFFCURVE",
"120 248 CURVE",
"46 248 LINE",
"46 315 LINE",
"171 315 LINE",
"337 411 LINE",
"46 411 LINE",
"46 478 LINE",
"421 478 LINE",
"427 493 OFFCURVE",
"430 510 OFFCURVE",
"430 529 CURVE SMOOTH",
"430 601 OFFCURVE",
"384 636 OFFCURVE",
"307 636 CURVE SMOOTH",
"255 636 OFFCURVE",
"208 618 OFFCURVE",
"168 571 CURVE",
"115 624 LINE",
"171 685 OFFCURVE",
"241 710 OFFCURVE",
"314 710 CURVE SMOOTH",
"373 710 OFFCURVE",
"422 694 OFFCURVE",
"458 664 CURVE SMOOTH",
"493 634 OFFCURVE",
"513 589 OFFCURVE",
"513 536 CURVE SMOOTH",
"513 513 OFFCURVE",
"510 494 OFFCURVE",
"504 478 CURVE",
"582 478 LINE",
"582 411 LINE",
"456 411 LINE",
"290 315 LINE",
"582 315 LINE",
"582 248 LINE",
"206 248 LINE",
"195 229 OFFCURVE",
"190 209 OFFCURVE",
"190 182 CURVE SMOOTH",
"190 102 OFFCURVE",
"241 62 OFFCURVE",
"321 62 CURVE SMOOTH",
"377 62 OFFCURVE",
"424 83 OFFCURVE",
"479 140 CURVE",
"530 85 LINE",
"477 21 OFFCURVE",
"401 -12 OFFCURVE",
"316 -12 CURVE SMOOTH"
);
}
);
width = 628;
}
);
unicode = 20B4;
},
{
glyphname = uni20B5;
layers = (
{
layerId = "E47AB2A9-A2CF-4FC9-8B8C-127EA756ED3A";
name = Regular;
paths = (
{
closed = 1;
nodes = (
"220 -82 LINE",
"237 13 LINE",
"124 52 OFFCURVE",
"58 164 OFFCURVE",
"58 349 CURVE SMOOTH",
"58 582 OFFCURVE",
"165 700 OFFCURVE",
"337 700 CURVE SMOOTH",
"340 700 OFFCURVE",
"344 700 OFFCURVE",
"347 700 CURVE SMOOTH",
"350 700 OFFCURVE",
"353 700 OFFCURVE",
"356 699 CURVE",
"370 780 LINE",
"441 780 LINE",
"425 688 LINE",
"497 667 OFFCURVE",
"547 620 OFFCURVE",
"579 549 CURVE",
"511 508 LINE",
"492 556 OFFCURVE",
"459 594 OFFCURVE",
"411 613 CURVE",
"317 74 LINE",
"320 73 OFFCURVE",
"324 73 OFFCURVE",
"327 73 CURVE SMOOTH",
"330 73 OFFCURVE",
"334 73 OFFCURVE",
"337 73 CURVE SMOOTH",
"429 73 OFFCURVE",
"489 123 OFFCURVE",
"517 199 CURVE",
"584 157 LINE",
"563 112 OFFCURVE",
"533 72 OFFCURVE",
"493 44 CURVE SMOOTH",
"453 15 OFFCURVE",
"402 -2 OFFCURVE",
"337 -2 CURVE SMOOTH",
"326 -2 OFFCURVE",
"317 -1 OFFCURVE",
"306 0 CURVE",
"291 -82 LINE"
);
},
{
closed = 1;
nodes = (
"148 293 LINE SMOOTH",
"148 196 OFFCURVE",
"184 124 OFFCURVE",
"251 91 CURVE",
"345 626 LINE",
"337 626 LINE SMOOTH",
"277 626 OFFCURVE",
"230 604 OFFCURVE",
"198 566 CURVE SMOOTH",
"165 528 OFFCURVE",
"148 471 OFFCURVE",
"148 406 CURVE SMOOTH"
);
}
);
width = 628;
}
);
unicode = 20B5;
},
{
glyphname = uni20B8;
layers = (
{
layerId = "E47AB2A9-A2CF-4FC9-8B8C-127EA756ED3A";
name = Regular;
paths = (
{
closed = 1;
nodes = (
"40 628 LINE",
"40 698 LINE",
"568 698 LINE",
"568 628 LINE"
);
},
{
closed = 1;
nodes = (
"346 468 LINE",
"346 0 LINE",
"262 0 LINE",
"262 468 LINE",
"40 468 LINE",
"40 538 LINE",
"568 538 LINE",
"568 468 LINE"
);
}
);
width = 608;
}
);
unicode = 20B8;
},
{
glyphname = uni20B9;
layers = (
{
layerId = "E47AB2A9-A2CF-4FC9-8B8C-127EA756ED3A";
name = Regular;
paths = (
{
closed = 1;
nodes = (
"394 0 LINE",
"175 298 LINE",
"53 298 LINE",
"53 368 LINE",
"275 368 LINE SMOOTH",
"343 368 OFFCURVE",
"392 400 OFFCURVE",
"392 464 CURVE",
"53 464 LINE",
"53 534 LINE",
"392 534 LINE",
"389 595 OFFCURVE",
"343 628 OFFCURVE",
"275 628 CURVE SMOOTH",
"53 628 LINE",
"53 698 LINE",
"571 698 LINE",
"571 628 LINE",
"405 628 LINE",
"405 624 LINE",
"413 623 OFFCURVE",
"428 620 OFFCURVE",
"442 608 CURVE",
"456 595 OFFCURVE",
"468 573 OFFCURVE",
"472 534 CURVE",
"571 534 LINE",
"571 464 LINE",
"472 464 LINE",
"460 360 OFFCURVE",
"390 298 OFFCURVE",
"273 298 CURVE",
"496 0 LINE"
);
}
);
width = 605;
}
);
unicode = 20B9;
},
{
glyphname = uni20BA;
layers = (
{
layerId = "E47AB2A9-A2CF-4FC9-8B8C-127EA756ED3A";
name = Regular;
paths = (
{
closed = 1;
nodes = (
"110 248 LINE",
"13 201 LINE",
"13 270 LINE",
"110 317 LINE",
"110 408 LINE",
"13 361 LINE",
"13 430 LINE",
"110 477 LINE",
"110 698 LINE",
"194 698 LINE",
"194 517 LINE",
"410 621 LINE",
"410 552 LINE",
"194 448 LINE",
"194 357 LINE",
"410 461 LINE",
"410 392 LINE",
"194 288 LINE",
"194 73 LINE",
"302 73 LINE SMOOTH",
"413 73 OFFCURVE",
"479 162 OFFCURVE",
"479 305 CURVE",
"561 305 LINE",
"561 220 OFFCURVE",
"540 144 OFFCURVE",
"497 89 CURVE SMOOTH",
"454 33 OFFCURVE",
"391 0 OFFCURVE",
"307 0 CURVE SMOOTH",
"110 0 LINE"
);
}
);
width = 606;
}
);
unicode = 20BA;
},
{
glyphname = uni20BD;
layers = (
{
layerId = "E47AB2A9-A2CF-4FC9-8B8C-127EA756ED3A";
name = Regular;
paths = (
{
closed = 1;
nodes = (
"194 132 LINE",
"194 0 LINE",
"110 0 LINE",
"110 132 LINE",
"30 132 LINE",
"30 202 LINE",
"110 202 LINE",
"110 299 LINE",
"30 299 LINE",
"30 369 LINE",
"110 369 LINE",
"110 698 LINE",
"388 698 LINE SMOOTH",
"513 698 OFFCURVE",
"583 621 OFFCURVE",
"583 498 CURVE SMOOTH",
"583 375 OFFCURVE",
"513 299 OFFCURVE",
"388 299 CURVE SMOOTH",
"194 299 LINE",
"194 202 LINE",
"469 202 LINE",
"469 132 LINE"
);
},
{
closed = 1;
nodes = (
"194 369 LINE",
"388 369 LINE SMOOTH",
"455 369 OFFCURVE",
"493 405 OFFCURVE",
"493 469 CURVE SMOOTH",
"493 524 LINE SMOOTH",
"493 588 OFFCURVE",
"455 624 OFFCURVE",
"388 624 CURVE SMOOTH",
"194 624 LINE"
);
}
);
width = 623;
}
);
unicode = 20BD;
},
{
glyphname = uni20BF;
layers = (
{
layerId = "E47AB2A9-A2CF-4FC9-8B8C-127EA756ED3A";
name = Regular;
paths = (
{
closed = 1;
nodes = (
"332 21 LINE",
"272 21 LINE",
"272 -82 LINE",
"202 -82 LINE",
"202 21 LINE",
"92 21 LINE",
"92 677 LINE",
"202 677 LINE",
"202 780 LINE",
"272 780 LINE",
"272 677 LINE",
"332 677 LINE",
"332 780 LINE",
"402 780 LINE",
"402 676 LINE",
"498 665 OFFCURVE",
"555 601 OFFCURVE",
"555 508 CURVE SMOOTH",
"555 464 OFFCURVE",
"541 432 OFFCURVE",
"520 409 CURVE SMOOTH",
"499 386 OFFCURVE",
"470 373 OFFCURVE",
"438 368 CURVE",
"438 362 LINE",
"470 357 OFFCURVE",
"506 347 OFFCURVE",
"534 324 CURVE SMOOTH",
"561 301 OFFCURVE",
"580 266 OFFCURVE",
"580 211 CURVE SMOOTH",
"580 156 OFFCURVE",
"561 110 OFFCURVE",
"529 76 CURVE SMOOTH",
"497 42 OFFCURVE",
"453 21 OFFCURVE",
"402 21 CURVE",
"402 -82 LINE",
"332 -82 LINE"
);
},
{
closed = 1;
nodes = (
"175 395 LINE",
"372 395 LINE SMOOTH",
"439 395 OFFCURVE",
"468 425 OFFCURVE",
"468 485 CURVE SMOOTH",
"468 513 LINE SMOOTH",
"468 573 OFFCURVE",
"439 603 OFFCURVE",
"372 603 CURVE SMOOTH",
"175 603 LINE"
);
},
{
closed = 1;
nodes = (
"175 95 LINE",
"376 95 LINE SMOOTH",
"448 95 OFFCURVE",
"493 129 OFFCURVE",
"493 193 CURVE SMOOTH",
"493 225 LINE SMOOTH",
"493 289 OFFCURVE",
"448 323 OFFCURVE",
"376 323 CURVE SMOOTH",
"175 323 LINE"
);
}
);
width = 643;
}
);
unicode = 20BF;
},
{
glyphname = fi;
layers = (
{
layerId = "E47AB2A9-A2CF-4FC9-8B8C-127EA756ED3A";
name = Regular;
paths = (
{
closed = 1;
nodes = (
"113 446 LINE",
"29 446 LINE",
"29 516 LINE",
"113 516 LINE",
"113 620 LINE SMOOTH",
"113 692 OFFCURVE",
"150 740 OFFCURVE",
"226 740 CURVE SMOOTH",
"304 740 LINE",
"304 670 LINE",
"193 670 LINE",
"193 516 LINE",
"482 516 LINE",
"482 0 LINE",
"402 0 LINE",
"402 446 LINE",
"193 446 LINE",
"193 0 LINE",
"113 0 LINE"
);
},
{
closed = 1;
nodes = (
"407 637 OFFCURVE",
"393 655 OFFCURVE",
"393 682 CURVE SMOOTH",
"393 695 LINE SMOOTH",
"393 722 OFFCURVE",
"407 740 OFFCURVE",
"442 740 CURVE SMOOTH",
"477 740 OFFCURVE",
"491 722 OFFCURVE",
"491 695 CURVE SMOOTH",
"491 682 LINE SMOOTH",
"491 655 OFFCURVE",
"477 637 OFFCURVE",
"442 637 CURVE SMOOTH"
);
}
);
width = 567;
}
);
leftKerningGroup = f;
rightKerningGroup = i;
unicode = FB01;
},
{
glyphname = fl;
lastChange = "2018-11-02 14:41:21 +0000";
layers = (
{
layerId = "E47AB2A9-A2CF-4FC9-8B8C-127EA756ED3A";
name = Regular;
paths = (
{
closed = 1;
nodes = (
"113 446 LINE",
"29 446 LINE",
"29 516 LINE",
"113 516 LINE",
"113 620 LINE SMOOTH",
"113 692 OFFCURVE",
"150 740 OFFCURVE",
"226 740 CURVE SMOOTH",
"304 740 LINE",
"304 670 LINE",
"193 670 LINE",
"193 516 LINE",
"304 516 LINE",
"304 446 LINE",
"193 446 LINE",
"193 0 LINE",
"113 0 LINE"
);
},
{
closed = 1;
nodes = (
"494 0 LINE SMOOTH",
"438 0 OFFCURVE",
"409 35 OFFCURVE",
"409 83 CURVE SMOOTH",
"409 740 LINE",
"489 740 LINE",
"489 70 LINE",
"565 70 LINE",
"565 0 LINE"
);
}
);
width = 596;
}
);
leftKerningGroup = f;
rightKerningGroup = l;
unicode = FB02;
},
{
glyphname = aacute;
lastChange = "2018-11-02 01:54:28 +0000";
layers = (
{
layerId = "E47AB2A9-A2CF-4FC9-8B8C-127EA756ED3A";
name = Regular;
paths = (
{
closed = 1;
nodes = (
"260 585 LINE",
"208 609 LINE",
"293 779 LINE",
"366 744 LINE"
);
},
{
closed = 1;
nodes = (
"155 528 OFFCURVE",
"93 483 OFFCURVE",
"65 427 CURVE",
"113 382 LINE",
"141 429 OFFCURVE",
"181 459 OFFCURVE",
"244 459 CURVE SMOOTH",
"327 459 OFFCURVE",
"366 419 OFFCURVE",
"366 346 CURVE SMOOTH",
"366 295 LINE",
"264 295 LINE SMOOTH",
"113 295 OFFCURVE",
"44 241 OFFCURVE",
"44 144 CURVE SMOOTH",
"44 48 OFFCURVE",
"108 -12 OFFCURVE",
"217 -12 CURVE SMOOTH",
"289 -12 OFFCURVE",
"343 20 OFFCURVE",
"366 84 CURVE",
"371 84 LINE",
"371 0 LINE",
"446 0 LINE",
"446 354 LINE SMOOTH",
"446 463 OFFCURVE",
"373 528 OFFCURVE",
"248 528 CURVE SMOOTH"
);
},
{
closed = 1;
nodes = (
"366 123 OFFCURVE",
"352 100 OFFCURVE",
"328 83 CURVE SMOOTH",
"304 66 OFFCURVE",
"270 56 OFFCURVE",
"230 56 CURVE SMOOTH",
"167 56 OFFCURVE",
"128 85 OFFCURVE",
"128 136 CURVE SMOOTH",
"128 157 LINE SMOOTH",
"128 208 OFFCURVE",
"168 235 OFFCURVE",
"260 235 CURVE SMOOTH",
"366 235 LINE",
"366 150 LINE SMOOTH"
);
}
);
width = 526;
}
);
leftKerningGroup = a;
rightKerningGroup = a;
unicode = 00E1;
},
{
glyphname = abreve;
lastChange = "2018-11-02 01:54:36 +0000";
layers = (
{
layerId = "E47AB2A9-A2CF-4FC9-8B8C-127EA756ED3A";
name = Regular;
paths = (
{
closed = 1;
nodes = (
"200 596 OFFCURVE",
"166 614 OFFCURVE",
"144 638 CURVE SMOOTH",
"122 662 OFFCURVE",
"110 693 OFFCURVE",
"101 721 CURVE",
"146 743 LINE",
"167 710 LINE",
"184 681 OFFCURVE",
"202 659 OFFCURVE",
"253 659 CURVE SMOOTH",
"278 659 OFFCURVE",
"296 665 OFFCURVE",
"309 674 CURVE SMOOTH",
"321 682 OFFCURVE",
"330 695 OFFCURVE",
"339 710 CURVE SMOOTH",
"360 743 LINE",
"405 721 LINE",
"396 693 OFFCURVE",
"385 662 OFFCURVE",
"363 638 CURVE SMOOTH",
"341 614 OFFCURVE",
"306 596 OFFCURVE",
"253 596 CURVE SMOOTH"
);
},
{
closed = 1;
nodes = (
"155 528 OFFCURVE",
"93 483 OFFCURVE",
"65 427 CURVE",
"113 382 LINE",
"141 429 OFFCURVE",
"181 459 OFFCURVE",
"244 459 CURVE SMOOTH",
"327 459 OFFCURVE",
"366 419 OFFCURVE",
"366 346 CURVE SMOOTH",
"366 295 LINE",
"264 295 LINE SMOOTH",
"113 295 OFFCURVE",
"44 241 OFFCURVE",
"44 144 CURVE SMOOTH",
"44 48 OFFCURVE",
"108 -12 OFFCURVE",
"217 -12 CURVE SMOOTH",
"289 -12 OFFCURVE",
"343 20 OFFCURVE",
"366 84 CURVE",
"371 84 LINE",
"371 0 LINE",
"446 0 LINE",
"446 354 LINE SMOOTH",
"446 463 OFFCURVE",
"373 528 OFFCURVE",
"248 528 CURVE SMOOTH"
);
},
{
closed = 1;
nodes = (
"366 123 OFFCURVE",
"352 100 OFFCURVE",
"328 83 CURVE SMOOTH",
"304 66 OFFCURVE",
"270 56 OFFCURVE",
"230 56 CURVE SMOOTH",
"167 56 OFFCURVE",
"128 85 OFFCURVE",
"128 136 CURVE SMOOTH",
"128 157 LINE SMOOTH",
"128 208 OFFCURVE",
"168 235 OFFCURVE",
"260 235 CURVE SMOOTH",
"366 235 LINE",
"366 150 LINE SMOOTH"
);
}
);
width = 526;
}
);
leftKerningGroup = a;
rightKerningGroup = a;
unicode = 0103;
},
{
glyphname = acircumflex;
lastChange = "2018-11-02 01:54:45 +0000";
layers = (
{
layerId = "E47AB2A9-A2CF-4FC9-8B8C-127EA756ED3A";
name = Regular;
paths = (
{
closed = 1;
nodes = (
"303 765 LINE",
"414 622 LINE",
"370 591 LINE",
"253 708 LINE",
"136 591 LINE",
"92 622 LINE",
"203 765 LINE"
);
},
{
closed = 1;
nodes = (
"155 528 OFFCURVE",
"93 483 OFFCURVE",
"65 427 CURVE",
"113 382 LINE",
"141 429 OFFCURVE",
"181 459 OFFCURVE",
"244 459 CURVE SMOOTH",
"327 459 OFFCURVE",
"366 419 OFFCURVE",
"366 346 CURVE SMOOTH",
"366 295 LINE",
"264 295 LINE SMOOTH",
"113 295 OFFCURVE",
"44 241 OFFCURVE",
"44 144 CURVE SMOOTH",
"44 48 OFFCURVE",
"108 -12 OFFCURVE",
"217 -12 CURVE SMOOTH",
"289 -12 OFFCURVE",
"343 20 OFFCURVE",
"366 84 CURVE",
"371 84 LINE",
"371 0 LINE",
"446 0 LINE",
"446 354 LINE SMOOTH",
"446 463 OFFCURVE",
"373 528 OFFCURVE",
"248 528 CURVE SMOOTH"
);
},
{
closed = 1;
nodes = (
"366 123 OFFCURVE",
"352 100 OFFCURVE",
"328 83 CURVE SMOOTH",
"304 66 OFFCURVE",
"270 56 OFFCURVE",
"230 56 CURVE SMOOTH",
"167 56 OFFCURVE",
"128 85 OFFCURVE",
"128 136 CURVE SMOOTH",
"128 157 LINE SMOOTH",
"128 208 OFFCURVE",
"168 235 OFFCURVE",
"260 235 CURVE SMOOTH",
"366 235 LINE",
"366 150 LINE SMOOTH"
);
}
);
width = 526;
}
);
leftKerningGroup = a;
rightKerningGroup = a;
unicode = 00E2;
},
{
glyphname = adieresis;
lastChange = "2018-11-02 01:54:54 +0000";
layers = (
{
layerId = "E47AB2A9-A2CF-4FC9-8B8C-127EA756ED3A";
name = Regular;
paths = (
{
closed = 1;
nodes = (
"125 618 OFFCURVE",
"111 636 OFFCURVE",
"111 664 CURVE SMOOTH",
"111 675 LINE SMOOTH",
"111 703 OFFCURVE",
"125 721 OFFCURVE",
"160 721 CURVE SMOOTH",
"195 721 OFFCURVE",
"209 703 OFFCURVE",
"209 675 CURVE SMOOTH",
"209 664 LINE SMOOTH",
"209 636 OFFCURVE",
"195 618 OFFCURVE",
"160 618 CURVE SMOOTH"
);
},
{
closed = 1;
nodes = (
"311 618 OFFCURVE",
"297 636 OFFCURVE",
"297 664 CURVE SMOOTH",
"297 675 LINE SMOOTH",
"297 703 OFFCURVE",
"311 721 OFFCURVE",
"346 721 CURVE SMOOTH",
"381 721 OFFCURVE",
"395 703 OFFCURVE",
"395 675 CURVE SMOOTH",
"395 664 LINE SMOOTH",
"395 636 OFFCURVE",
"381 618 OFFCURVE",
"346 618 CURVE SMOOTH"
);
},
{
closed = 1;
nodes = (
"155 528 OFFCURVE",
"93 483 OFFCURVE",
"65 427 CURVE",
"113 382 LINE",
"141 429 OFFCURVE",
"181 459 OFFCURVE",
"244 459 CURVE SMOOTH",
"327 459 OFFCURVE",
"366 419 OFFCURVE",
"366 346 CURVE SMOOTH",
"366 295 LINE",
"264 295 LINE SMOOTH",
"113 295 OFFCURVE",
"44 241 OFFCURVE",
"44 144 CURVE SMOOTH",
"44 48 OFFCURVE",
"108 -12 OFFCURVE",
"217 -12 CURVE SMOOTH",
"289 -12 OFFCURVE",
"343 20 OFFCURVE",
"366 84 CURVE",
"371 84 LINE",
"371 0 LINE",
"446 0 LINE",
"446 354 LINE SMOOTH",
"446 463 OFFCURVE",
"373 528 OFFCURVE",
"248 528 CURVE SMOOTH"
);
},
{
closed = 1;
nodes = (
"366 123 OFFCURVE",
"352 100 OFFCURVE",
"328 83 CURVE SMOOTH",
"304 66 OFFCURVE",
"270 56 OFFCURVE",
"230 56 CURVE SMOOTH",
"167 56 OFFCURVE",
"128 85 OFFCURVE",
"128 136 CURVE SMOOTH",
"128 157 LINE SMOOTH",
"128 208 OFFCURVE",
"168 235 OFFCURVE",
"260 235 CURVE SMOOTH",
"366 235 LINE",
"366 150 LINE SMOOTH"
);
}
);
width = 526;
}
);
leftKerningGroup = a;
rightKerningGroup = a;
unicode = 00E4;
},
{
glyphname = uni1EA1;
lastChange = "2018-11-02 01:55:03 +0000";
layers = (
{
layerId = "E47AB2A9-A2CF-4FC9-8B8C-127EA756ED3A";
name = Regular;
paths = (
{
closed = 1;
nodes = (
"210 -169 OFFCURVE",
"194 -151 OFFCURVE",
"194 -123 CURVE SMOOTH",
"194 -112 LINE SMOOTH",
"194 -84 OFFCURVE",
"210 -66 OFFCURVE",
"245 -66 CURVE SMOOTH",
"280 -66 OFFCURVE",
"296 -84 OFFCURVE",
"296 -112 CURVE SMOOTH",
"296 -123 LINE SMOOTH",
"296 -151 OFFCURVE",
"280 -169 OFFCURVE",
"245 -169 CURVE SMOOTH"
);
},
{
closed = 1;
nodes = (
"155 528 OFFCURVE",
"93 483 OFFCURVE",
"65 427 CURVE",
"113 382 LINE",
"141 429 OFFCURVE",
"181 459 OFFCURVE",
"244 459 CURVE SMOOTH",
"327 459 OFFCURVE",
"366 419 OFFCURVE",
"366 346 CURVE SMOOTH",
"366 295 LINE",
"264 295 LINE SMOOTH",
"113 295 OFFCURVE",
"44 241 OFFCURVE",
"44 144 CURVE SMOOTH",
"44 48 OFFCURVE",
"108 -12 OFFCURVE",
"217 -12 CURVE SMOOTH",
"289 -12 OFFCURVE",
"343 20 OFFCURVE",
"366 84 CURVE",
"371 84 LINE",
"371 0 LINE",
"446 0 LINE",
"446 354 LINE SMOOTH",
"446 463 OFFCURVE",
"373 528 OFFCURVE",
"248 528 CURVE SMOOTH"
);
},
{
closed = 1;
nodes = (
"366 123 OFFCURVE",
"352 100 OFFCURVE",
"328 83 CURVE SMOOTH",
"304 66 OFFCURVE",
"270 56 OFFCURVE",
"230 56 CURVE SMOOTH",
"167 56 OFFCURVE",
"128 85 OFFCURVE",
"128 136 CURVE SMOOTH",
"128 157 LINE SMOOTH",
"128 208 OFFCURVE",
"168 235 OFFCURVE",
"260 235 CURVE SMOOTH",
"366 235 LINE",
"366 150 LINE SMOOTH"
);
}
);
width = 526;
}
);
leftKerningGroup = a;
rightKerningGroup = a;
unicode = 1EA1;
},
{
glyphname = agrave;
lastChange = "2018-11-02 01:55:11 +0000";
layers = (
{
layerId = "E47AB2A9-A2CF-4FC9-8B8C-127EA756ED3A";
name = Regular;
paths = (
{
closed = 1;
nodes = (
"140 744 LINE",
"213 779 LINE",
"298 609 LINE",
"246 585 LINE"
);
},
{
closed = 1;
nodes = (
"155 528 OFFCURVE",
"93 483 OFFCURVE",
"65 427 CURVE",
"113 382 LINE",
"141 429 OFFCURVE",
"181 459 OFFCURVE",
"244 459 CURVE SMOOTH",
"327 459 OFFCURVE",
"366 419 OFFCURVE",
"366 346 CURVE SMOOTH",
"366 295 LINE",
"264 295 LINE SMOOTH",
"113 295 OFFCURVE",
"44 241 OFFCURVE",
"44 144 CURVE SMOOTH",
"44 48 OFFCURVE",
"108 -12 OFFCURVE",
"217 -12 CURVE SMOOTH",
"289 -12 OFFCURVE",
"343 20 OFFCURVE",
"366 84 CURVE",
"371 84 LINE",
"371 0 LINE",
"446 0 LINE",
"446 354 LINE SMOOTH",
"446 463 OFFCURVE",
"373 528 OFFCURVE",
"248 528 CURVE SMOOTH"
);
},
{
closed = 1;
nodes = (
"366 123 OFFCURVE",
"352 100 OFFCURVE",
"328 83 CURVE SMOOTH",
"304 66 OFFCURVE",
"270 56 OFFCURVE",
"230 56 CURVE SMOOTH",
"167 56 OFFCURVE",
"128 85 OFFCURVE",
"128 136 CURVE SMOOTH",
"128 157 LINE SMOOTH",
"128 208 OFFCURVE",
"168 235 OFFCURVE",
"260 235 CURVE SMOOTH",
"366 235 LINE",
"366 150 LINE SMOOTH"
);
}
);
width = 526;
}
);
leftKerningGroup = a;
rightKerningGroup = a;
unicode = 00E0;
},
{
glyphname = uni1EA3;
lastChange = "2018-11-02 01:55:24 +0000";
layers = (
{
layerId = "E47AB2A9-A2CF-4FC9-8B8C-127EA756ED3A";
name = Regular;
paths = (
{
closed = 1;
nodes = (
"168 765 LINE",
"277 765 LINE SMOOTH",
"328 765 OFFCURVE",
"347 741 OFFCURVE",
"347 710 CURVE SMOOTH",
"347 681 OFFCURVE",
"329 646 OFFCURVE",
"298 607 CURVE SMOOTH",
"274 577 LINE",
"228 600 LINE",
"286 704 LINE",
"168 704 LINE"
);
},
{
closed = 1;
nodes = (
"155 528 OFFCURVE",
"93 483 OFFCURVE",
"65 427 CURVE",
"113 382 LINE",
"141 429 OFFCURVE",
"181 459 OFFCURVE",
"244 459 CURVE SMOOTH",
"327 459 OFFCURVE",
"366 419 OFFCURVE",
"366 346 CURVE SMOOTH",
"366 295 LINE",
"264 295 LINE SMOOTH",
"113 295 OFFCURVE",
"44 241 OFFCURVE",
"44 144 CURVE SMOOTH",
"44 48 OFFCURVE",
"108 -12 OFFCURVE",
"217 -12 CURVE SMOOTH",
"289 -12 OFFCURVE",
"343 20 OFFCURVE",
"366 84 CURVE",
"371 84 LINE",
"371 0 LINE",
"446 0 LINE",
"446 354 LINE SMOOTH",
"446 463 OFFCURVE",
"373 528 OFFCURVE",
"248 528 CURVE SMOOTH"
);
},
{
closed = 1;
nodes = (
"366 123 OFFCURVE",
"352 100 OFFCURVE",
"328 83 CURVE SMOOTH",
"304 66 OFFCURVE",
"270 56 OFFCURVE",
"230 56 CURVE SMOOTH",
"167 56 OFFCURVE",
"128 85 OFFCURVE",
"128 136 CURVE SMOOTH",
"128 157 LINE SMOOTH",
"128 208 OFFCURVE",
"168 235 OFFCURVE",
"260 235 CURVE SMOOTH",
"366 235 LINE",
"366 150 LINE SMOOTH"
);
}
);
width = 526;
}
);
leftKerningGroup = a;
rightKerningGroup = a;
unicode = 1EA3;
},
{
glyphname = amacron;
lastChange = "2018-11-02 01:57:20 +0000";
layers = (
{
layerId = "E47AB2A9-A2CF-4FC9-8B8C-127EA756ED3A";
name = Regular;
paths = (
{
closed = 1;
nodes = (
"113 705 LINE",
"393 705 LINE",
"393 637 LINE",
"113 637 LINE"
);
},
{
closed = 1;
nodes = (
"155 528 OFFCURVE",
"93 483 OFFCURVE",
"65 427 CURVE",
"113 382 LINE",
"141 429 OFFCURVE",
"181 459 OFFCURVE",
"244 459 CURVE SMOOTH",
"327 459 OFFCURVE",
"366 419 OFFCURVE",
"366 346 CURVE SMOOTH",
"366 295 LINE",
"264 295 LINE SMOOTH",
"113 295 OFFCURVE",
"44 241 OFFCURVE",
"44 144 CURVE SMOOTH",
"44 48 OFFCURVE",
"108 -12 OFFCURVE",
"217 -12 CURVE SMOOTH",
"289 -12 OFFCURVE",
"343 20 OFFCURVE",
"366 84 CURVE",
"371 84 LINE",
"371 0 LINE",
"446 0 LINE",
"446 354 LINE SMOOTH",
"446 463 OFFCURVE",
"373 528 OFFCURVE",
"248 528 CURVE SMOOTH"
);
},
{
closed = 1;
nodes = (
"366 123 OFFCURVE",
"352 100 OFFCURVE",
"328 83 CURVE SMOOTH",
"304 66 OFFCURVE",
"270 56 OFFCURVE",
"230 56 CURVE SMOOTH",
"167 56 OFFCURVE",
"128 85 OFFCURVE",
"128 136 CURVE SMOOTH",
"128 157 LINE SMOOTH",
"128 208 OFFCURVE",
"168 235 OFFCURVE",
"260 235 CURVE SMOOTH",
"366 235 LINE",
"366 150 LINE SMOOTH"
);
}
);
width = 526;
}
);
leftKerningGroup = a;
rightKerningGroup = a;
unicode = 0101;
},
{
glyphname = aogonek;
lastChange = "2018-11-02 02:33:07 +0000";
layers = (
{
layerId = "E47AB2A9-A2CF-4FC9-8B8C-127EA756ED3A";
name = Regular;
paths = (
{
closed = 1;
nodes = (
"414 -145 OFFCURVE",
"398 -153 OFFCURVE",
"379 -153 CURVE SMOOTH",
"360 -153 OFFCURVE",
"348 -146 OFFCURVE",
"348 -123 CURVE SMOOTH",
"348 -112 OFFCURVE",
"352 -100 OFFCURVE",
"366 -82 CURVE SMOOTH",
"380 -64 OFFCURVE",
"403 -39 OFFCURVE",
"446 0 CURVE",
"446 354 LINE SMOOTH",
"446 463 OFFCURVE",
"373 528 OFFCURVE",
"248 528 CURVE SMOOTH",
"155 528 OFFCURVE",
"93 483 OFFCURVE",
"65 427 CURVE",
"113 382 LINE",
"141 429 OFFCURVE",
"181 459 OFFCURVE",
"244 459 CURVE SMOOTH",
"327 459 OFFCURVE",
"366 419 OFFCURVE",
"366 346 CURVE SMOOTH",
"366 295 LINE",
"264 295 LINE SMOOTH",
"113 295 OFFCURVE",
"44 241 OFFCURVE",
"44 144 CURVE SMOOTH",
"44 48 OFFCURVE",
"108 -12 OFFCURVE",
"217 -12 CURVE SMOOTH",
"289 -12 OFFCURVE",
"343 20 OFFCURVE",
"366 84 CURVE",
"371 84 LINE",
"371 0 LINE",
"384 0 LINE",
"386 -4 LINE",
"359 -24 OFFCURVE",
"334 -43 OFFCURVE",
"315 -63 CURVE SMOOTH",
"296 -83 OFFCURVE",
"284 -106 OFFCURVE",
"284 -131 CURVE SMOOTH",
"284 -184 OFFCURVE",
"327 -207 OFFCURVE",
"379 -207 CURVE SMOOTH",
"426 -207 OFFCURVE",
"455 -189 OFFCURVE",
"467 -168 CURVE",
"427 -129 LINE"
);
},
{
closed = 1;
nodes = (
"366 123 OFFCURVE",
"352 100 OFFCURVE",
"328 83 CURVE SMOOTH",
"304 66 OFFCURVE",
"270 56 OFFCURVE",
"230 56 CURVE SMOOTH",
"167 56 OFFCURVE",
"128 85 OFFCURVE",
"128 136 CURVE SMOOTH",
"128 157 LINE SMOOTH",
"128 208 OFFCURVE",
"168 235 OFFCURVE",
"260 235 CURVE SMOOTH",
"366 235 LINE",
"366 150 LINE SMOOTH"
);
}
);
width = 526;
}
);
leftKerningGroup = a;
rightKerningGroup = a;
unicode = 0105;
},
{
glyphname = aring;
lastChange = "2018-11-02 01:57:26 +0000";
layers = (
{
layerId = "E47AB2A9-A2CF-4FC9-8B8C-127EA756ED3A";
name = Regular;
paths = (
{
closed = 1;
nodes = (
"221 576 OFFCURVE",
"191 588 OFFCURVE",
"171 609 CURVE",
"150 629 OFFCURVE",
"137 658 OFFCURVE",
"137 691 CURVE SMOOTH",
"137 724 OFFCURVE",
"150 753 OFFCURVE",
"171 774 CURVE SMOOTH",
"191 794 OFFCURVE",
"221 806 OFFCURVE",
"253 806 CURVE SMOOTH",
"285 806 OFFCURVE",
"315 794 OFFCURVE",
"336 774 CURVE",
"356 753 OFFCURVE",
"369 724 OFFCURVE",
"369 691 CURVE SMOOTH",
"369 658 OFFCURVE",
"356 629 OFFCURVE",
"336 609 CURVE SMOOTH",
"315 588 OFFCURVE",
"285 576 OFFCURVE",
"253 576 CURVE SMOOTH"
);
},
{
closed = 1;
nodes = (
"289 625 OFFCURVE",
"311 645 OFFCURVE",
"311 680 CURVE SMOOTH",
"311 702 LINE SMOOTH",
"311 737 OFFCURVE",
"289 757 OFFCURVE",
"253 757 CURVE SMOOTH",
"217 757 OFFCURVE",
"195 737 OFFCURVE",
"195 702 CURVE SMOOTH",
"195 680 LINE SMOOTH",
"195 645 OFFCURVE",
"217 625 OFFCURVE",
"253 625 CURVE SMOOTH"
);
},
{
closed = 1;
nodes = (
"155 528 OFFCURVE",
"93 483 OFFCURVE",
"65 427 CURVE",
"113 382 LINE",
"141 429 OFFCURVE",
"181 459 OFFCURVE",
"244 459 CURVE SMOOTH",
"327 459 OFFCURVE",
"366 419 OFFCURVE",
"366 346 CURVE SMOOTH",
"366 295 LINE",
"264 295 LINE SMOOTH",
"113 295 OFFCURVE",
"44 241 OFFCURVE",
"44 144 CURVE SMOOTH",
"44 48 OFFCURVE",
"108 -12 OFFCURVE",
"217 -12 CURVE SMOOTH",
"289 -12 OFFCURVE",
"343 20 OFFCURVE",
"366 84 CURVE",
"371 84 LINE",
"371 0 LINE",
"446 0 LINE",
"446 354 LINE SMOOTH",
"446 463 OFFCURVE",
"373 528 OFFCURVE",
"248 528 CURVE SMOOTH"
);
},
{
closed = 1;
nodes = (
"366 123 OFFCURVE",
"352 100 OFFCURVE",
"328 83 CURVE SMOOTH",
"304 66 OFFCURVE",
"270 56 OFFCURVE",
"230 56 CURVE SMOOTH",
"167 56 OFFCURVE",
"128 85 OFFCURVE",
"128 136 CURVE SMOOTH",
"128 157 LINE SMOOTH",
"128 208 OFFCURVE",
"168 235 OFFCURVE",
"260 235 CURVE SMOOTH",
"366 235 LINE",
"366 150 LINE SMOOTH"
);
}
);
width = 526;
}
);
leftKerningGroup = a;
rightKerningGroup = a;
unicode = 00E5;
},
{
glyphname = aringacute;
lastChange = "2018-11-02 01:57:27 +0000";
layers = (
{
layerId = "E47AB2A9-A2CF-4FC9-8B8C-127EA756ED3A";
name = Regular;
paths = (
{
closed = 1;
nodes = (
"264 814 LINE",
"223 840 LINE",
"298 956 LINE",
"358 919 LINE"
);
},
{
closed = 1;
nodes = (
"221 566 OFFCURVE",
"191 578 OFFCURVE",
"171 599 CURVE",
"150 619 OFFCURVE",
"137 648 OFFCURVE",
"137 681 CURVE SMOOTH",
"137 714 OFFCURVE",
"150 743 OFFCURVE",
"171 764 CURVE SMOOTH",
"191 784 OFFCURVE",
"221 796 OFFCURVE",
"253 796 CURVE SMOOTH",
"285 796 OFFCURVE",
"315 784 OFFCURVE",
"336 764 CURVE",
"356 743 OFFCURVE",
"369 714 OFFCURVE",
"369 681 CURVE SMOOTH",
"369 648 OFFCURVE",
"356 619 OFFCURVE",
"336 599 CURVE SMOOTH",
"315 578 OFFCURVE",
"285 566 OFFCURVE",
"253 566 CURVE SMOOTH"
);
},
{
closed = 1;
nodes = (
"289 615 OFFCURVE",
"311 635 OFFCURVE",
"311 670 CURVE SMOOTH",
"311 692 LINE SMOOTH",
"311 727 OFFCURVE",
"289 747 OFFCURVE",
"253 747 CURVE SMOOTH",
"217 747 OFFCURVE",
"195 727 OFFCURVE",
"195 692 CURVE SMOOTH",
"195 670 LINE SMOOTH",
"195 635 OFFCURVE",
"217 615 OFFCURVE",
"253 615 CURVE SMOOTH"
);
},
{
closed = 1;
nodes = (
"155 528 OFFCURVE",
"93 483 OFFCURVE",
"65 427 CURVE",
"113 382 LINE",
"141 429 OFFCURVE",
"181 459 OFFCURVE",
"244 459 CURVE SMOOTH",
"327 459 OFFCURVE",
"366 419 OFFCURVE",
"366 346 CURVE SMOOTH",
"366 295 LINE",
"264 295 LINE SMOOTH",
"113 295 OFFCURVE",
"44 241 OFFCURVE",
"44 144 CURVE SMOOTH",
"44 48 OFFCURVE",
"108 -12 OFFCURVE",
"217 -12 CURVE SMOOTH",
"289 -12 OFFCURVE",
"343 20 OFFCURVE",
"366 84 CURVE",
"371 84 LINE",
"371 0 LINE",
"446 0 LINE",
"446 354 LINE SMOOTH",
"446 463 OFFCURVE",
"373 528 OFFCURVE",
"248 528 CURVE SMOOTH"
);
},
{
closed = 1;
nodes = (
"366 123 OFFCURVE",
"352 100 OFFCURVE",
"328 83 CURVE SMOOTH",
"304 66 OFFCURVE",
"270 56 OFFCURVE",
"230 56 CURVE SMOOTH",
"167 56 OFFCURVE",
"128 85 OFFCURVE",
"128 136 CURVE SMOOTH",
"128 157 LINE SMOOTH",
"128 208 OFFCURVE",
"168 235 OFFCURVE",
"260 235 CURVE SMOOTH",
"366 235 LINE",
"366 150 LINE SMOOTH"
);
}
);
width = 526;
}
);
leftKerningGroup = a;
rightKerningGroup = a;
unicode = 01FB;
},
{
glyphname = atilde;
lastChange = "2018-11-02 01:57:28 +0000";
layers = (
{
layerId = "E47AB2A9-A2CF-4FC9-8B8C-127EA756ED3A";
name = Regular;
paths = (
{
closed = 1;
nodes = (
"291 612 OFFCURVE",
"267 627 OFFCURVE",
"246 638 CURVE SMOOTH",
"214 655 OFFCURVE",
"193 662 OFFCURVE",
"176 662 CURVE SMOOTH",
"153 662 OFFCURVE",
"138 652 OFFCURVE",
"118 635 CURVE",
"85 675 LINE",
"104 702 OFFCURVE",
"133 728 OFFCURVE",
"180 728 CURVE SMOOTH",
"215 728 OFFCURVE",
"239 713 OFFCURVE",
"260 702 CURVE SMOOTH",
"292 685 OFFCURVE",
"313 678 OFFCURVE",
"330 678 CURVE SMOOTH",
"353 678 OFFCURVE",
"368 688 OFFCURVE",
"388 705 CURVE",
"421 665 LINE",
"402 638 OFFCURVE",
"373 612 OFFCURVE",
"326 612 CURVE SMOOTH"
);
},
{
closed = 1;
nodes = (
"155 528 OFFCURVE",
"93 483 OFFCURVE",
"65 427 CURVE",
"113 382 LINE",
"141 429 OFFCURVE",
"181 459 OFFCURVE",
"244 459 CURVE SMOOTH",
"327 459 OFFCURVE",
"366 419 OFFCURVE",
"366 346 CURVE SMOOTH",
"366 295 LINE",
"264 295 LINE SMOOTH",
"113 295 OFFCURVE",
"44 241 OFFCURVE",
"44 144 CURVE SMOOTH",
"44 48 OFFCURVE",
"108 -12 OFFCURVE",
"217 -12 CURVE SMOOTH",
"289 -12 OFFCURVE",
"343 20 OFFCURVE",
"366 84 CURVE",
"371 84 LINE",
"371 0 LINE",
"446 0 LINE",
"446 354 LINE SMOOTH",
"446 463 OFFCURVE",
"373 528 OFFCURVE",
"248 528 CURVE SMOOTH"
);
},
{
closed = 1;
nodes = (
"366 123 OFFCURVE",
"352 100 OFFCURVE",
"328 83 CURVE SMOOTH",
"304 66 OFFCURVE",
"270 56 OFFCURVE",
"230 56 CURVE SMOOTH",
"167 56 OFFCURVE",
"128 85 OFFCURVE",
"128 136 CURVE SMOOTH",
"128 157 LINE SMOOTH",
"128 208 OFFCURVE",
"168 235 OFFCURVE",
"260 235 CURVE SMOOTH",
"366 235 LINE",
"366 150 LINE SMOOTH"
);
}
);
width = 526;
}
);
leftKerningGroup = a;
rightKerningGroup = a;
unicode = 00E3;
},
{
glyphname = uni1EAF;
lastChange = "2018-11-02 01:57:28 +0000";
layers = (
{
layerId = "E47AB2A9-A2CF-4FC9-8B8C-127EA756ED3A";
name = Regular;
paths = (
{
closed = 1;
nodes = (
"199 585 OFFCURVE",
"165 603 OFFCURVE",
"142 628 CURVE",
"118 652 OFFCURVE",
"107 683 OFFCURVE",
"98 711 CURVE",
"143 733 LINE",
"164 700 LINE",
"181 671 OFFCURVE",
"201 644 OFFCURVE",
"252 644 CURVE SMOOTH",
"277 644 OFFCURVE",
"295 650 OFFCURVE",
"308 661 CURVE SMOOTH",
"321 672 OFFCURVE",
"331 685 OFFCURVE",
"340 700 CURVE SMOOTH",
"361 733 LINE",
"406 711 LINE",
"397 683 OFFCURVE",
"386 652 OFFCURVE",
"363 628 CURVE SMOOTH",
"339 603 OFFCURVE",
"305 585 OFFCURVE",
"252 585 CURVE SMOOTH"
);
},
{
closed = 1;
nodes = (
"256 698 LINE",
"207 721 LINE",
"292 891 LINE",
"362 857 LINE"
);
},
{
closed = 1;
nodes = (
"155 528 OFFCURVE",
"93 483 OFFCURVE",
"65 427 CURVE",
"113 382 LINE",
"141 429 OFFCURVE",
"181 459 OFFCURVE",
"244 459 CURVE SMOOTH",
"327 459 OFFCURVE",
"366 419 OFFCURVE",
"366 346 CURVE SMOOTH",
"366 295 LINE",
"264 295 LINE SMOOTH",
"113 295 OFFCURVE",
"44 241 OFFCURVE",
"44 144 CURVE SMOOTH",
"44 48 OFFCURVE",
"108 -12 OFFCURVE",
"217 -12 CURVE SMOOTH",
"289 -12 OFFCURVE",
"343 20 OFFCURVE",
"366 84 CURVE",
"371 84 LINE",
"371 0 LINE",
"446 0 LINE",
"446 354 LINE SMOOTH",
"446 463 OFFCURVE",
"373 528 OFFCURVE",
"248 528 CURVE SMOOTH"
);
},
{
closed = 1;
nodes = (
"366 123 OFFCURVE",
"352 100 OFFCURVE",
"328 83 CURVE SMOOTH",
"304 66 OFFCURVE",
"270 56 OFFCURVE",
"230 56 CURVE SMOOTH",
"167 56 OFFCURVE",
"128 85 OFFCURVE",
"128 136 CURVE SMOOTH",
"128 157 LINE SMOOTH",
"128 208 OFFCURVE",
"168 235 OFFCURVE",
"260 235 CURVE SMOOTH",
"366 235 LINE",
"366 150 LINE SMOOTH"
);
}
);
width = 526;
}
);
leftKerningGroup = a;
rightKerningGroup = a;
unicode = 1EAF;
},
{
glyphname = uni1EB7;
lastChange = "2018-11-02 01:57:29 +0000";
layers = (
{
layerId = "E47AB2A9-A2CF-4FC9-8B8C-127EA756ED3A";
name = Regular;
paths = (
{
closed = 1;
nodes = (
"200 596 OFFCURVE",
"166 614 OFFCURVE",
"144 638 CURVE SMOOTH",
"122 662 OFFCURVE",
"110 693 OFFCURVE",
"101 721 CURVE",
"146 743 LINE",
"167 710 LINE",
"184 681 OFFCURVE",
"202 659 OFFCURVE",
"253 659 CURVE SMOOTH",
"278 659 OFFCURVE",
"296 665 OFFCURVE",
"309 674 CURVE SMOOTH",
"321 682 OFFCURVE",
"330 695 OFFCURVE",
"339 710 CURVE SMOOTH",
"360 743 LINE",
"405 721 LINE",
"396 693 OFFCURVE",
"385 662 OFFCURVE",
"363 638 CURVE SMOOTH",
"341 614 OFFCURVE",
"306 596 OFFCURVE",
"253 596 CURVE SMOOTH"
);
},
{
closed = 1;
nodes = (
"210 -169 OFFCURVE",
"194 -151 OFFCURVE",
"194 -123 CURVE SMOOTH",
"194 -112 LINE SMOOTH",
"194 -84 OFFCURVE",
"210 -66 OFFCURVE",
"245 -66 CURVE SMOOTH",
"280 -66 OFFCURVE",
"296 -84 OFFCURVE",
"296 -112 CURVE SMOOTH",
"296 -123 LINE SMOOTH",
"296 -151 OFFCURVE",
"280 -169 OFFCURVE",
"245 -169 CURVE SMOOTH"
);
},
{
closed = 1;
nodes = (
"155 528 OFFCURVE",
"93 483 OFFCURVE",
"65 427 CURVE",
"113 382 LINE",
"141 429 OFFCURVE",
"181 459 OFFCURVE",
"244 459 CURVE SMOOTH",
"327 459 OFFCURVE",
"366 419 OFFCURVE",
"366 346 CURVE SMOOTH",
"366 295 LINE",
"264 295 LINE SMOOTH",
"113 295 OFFCURVE",
"44 241 OFFCURVE",
"44 144 CURVE SMOOTH",
"44 48 OFFCURVE",
"108 -12 OFFCURVE",
"217 -12 CURVE SMOOTH",
"289 -12 OFFCURVE",
"343 20 OFFCURVE",
"366 84 CURVE",
"371 84 LINE",
"371 0 LINE",
"446 0 LINE",
"446 354 LINE SMOOTH",
"446 463 OFFCURVE",
"373 528 OFFCURVE",
"248 528 CURVE SMOOTH"
);
},
{
closed = 1;
nodes = (
"366 123 OFFCURVE",
"352 100 OFFCURVE",
"328 83 CURVE SMOOTH",
"304 66 OFFCURVE",
"270 56 OFFCURVE",
"230 56 CURVE SMOOTH",
"167 56 OFFCURVE",
"128 85 OFFCURVE",
"128 136 CURVE SMOOTH",
"128 157 LINE SMOOTH",
"128 208 OFFCURVE",
"168 235 OFFCURVE",
"260 235 CURVE SMOOTH",
"366 235 LINE",
"366 150 LINE SMOOTH"
);
}
);
width = 526;
}
);
leftKerningGroup = a;
rightKerningGroup = a;
unicode = 1EB7;
},
{
glyphname = uni1EB1;
lastChange = "2018-11-02 01:57:29 +0000";
layers = (
{
layerId = "E47AB2A9-A2CF-4FC9-8B8C-127EA756ED3A";
name = Regular;
paths = (
{
closed = 1;
nodes = (
"199 585 OFFCURVE",
"165 603 OFFCURVE",
"142 628 CURVE",
"118 652 OFFCURVE",
"107 683 OFFCURVE",
"98 711 CURVE",
"143 733 LINE",
"164 700 LINE",
"181 671 OFFCURVE",
"201 644 OFFCURVE",
"252 644 CURVE SMOOTH",
"277 644 OFFCURVE",
"295 650 OFFCURVE",
"308 661 CURVE SMOOTH",
"321 672 OFFCURVE",
"331 685 OFFCURVE",
"340 700 CURVE SMOOTH",
"361 733 LINE",
"406 711 LINE",
"397 683 OFFCURVE",
"386 652 OFFCURVE",
"363 628 CURVE SMOOTH",
"339 603 OFFCURVE",
"305 585 OFFCURVE",
"252 585 CURVE SMOOTH"
);
},
{
closed = 1;
nodes = (
"142 857 LINE",
"212 891 LINE",
"297 721 LINE",
"248 698 LINE"
);
},
{
closed = 1;
nodes = (
"155 528 OFFCURVE",
"93 483 OFFCURVE",
"65 427 CURVE",
"113 382 LINE",
"141 429 OFFCURVE",
"181 459 OFFCURVE",
"244 459 CURVE SMOOTH",
"327 459 OFFCURVE",
"366 419 OFFCURVE",
"366 346 CURVE SMOOTH",
"366 295 LINE",
"264 295 LINE SMOOTH",
"113 295 OFFCURVE",
"44 241 OFFCURVE",
"44 144 CURVE SMOOTH",
"44 48 OFFCURVE",
"108 -12 OFFCURVE",
"217 -12 CURVE SMOOTH",
"289 -12 OFFCURVE",
"343 20 OFFCURVE",
"366 84 CURVE",
"371 84 LINE",
"371 0 LINE",
"446 0 LINE",
"446 354 LINE SMOOTH",
"446 463 OFFCURVE",
"373 528 OFFCURVE",
"248 528 CURVE SMOOTH"
);
},
{
closed = 1;
nodes = (
"366 123 OFFCURVE",
"352 100 OFFCURVE",
"328 83 CURVE SMOOTH",
"304 66 OFFCURVE",
"270 56 OFFCURVE",
"230 56 CURVE SMOOTH",
"167 56 OFFCURVE",
"128 85 OFFCURVE",
"128 136 CURVE SMOOTH",
"128 157 LINE SMOOTH",
"128 208 OFFCURVE",
"168 235 OFFCURVE",
"260 235 CURVE SMOOTH",
"366 235 LINE",
"366 150 LINE SMOOTH"
);
}
);
width = 526;
}
);
leftKerningGroup = a;
rightKerningGroup = a;
unicode = 1EB1;
},
{
glyphname = uni1EB3;
lastChange = "2018-11-02 01:57:30 +0000";
layers = (
{
layerId = "E47AB2A9-A2CF-4FC9-8B8C-127EA756ED3A";
name = Regular;
paths = (
{
closed = 1;
nodes = (
"199 585 OFFCURVE",
"165 603 OFFCURVE",
"142 628 CURVE",
"118 652 OFFCURVE",
"107 683 OFFCURVE",
"98 711 CURVE",
"143 733 LINE",
"164 700 LINE",
"181 671 OFFCURVE",
"201 644 OFFCURVE",
"252 644 CURVE SMOOTH",
"277 644 OFFCURVE",
"295 650 OFFCURVE",
"308 661 CURVE SMOOTH",
"321 672 OFFCURVE",
"331 685 OFFCURVE",
"340 700 CURVE SMOOTH",
"361 733 LINE",
"406 711 LINE",
"397 683 OFFCURVE",
"386 652 OFFCURVE",
"363 628 CURVE SMOOTH",
"339 603 OFFCURVE",
"305 585 OFFCURVE",
"252 585 CURVE SMOOTH"
);
},
{
closed = 1;
nodes = (
"163 880 LINE",
"257 880 LINE SMOOTH",
"308 880 OFFCURVE",
"327 856 OFFCURVE",
"327 825 CURVE SMOOTH",
"327 796 OFFCURVE",
"309 761 OFFCURVE",
"278 722 CURVE SMOOTH",
"254 692 LINE",
"210 715 LINE",
"270 822 LINE",
"163 822 LINE"
);
},
{
closed = 1;
nodes = (
"155 528 OFFCURVE",
"93 483 OFFCURVE",
"65 427 CURVE",
"113 382 LINE",
"141 429 OFFCURVE",
"181 459 OFFCURVE",
"244 459 CURVE SMOOTH",
"327 459 OFFCURVE",
"366 419 OFFCURVE",
"366 346 CURVE SMOOTH",
"366 295 LINE",
"264 295 LINE SMOOTH",
"113 295 OFFCURVE",
"44 241 OFFCURVE",
"44 144 CURVE SMOOTH",
"44 48 OFFCURVE",
"108 -12 OFFCURVE",
"217 -12 CURVE SMOOTH",
"289 -12 OFFCURVE",
"343 20 OFFCURVE",
"366 84 CURVE",
"371 84 LINE",
"371 0 LINE",
"446 0 LINE",
"446 354 LINE SMOOTH",
"446 463 OFFCURVE",
"373 528 OFFCURVE",
"248 528 CURVE SMOOTH"
);
},
{
closed = 1;
nodes = (
"366 123 OFFCURVE",
"352 100 OFFCURVE",
"328 83 CURVE SMOOTH",
"304 66 OFFCURVE",
"270 56 OFFCURVE",
"230 56 CURVE SMOOTH",
"167 56 OFFCURVE",
"128 85 OFFCURVE",
"128 136 CURVE SMOOTH",
"128 157 LINE SMOOTH",
"128 208 OFFCURVE",
"168 235 OFFCURVE",
"260 235 CURVE SMOOTH",
"366 235 LINE",
"366 150 LINE SMOOTH"
);
}
);
width = 526;
}
);
leftKerningGroup = a;
rightKerningGroup = a;
unicode = 1EB3;
},
{
glyphname = uni1EB5;
lastChange = "2018-11-02 01:57:31 +0000";
layers = (
{
layerId = "E47AB2A9-A2CF-4FC9-8B8C-127EA756ED3A";
name = Regular;
paths = (
{
closed = 1;
nodes = (
"199 585 OFFCURVE",
"165 603 OFFCURVE",
"142 628 CURVE",
"118 652 OFFCURVE",
"107 683 OFFCURVE",
"98 711 CURVE",
"143 733 LINE",
"164 700 LINE",
"181 671 OFFCURVE",
"201 644 OFFCURVE",
"252 644 CURVE SMOOTH",
"277 644 OFFCURVE",
"295 650 OFFCURVE",
"308 661 CURVE SMOOTH",
"321 672 OFFCURVE",
"331 685 OFFCURVE",
"340 700 CURVE SMOOTH",
"361 733 LINE",
"406 711 LINE",
"397 683 OFFCURVE",
"386 652 OFFCURVE",
"363 628 CURVE SMOOTH",
"339 603 OFFCURVE",
"305 585 OFFCURVE",
"252 585 CURVE SMOOTH"
);
},
{
closed = 1;
nodes = (
"289 772 OFFCURVE",
"265 787 OFFCURVE",
"244 798 CURVE SMOOTH",
"212 815 OFFCURVE",
"191 822 OFFCURVE",
"174 822 CURVE SMOOTH",
"151 822 OFFCURVE",
"136 812 OFFCURVE",
"116 795 CURVE",
"85 831 LINE",
"104 858 OFFCURVE",
"133 884 OFFCURVE",
"180 884 CURVE SMOOTH",
"215 884 OFFCURVE",
"239 869 OFFCURVE",
"260 858 CURVE SMOOTH",
"292 841 OFFCURVE",
"313 834 OFFCURVE",
"330 834 CURVE SMOOTH",
"353 834 OFFCURVE",
"368 844 OFFCURVE",
"388 861 CURVE",
"419 825 LINE",
"400 798 OFFCURVE",
"371 772 OFFCURVE",
"324 772 CURVE SMOOTH"
);
},
{
closed = 1;
nodes = (
"155 528 OFFCURVE",
"93 483 OFFCURVE",
"65 427 CURVE",
"113 382 LINE",
"141 429 OFFCURVE",
"181 459 OFFCURVE",
"244 459 CURVE SMOOTH",
"327 459 OFFCURVE",
"366 419 OFFCURVE",
"366 346 CURVE SMOOTH",
"366 295 LINE",
"264 295 LINE SMOOTH",
"113 295 OFFCURVE",
"44 241 OFFCURVE",
"44 144 CURVE SMOOTH",
"44 48 OFFCURVE",
"108 -12 OFFCURVE",
"217 -12 CURVE SMOOTH",
"289 -12 OFFCURVE",
"343 20 OFFCURVE",
"366 84 CURVE",
"371 84 LINE",
"371 0 LINE",
"446 0 LINE",
"446 354 LINE SMOOTH",
"446 463 OFFCURVE",
"373 528 OFFCURVE",
"248 528 CURVE SMOOTH"
);
},
{
closed = 1;
nodes = (
"366 123 OFFCURVE",
"352 100 OFFCURVE",
"328 83 CURVE SMOOTH",
"304 66 OFFCURVE",
"270 56 OFFCURVE",
"230 56 CURVE SMOOTH",
"167 56 OFFCURVE",
"128 85 OFFCURVE",
"128 136 CURVE SMOOTH",
"128 157 LINE SMOOTH",
"128 208 OFFCURVE",
"168 235 OFFCURVE",
"260 235 CURVE SMOOTH",
"366 235 LINE",
"366 150 LINE SMOOTH"
);
}
);
width = 526;
}
);
leftKerningGroup = a;
rightKerningGroup = a;
unicode = 1EB5;
},
{
glyphname = uni1EA5;
lastChange = "2018-11-02 01:57:32 +0000";
layers = (
{
layerId = "E47AB2A9-A2CF-4FC9-8B8C-127EA756ED3A";
name = Regular;
paths = (
{
closed = 1;
nodes = (
"406 698 LINE",
"357 721 LINE",
"442 891 LINE",
"512 857 LINE"
);
},
{
closed = 1;
nodes = (
"302 745 LINE",
"412 611 LINE",
"371 581 LINE",
"252 693 LINE",
"133 581 LINE",
"92 611 LINE",
"202 745 LINE"
);
},
{
closed = 1;
nodes = (
"155 528 OFFCURVE",
"93 483 OFFCURVE",
"65 427 CURVE",
"113 382 LINE",
"141 429 OFFCURVE",
"181 459 OFFCURVE",
"244 459 CURVE SMOOTH",
"327 459 OFFCURVE",
"366 419 OFFCURVE",
"366 346 CURVE SMOOTH",
"366 295 LINE",
"264 295 LINE SMOOTH",
"113 295 OFFCURVE",
"44 241 OFFCURVE",
"44 144 CURVE SMOOTH",
"44 48 OFFCURVE",
"108 -12 OFFCURVE",
"217 -12 CURVE SMOOTH",
"289 -12 OFFCURVE",
"343 20 OFFCURVE",
"366 84 CURVE",
"371 84 LINE",
"371 0 LINE",
"446 0 LINE",
"446 354 LINE SMOOTH",
"446 463 OFFCURVE",
"373 528 OFFCURVE",
"248 528 CURVE SMOOTH"
);
},
{
closed = 1;
nodes = (
"366 123 OFFCURVE",
"352 100 OFFCURVE",
"328 83 CURVE SMOOTH",
"304 66 OFFCURVE",
"270 56 OFFCURVE",
"230 56 CURVE SMOOTH",
"167 56 OFFCURVE",
"128 85 OFFCURVE",
"128 136 CURVE SMOOTH",
"128 157 LINE SMOOTH",
"128 208 OFFCURVE",
"168 235 OFFCURVE",
"260 235 CURVE SMOOTH",
"366 235 LINE",
"366 150 LINE SMOOTH"
);
}
);
width = 526;
}
);
leftKerningGroup = a;
rightKerningGroup = a;
unicode = 1EA5;
},
{
glyphname = uni1EAD;
lastChange = "2018-11-02 01:57:32 +0000";
layers = (
{
layerId = "E47AB2A9-A2CF-4FC9-8B8C-127EA756ED3A";
name = Regular;
paths = (
{
closed = 1;
nodes = (
"303 765 LINE",
"414 622 LINE",
"370 591 LINE",
"253 708 LINE",
"136 591 LINE",
"92 622 LINE",
"203 765 LINE"
);
},
{
closed = 1;
nodes = (
"210 -169 OFFCURVE",
"194 -151 OFFCURVE",
"194 -123 CURVE SMOOTH",
"194 -112 LINE SMOOTH",
"194 -84 OFFCURVE",
"210 -66 OFFCURVE",
"245 -66 CURVE SMOOTH",
"280 -66 OFFCURVE",
"296 -84 OFFCURVE",
"296 -112 CURVE SMOOTH",
"296 -123 LINE SMOOTH",
"296 -151 OFFCURVE",
"280 -169 OFFCURVE",
"245 -169 CURVE SMOOTH"
);
},
{
closed = 1;
nodes = (
"155 528 OFFCURVE",
"93 483 OFFCURVE",
"65 427 CURVE",
"113 382 LINE",
"141 429 OFFCURVE",
"181 459 OFFCURVE",
"244 459 CURVE SMOOTH",
"327 459 OFFCURVE",
"366 419 OFFCURVE",
"366 346 CURVE SMOOTH",
"366 295 LINE",
"264 295 LINE SMOOTH",
"113 295 OFFCURVE",
"44 241 OFFCURVE",
"44 144 CURVE SMOOTH",
"44 48 OFFCURVE",
"108 -12 OFFCURVE",
"217 -12 CURVE SMOOTH",
"289 -12 OFFCURVE",
"343 20 OFFCURVE",
"366 84 CURVE",
"371 84 LINE",
"371 0 LINE",
"446 0 LINE",
"446 354 LINE SMOOTH",
"446 463 OFFCURVE",
"373 528 OFFCURVE",
"248 528 CURVE SMOOTH"
);
},
{
closed = 1;
nodes = (
"366 123 OFFCURVE",
"352 100 OFFCURVE",
"328 83 CURVE SMOOTH",
"304 66 OFFCURVE",
"270 56 OFFCURVE",
"230 56 CURVE SMOOTH",
"167 56 OFFCURVE",
"128 85 OFFCURVE",
"128 136 CURVE SMOOTH",
"128 157 LINE SMOOTH",
"128 208 OFFCURVE",
"168 235 OFFCURVE",
"260 235 CURVE SMOOTH",
"366 235 LINE",
"366 150 LINE SMOOTH"
);
}
);
width = 526;
}
);
leftKerningGroup = a;
rightKerningGroup = a;
unicode = 1EAD;
},
{
glyphname = uni1EA7;
lastChange = "2018-11-02 01:57:33 +0000";
layers = (
{
layerId = "E47AB2A9-A2CF-4FC9-8B8C-127EA756ED3A";
name = Regular;
paths = (
{
closed = 1;
nodes = (
"-8 857 LINE",
"62 891 LINE",
"147 721 LINE",
"98 698 LINE"
);
},
{
closed = 1;
nodes = (
"302 745 LINE",
"412 611 LINE",
"371 581 LINE",
"252 693 LINE",
"133 581 LINE",
"92 611 LINE",
"202 745 LINE"
);
},
{
closed = 1;
nodes = (
"155 528 OFFCURVE",
"93 483 OFFCURVE",
"65 427 CURVE",
"113 382 LINE",
"141 429 OFFCURVE",
"181 459 OFFCURVE",
"244 459 CURVE SMOOTH",
"327 459 OFFCURVE",
"366 419 OFFCURVE",
"366 346 CURVE SMOOTH",
"366 295 LINE",
"264 295 LINE SMOOTH",
"113 295 OFFCURVE",
"44 241 OFFCURVE",
"44 144 CURVE SMOOTH",
"44 48 OFFCURVE",
"108 -12 OFFCURVE",
"217 -12 CURVE SMOOTH",
"289 -12 OFFCURVE",
"343 20 OFFCURVE",
"366 84 CURVE",
"371 84 LINE",
"371 0 LINE",
"446 0 LINE",
"446 354 LINE SMOOTH",
"446 463 OFFCURVE",
"373 528 OFFCURVE",
"248 528 CURVE SMOOTH"
);
},
{
closed = 1;
nodes = (
"366 123 OFFCURVE",
"352 100 OFFCURVE",
"328 83 CURVE SMOOTH",
"304 66 OFFCURVE",
"270 56 OFFCURVE",
"230 56 CURVE SMOOTH",
"167 56 OFFCURVE",
"128 85 OFFCURVE",
"128 136 CURVE SMOOTH",
"128 157 LINE SMOOTH",
"128 208 OFFCURVE",
"168 235 OFFCURVE",
"260 235 CURVE SMOOTH",
"366 235 LINE",
"366 150 LINE SMOOTH"
);
}
);
width = 526;
}
);
leftKerningGroup = a;
rightKerningGroup = a;
unicode = 1EA7;
},
{
glyphname = uni1EA9;
lastChange = "2018-11-02 01:57:34 +0000";
layers = (
{
layerId = "E47AB2A9-A2CF-4FC9-8B8C-127EA756ED3A";
name = Regular;
paths = (
{
closed = 1;
nodes = (
"302 880 LINE",
"411 880 LINE SMOOTH",
"462 880 OFFCURVE",
"481 856 OFFCURVE",
"481 825 CURVE SMOOTH",
"481 796 OFFCURVE",
"463 761 OFFCURVE",
"432 722 CURVE SMOOTH",
"408 692 LINE",
"364 715 LINE",
"424 822 LINE",
"302 822 LINE"
);
},
{
closed = 1;
nodes = (
"302 745 LINE",
"412 611 LINE",
"371 581 LINE",
"252 693 LINE",
"133 581 LINE",
"92 611 LINE",
"202 745 LINE"
);
},
{
closed = 1;
nodes = (
"155 528 OFFCURVE",
"93 483 OFFCURVE",
"65 427 CURVE",
"113 382 LINE",
"141 429 OFFCURVE",
"181 459 OFFCURVE",
"244 459 CURVE SMOOTH",
"327 459 OFFCURVE",
"366 419 OFFCURVE",
"366 346 CURVE SMOOTH",
"366 295 LINE",
"264 295 LINE SMOOTH",
"113 295 OFFCURVE",
"44 241 OFFCURVE",
"44 144 CURVE SMOOTH",
"44 48 OFFCURVE",
"108 -12 OFFCURVE",
"217 -12 CURVE SMOOTH",
"289 -12 OFFCURVE",
"343 20 OFFCURVE",
"366 84 CURVE",
"371 84 LINE",
"371 0 LINE",
"446 0 LINE",
"446 354 LINE SMOOTH",
"446 463 OFFCURVE",
"373 528 OFFCURVE",
"248 528 CURVE SMOOTH"
);
},
{
closed = 1;
nodes = (
"366 123 OFFCURVE",
"352 100 OFFCURVE",
"328 83 CURVE SMOOTH",
"304 66 OFFCURVE",
"270 56 OFFCURVE",
"230 56 CURVE SMOOTH",
"167 56 OFFCURVE",
"128 85 OFFCURVE",
"128 136 CURVE SMOOTH",
"128 157 LINE SMOOTH",
"128 208 OFFCURVE",
"168 235 OFFCURVE",
"260 235 CURVE SMOOTH",
"366 235 LINE",
"366 150 LINE SMOOTH"
);
}
);
width = 526;
}
);
leftKerningGroup = a;
rightKerningGroup = a;
unicode = 1EA9;
},
{
glyphname = uni1EAB;
lastChange = "2018-11-02 01:57:35 +0000";
layers = (
{
layerId = "E47AB2A9-A2CF-4FC9-8B8C-127EA756ED3A";
name = Regular;
paths = (
{
closed = 1;
nodes = (
"215 884 OFFCURVE",
"239 869 OFFCURVE",
"260 858 CURVE SMOOTH",
"292 841 OFFCURVE",
"313 834 OFFCURVE",
"330 834 CURVE SMOOTH",
"353 834 OFFCURVE",
"368 844 OFFCURVE",
"388 861 CURVE",
"419 825 LINE",
"400 798 OFFCURVE",
"371 772 OFFCURVE",
"324 772 CURVE SMOOTH",
"289 772 OFFCURVE",
"265 787 OFFCURVE",
"244 798 CURVE SMOOTH",
"212 815 OFFCURVE",
"191 822 OFFCURVE",
"174 822 CURVE SMOOTH",
"151 822 OFFCURVE",
"136 812 OFFCURVE",
"116 795 CURVE",
"85 831 LINE",
"104 858 OFFCURVE",
"133 884 OFFCURVE",
"180 884 CURVE SMOOTH"
);
},
{
closed = 1;
nodes = (
"302 745 LINE",
"412 611 LINE",
"371 581 LINE",
"252 693 LINE",
"133 581 LINE",
"92 611 LINE",
"202 745 LINE"
);
},
{
closed = 1;
nodes = (
"155 528 OFFCURVE",
"93 483 OFFCURVE",
"65 427 CURVE",
"113 382 LINE",
"141 429 OFFCURVE",
"181 459 OFFCURVE",
"244 459 CURVE SMOOTH",
"327 459 OFFCURVE",
"366 419 OFFCURVE",
"366 346 CURVE SMOOTH",
"366 295 LINE",
"264 295 LINE SMOOTH",
"113 295 OFFCURVE",
"44 241 OFFCURVE",
"44 144 CURVE SMOOTH",
"44 48 OFFCURVE",
"108 -12 OFFCURVE",
"217 -12 CURVE SMOOTH",
"289 -12 OFFCURVE",
"343 20 OFFCURVE",
"366 84 CURVE",
"371 84 LINE",
"371 0 LINE",
"446 0 LINE",
"446 354 LINE SMOOTH",
"446 463 OFFCURVE",
"373 528 OFFCURVE",
"248 528 CURVE SMOOTH"
);
},
{
closed = 1;
nodes = (
"366 123 OFFCURVE",
"352 100 OFFCURVE",
"328 83 CURVE SMOOTH",
"304 66 OFFCURVE",
"270 56 OFFCURVE",
"230 56 CURVE SMOOTH",
"167 56 OFFCURVE",
"128 85 OFFCURVE",
"128 136 CURVE SMOOTH",
"128 157 LINE SMOOTH",
"128 208 OFFCURVE",
"168 235 OFFCURVE",
"260 235 CURVE SMOOTH",
"366 235 LINE",
"366 150 LINE SMOOTH"
);
}
);
width = 526;
}
);
leftKerningGroup = a;
rightKerningGroup = a;
unicode = 1EAB;
},
{
glyphname = ae;
layers = (
{
layerId = "E47AB2A9-A2CF-4FC9-8B8C-127EA756ED3A";
name = Regular;
paths = (
{
closed = 1;
nodes = (
"260 238 LINE SMOOTH",
"168 235 OFFCURVE",
"128 208 OFFCURVE",
"128 157 CURVE SMOOTH",
"128 136 LINE SMOOTH",
"128 85 OFFCURVE",
"167 56 OFFCURVE",
"231 56 CURVE SMOOTH",
"270 56 OFFCURVE",
"303 66 OFFCURVE",
"327 83 CURVE SMOOTH",
"351 100 OFFCURVE",
"366 123 OFFCURVE",
"366 150 CURVE SMOOTH",
"366 238 LINE"
);
},
{
closed = 1;
nodes = (
"731 298 LINE",
"731 309 LINE SMOOTH",
"731 401 OFFCURVE",
"677 461 OFFCURVE",
"594 461 CURVE SMOOTH",
"550 461 OFFCURVE",
"514 445 OFFCURVE",
"488 417 CURVE SMOOTH",
"462 389 OFFCURVE",
"446 350 OFFCURVE",
"446 305 CURVE SMOOTH",
"446 298 LINE"
);
},
{
closed = 1;
nodes = (
"665 58 OFFCURVE",
"712 87 OFFCURVE",
"741 146 CURVE",
"798 106 LINE",
"765 34 OFFCURVE",
"692 -12 OFFCURVE",
"603 -12 CURVE SMOOTH",
"548 -12 OFFCURVE",
"503 5 OFFCURVE",
"471 29 CURVE SMOOTH",
"438 52 OFFCURVE",
"417 81 OFFCURVE",
"412 104 CURVE",
"406 104 LINE",
"402 81 OFFCURVE",
"382 53 OFFCURVE",
"350 30 CURVE SMOOTH",
"318 6 OFFCURVE",
"272 -12 OFFCURVE",
"215 -12 CURVE SMOOTH",
"111 -12 OFFCURVE",
"44 47 OFFCURVE",
"44 142 CURVE SMOOTH",
"44 242 OFFCURVE",
"117 298 OFFCURVE",
"264 298 CURVE SMOOTH",
"366 298 LINE",
"366 346 LINE SMOOTH",
"366 419 OFFCURVE",
"326 459 OFFCURVE",
"247 459 CURVE SMOOTH",
"180 459 OFFCURVE",
"142 431 OFFCURVE",
"113 383 CURVE",
"65 427 LINE",
"92 482 OFFCURVE",
"154 528 OFFCURVE",
"249 528 CURVE SMOOTH",
"308 528 OFFCURVE",
"346 509 OFFCURVE",
"371 486 CURVE",
"395 462 OFFCURVE",
"406 433 OFFCURVE",
"411 413 CURVE",
"417 413 LINE",
"422 436 OFFCURVE",
"443 464 OFFCURVE",
"475 488 CURVE SMOOTH",
"507 511 OFFCURVE",
"551 528 OFFCURVE",
"603 528 CURVE SMOOTH",
"668 528 OFFCURVE",
"722 501 OFFCURVE",
"759 457 CURVE SMOOTH",
"796 412 OFFCURVE",
"817 349 OFFCURVE",
"817 276 CURVE SMOOTH",
"817 238 LINE",
"446 238 LINE",
"446 214 LINE SMOOTH",
"446 170 OFFCURVE",
"461 131 OFFCURVE",
"487 103 CURVE SMOOTH",
"513 75 OFFCURVE",
"551 58 OFFCURVE",
"599 58 CURVE SMOOTH"
);
}
);
width = 864;
}
);
leftKerningGroup = a;
rightKerningGroup = e;
unicode = 00E6;
},
{
glyphname = aeacute;
layers = (
{
layerId = "E47AB2A9-A2CF-4FC9-8B8C-127EA756ED3A";
name = Regular;
paths = (
{
closed = 1;
nodes = (
"260 238 LINE SMOOTH",
"168 235 OFFCURVE",
"128 208 OFFCURVE",
"128 157 CURVE SMOOTH",
"128 136 LINE SMOOTH",
"128 85 OFFCURVE",
"167 56 OFFCURVE",
"231 56 CURVE SMOOTH",
"270 56 OFFCURVE",
"303 66 OFFCURVE",
"327 83 CURVE SMOOTH",
"351 100 OFFCURVE",
"366 123 OFFCURVE",
"366 150 CURVE SMOOTH",
"366 238 LINE"
);
},
{
closed = 1;
nodes = (
"731 298 LINE",
"731 309 LINE SMOOTH",
"731 401 OFFCURVE",
"677 461 OFFCURVE",
"594 461 CURVE SMOOTH",
"550 461 OFFCURVE",
"514 445 OFFCURVE",
"488 417 CURVE SMOOTH",
"462 389 OFFCURVE",
"446 350 OFFCURVE",
"446 305 CURVE SMOOTH",
"446 298 LINE"
);
},
{
closed = 1;
nodes = (
"665 58 OFFCURVE",
"712 87 OFFCURVE",
"741 146 CURVE",
"798 106 LINE",
"765 34 OFFCURVE",
"692 -12 OFFCURVE",
"603 -12 CURVE SMOOTH",
"548 -12 OFFCURVE",
"503 5 OFFCURVE",
"471 29 CURVE SMOOTH",
"438 52 OFFCURVE",
"417 81 OFFCURVE",
"412 104 CURVE",
"406 104 LINE",
"402 81 OFFCURVE",
"382 53 OFFCURVE",
"350 30 CURVE SMOOTH",
"318 6 OFFCURVE",
"272 -12 OFFCURVE",
"215 -12 CURVE SMOOTH",
"111 -12 OFFCURVE",
"44 47 OFFCURVE",
"44 142 CURVE SMOOTH",
"44 242 OFFCURVE",
"117 298 OFFCURVE",
"264 298 CURVE SMOOTH",
"366 298 LINE",
"366 346 LINE SMOOTH",
"366 419 OFFCURVE",
"326 459 OFFCURVE",
"247 459 CURVE SMOOTH",
"180 459 OFFCURVE",
"142 431 OFFCURVE",
"113 383 CURVE",
"65 427 LINE",
"92 482 OFFCURVE",
"154 528 OFFCURVE",
"249 528 CURVE SMOOTH",
"308 528 OFFCURVE",
"346 509 OFFCURVE",
"371 486 CURVE",
"395 462 OFFCURVE",
"406 433 OFFCURVE",
"411 413 CURVE",
"417 413 LINE",
"422 436 OFFCURVE",
"443 464 OFFCURVE",
"475 488 CURVE SMOOTH",
"507 511 OFFCURVE",
"551 528 OFFCURVE",
"603 528 CURVE SMOOTH",
"668 528 OFFCURVE",
"722 501 OFFCURVE",
"759 457 CURVE SMOOTH",
"796 412 OFFCURVE",
"817 349 OFFCURVE",
"817 276 CURVE SMOOTH",
"817 238 LINE",
"446 238 LINE",
"446 214 LINE SMOOTH",
"446 170 OFFCURVE",
"461 131 OFFCURVE",
"487 103 CURVE SMOOTH",
"513 75 OFFCURVE",
"551 58 OFFCURVE",
"599 58 CURVE SMOOTH"
);
},
{
closed = 1;
nodes = (
"421 585 LINE",
"369 609 LINE",
"454 779 LINE",
"527 744 LINE"
);
}
);
width = 864;
}
);
leftKerningGroup = a;
rightKerningGroup = e;
unicode = 01FD;
},
{
glyphname = cacute;
layers = (
{
layerId = "E47AB2A9-A2CF-4FC9-8B8C-127EA756ED3A";
name = Regular;
paths = (
{
closed = 1;
nodes = (
"205 -12 OFFCURVE",
"147 14 OFFCURVE",
"108 61 CURVE SMOOTH",
"68 108 OFFCURVE",
"47 175 OFFCURVE",
"47 258 CURVE SMOOTH",
"47 341 OFFCURVE",
"68 408 OFFCURVE",
"108 455 CURVE SMOOTH",
"147 502 OFFCURVE",
"205 528 OFFCURVE",
"277 528 CURVE SMOOTH",
"380 528 OFFCURVE",
"439 479 OFFCURVE",
"470 407 CURVE",
"403 373 LINE",
"384 426 OFFCURVE",
"341 457 OFFCURVE",
"277 457 CURVE SMOOTH",
"229 457 OFFCURVE",
"193 441 OFFCURVE",
"169 414 CURVE SMOOTH",
"145 386 OFFCURVE",
"133 347 OFFCURVE",
"133 302 CURVE SMOOTH",
"133 214 LINE SMOOTH",
"133 123 OFFCURVE",
"182 59 OFFCURVE",
"277 59 CURVE SMOOTH",
"342 59 OFFCURVE",
"388 89 OFFCURVE",
"417 149 CURVE",
"475 110 LINE",
"442 35 OFFCURVE",
"376 -12 OFFCURVE",
"277 -12 CURVE SMOOTH"
);
},
{
closed = 1;
nodes = (
"284 585 LINE",
"232 609 LINE",
"317 779 LINE",
"390 744 LINE"
);
}
);
width = 503;
}
);
leftKerningGroup = c;
rightKerningGroup = c;
unicode = 0107;
},
{
glyphname = ccaron;
layers = (
{
layerId = "E47AB2A9-A2CF-4FC9-8B8C-127EA756ED3A";
name = Regular;
paths = (
{
closed = 1;
nodes = (
"205 -12 OFFCURVE",
"147 14 OFFCURVE",
"108 61 CURVE SMOOTH",
"68 108 OFFCURVE",
"47 175 OFFCURVE",
"47 258 CURVE SMOOTH",
"47 341 OFFCURVE",
"68 408 OFFCURVE",
"108 455 CURVE SMOOTH",
"147 502 OFFCURVE",
"205 528 OFFCURVE",
"277 528 CURVE SMOOTH",
"380 528 OFFCURVE",
"439 479 OFFCURVE",
"470 407 CURVE",
"403 373 LINE",
"384 426 OFFCURVE",
"341 457 OFFCURVE",
"277 457 CURVE SMOOTH",
"229 457 OFFCURVE",
"193 441 OFFCURVE",
"169 414 CURVE SMOOTH",
"145 386 OFFCURVE",
"133 347 OFFCURVE",
"133 302 CURVE SMOOTH",
"133 214 LINE SMOOTH",
"133 123 OFFCURVE",
"182 59 OFFCURVE",
"277 59 CURVE SMOOTH",
"342 59 OFFCURVE",
"388 89 OFFCURVE",
"417 149 CURVE",
"475 110 LINE",
"442 35 OFFCURVE",
"376 -12 OFFCURVE",
"277 -12 CURVE SMOOTH"
);
},
{
closed = 1;
nodes = (
"227 599 LINE",
"116 742 LINE",
"160 773 LINE",
"277 656 LINE",
"394 773 LINE",
"438 742 LINE",
"327 599 LINE"
);
}
);
width = 503;
}
);
leftKerningGroup = c;
rightKerningGroup = c;
unicode = 010D;
},
{
glyphname = ccedilla;
layers = (
{
layerId = "E47AB2A9-A2CF-4FC9-8B8C-127EA756ED3A";
name = Regular;
paths = (
{
closed = 1;
nodes = (
"380 528 OFFCURVE",
"439 479 OFFCURVE",
"470 408 CURVE",
"403 373 LINE",
"384 426 OFFCURVE",
"341 457 OFFCURVE",
"277 457 CURVE SMOOTH",
"229 457 OFFCURVE",
"193 441 OFFCURVE",
"169 414 CURVE SMOOTH",
"145 386 OFFCURVE",
"133 347 OFFCURVE",
"133 302 CURVE SMOOTH",
"133 214 LINE SMOOTH",
"133 123 OFFCURVE",
"182 59 OFFCURVE",
"277 59 CURVE SMOOTH",
"342 59 OFFCURVE",
"388 89 OFFCURVE",
"417 149 CURVE",
"475 110 LINE",
"444 42 OFFCURVE",
"386 -4 OFFCURVE",
"299 -11 CURVE",
"289 -61 LINE",
"292 -64 LINE",
"305 -60 OFFCURVE",
"318 -58 OFFCURVE",
"331 -58 CURVE SMOOTH",
"370 -58 OFFCURVE",
"399 -81 OFFCURVE",
"399 -124 CURVE SMOOTH",
"399 -152 OFFCURVE",
"386 -174 OFFCURVE",
"366 -187 CURVE SMOOTH",
"345 -200 OFFCURVE",
"317 -207 OFFCURVE",
"288 -207 CURVE SMOOTH",
"233 -207 OFFCURVE",
"204 -185 OFFCURVE",
"189 -166 CURVE",
"227 -125 LINE",
"239 -140 OFFCURVE",
"259 -153 OFFCURVE",
"288 -153 CURVE SMOOTH",
"313 -153 OFFCURVE",
"332 -143 OFFCURVE",
"332 -122 CURVE SMOOTH",
"332 -113 OFFCURVE",
"328 -104 OFFCURVE",
"319 -97 CURVE SMOOTH",
"310 -90 OFFCURVE",
"292 -85 OFFCURVE",
"264 -81 CURVE SMOOTH",
"236 -77 LINE",
"249 -11 LINE",
"120 2 OFFCURVE",
"47 105 OFFCURVE",
"47 258 CURVE SMOOTH",
"47 341 OFFCURVE",
"68 408 OFFCURVE",
"108 455 CURVE SMOOTH",
"147 502 OFFCURVE",
"205 528 OFFCURVE",
"277 528 CURVE SMOOTH"
);
}
);
width = 503;
}
);
leftKerningGroup = c;
rightKerningGroup = c;
unicode = 00E7;
},
{
glyphname = ccircumflex;
layers = (
{
layerId = "E47AB2A9-A2CF-4FC9-8B8C-127EA756ED3A";
name = Regular;
paths = (
{
closed = 1;
nodes = (
"205 -12 OFFCURVE",
"147 14 OFFCURVE",
"108 61 CURVE SMOOTH",
"68 108 OFFCURVE",
"47 175 OFFCURVE",
"47 258 CURVE SMOOTH",
"47 341 OFFCURVE",
"68 408 OFFCURVE",
"108 455 CURVE SMOOTH",
"147 502 OFFCURVE",
"205 528 OFFCURVE",
"277 528 CURVE SMOOTH",
"380 528 OFFCURVE",
"439 479 OFFCURVE",
"470 407 CURVE",
"403 373 LINE",
"384 426 OFFCURVE",
"341 457 OFFCURVE",
"277 457 CURVE SMOOTH",
"229 457 OFFCURVE",
"193 441 OFFCURVE",
"169 414 CURVE SMOOTH",
"145 386 OFFCURVE",
"133 347 OFFCURVE",
"133 302 CURVE SMOOTH",
"133 214 LINE SMOOTH",
"133 123 OFFCURVE",
"182 59 OFFCURVE",
"277 59 CURVE SMOOTH",
"342 59 OFFCURVE",
"388 89 OFFCURVE",
"417 149 CURVE",
"475 110 LINE",
"442 35 OFFCURVE",
"376 -12 OFFCURVE",
"277 -12 CURVE SMOOTH"
);
},
{
closed = 1;
nodes = (
"327 765 LINE",
"438 622 LINE",
"394 591 LINE",
"277 708 LINE",
"160 591 LINE",
"116 622 LINE",
"227 765 LINE"
);
}
);
width = 503;
}
);
leftKerningGroup = c;
rightKerningGroup = c;
unicode = 0109;
},
{
glyphname = cdotaccent;
layers = (
{
layerId = "E47AB2A9-A2CF-4FC9-8B8C-127EA756ED3A";
name = Regular;
paths = (
{
closed = 1;
nodes = (
"205 -12 OFFCURVE",
"147 14 OFFCURVE",
"108 61 CURVE SMOOTH",
"68 108 OFFCURVE",
"47 175 OFFCURVE",
"47 258 CURVE SMOOTH",
"47 341 OFFCURVE",
"68 408 OFFCURVE",
"108 455 CURVE SMOOTH",
"147 502 OFFCURVE",
"205 528 OFFCURVE",
"277 528 CURVE SMOOTH",
"380 528 OFFCURVE",
"439 479 OFFCURVE",
"470 407 CURVE",
"403 373 LINE",
"384 426 OFFCURVE",
"341 457 OFFCURVE",
"277 457 CURVE SMOOTH",
"229 457 OFFCURVE",
"193 441 OFFCURVE",
"169 414 CURVE SMOOTH",
"145 386 OFFCURVE",
"133 347 OFFCURVE",
"133 302 CURVE SMOOTH",
"133 214 LINE SMOOTH",
"133 123 OFFCURVE",
"182 59 OFFCURVE",
"277 59 CURVE SMOOTH",
"342 59 OFFCURVE",
"388 89 OFFCURVE",
"417 149 CURVE",
"475 110 LINE",
"442 35 OFFCURVE",
"376 -12 OFFCURVE",
"277 -12 CURVE SMOOTH"
);
},
{
closed = 1;
nodes = (
"242 616 OFFCURVE",
"226 634 OFFCURVE",
"226 662 CURVE SMOOTH",
"226 673 LINE SMOOTH",
"226 701 OFFCURVE",
"242 719 OFFCURVE",
"277 719 CURVE SMOOTH",
"312 719 OFFCURVE",
"328 701 OFFCURVE",
"328 673 CURVE SMOOTH",
"328 662 LINE SMOOTH",
"328 634 OFFCURVE",
"312 616 OFFCURVE",
"277 616 CURVE SMOOTH"
);
}
);
width = 503;
}
);
leftKerningGroup = c;
rightKerningGroup = c;
unicode = 010B;
},
{
glyphname = dcaron;
layers = (
{
layerId = "E47AB2A9-A2CF-4FC9-8B8C-127EA756ED3A";
name = Regular;
paths = (
{
closed = 1;
nodes = (
"604 555 LINE",
"551 555 LINE",
"563 740 LINE",
"656 740 LINE"
);
},
{
closed = 1;
nodes = (
"415 84 LINE",
"411 84 LINE",
"380 20 OFFCURVE",
"329 -12 OFFCURVE",
"260 -12 CURVE SMOOTH",
"196 -12 OFFCURVE",
"143 14 OFFCURVE",
"107 61 CURVE SMOOTH",
"70 108 OFFCURVE",
"50 175 OFFCURVE",
"50 258 CURVE SMOOTH",
"50 341 OFFCURVE",
"70 408 OFFCURVE",
"107 455 CURVE SMOOTH",
"143 502 OFFCURVE",
"196 528 OFFCURVE",
"260 528 CURVE SMOOTH",
"332 528 OFFCURVE",
"384 497 OFFCURVE",
"411 432 CURVE",
"415 432 LINE",
"415 740 LINE",
"495 740 LINE",
"495 0 LINE",
"415 0 LINE"
);
},
{
closed = 1;
nodes = (
"318 60 OFFCURVE",
"352 70 OFFCURVE",
"376 88 CURVE SMOOTH",
"400 106 OFFCURVE",
"415 132 OFFCURVE",
"415 165 CURVE SMOOTH",
"415 357 LINE SMOOTH",
"415 385 OFFCURVE",
"400 411 OFFCURVE",
"376 428 CURVE SMOOTH",
"352 445 OFFCURVE",
"318 456 OFFCURVE",
"282 456 CURVE SMOOTH",
"191 456 OFFCURVE",
"136 394 OFFCURVE",
"136 302 CURVE SMOOTH",
"136 214 LINE SMOOTH",
"136 122 OFFCURVE",
"191 60 OFFCURVE",
"282 60 CURVE SMOOTH"
);
}
);
width = 603;
}
);
leftKerningGroup = d;
rightKerningGroup = dcaron;
unicode = 010F;
},
{
glyphname = dcroat;
layers = (
{
layerId = "E47AB2A9-A2CF-4FC9-8B8C-127EA756ED3A";
name = Regular;
paths = (
{
closed = 1;
nodes = (
"415 84 LINE",
"411 84 LINE",
"380 20 OFFCURVE",
"329 -12 OFFCURVE",
"260 -12 CURVE SMOOTH",
"196 -12 OFFCURVE",
"143 14 OFFCURVE",
"107 61 CURVE SMOOTH",
"70 108 OFFCURVE",
"50 175 OFFCURVE",
"50 258 CURVE SMOOTH",
"50 341 OFFCURVE",
"70 408 OFFCURVE",
"107 455 CURVE SMOOTH",
"143 502 OFFCURVE",
"196 528 OFFCURVE",
"260 528 CURVE SMOOTH",
"332 528 OFFCURVE",
"384 497 OFFCURVE",
"411 432 CURVE",
"415 432 LINE",
"415 608 LINE",
"265 608 LINE",
"265 670 LINE",
"415 670 LINE",
"415 740 LINE",
"495 740 LINE",
"495 670 LINE",
"559 670 LINE",
"559 608 LINE",
"495 608 LINE",
"495 0 LINE",
"415 0 LINE"
);
},
{
closed = 1;
nodes = (
"318 60 OFFCURVE",
"352 70 OFFCURVE",
"376 88 CURVE SMOOTH",
"400 106 OFFCURVE",
"415 132 OFFCURVE",
"415 165 CURVE SMOOTH",
"415 357 LINE SMOOTH",
"415 385 OFFCURVE",
"400 411 OFFCURVE",
"376 428 CURVE SMOOTH",
"352 445 OFFCURVE",
"318 456 OFFCURVE",
"282 456 CURVE SMOOTH",
"191 456 OFFCURVE",
"136 394 OFFCURVE",
"136 302 CURVE SMOOTH",
"136 214 LINE SMOOTH",
"136 122 OFFCURVE",
"191 60 OFFCURVE",
"282 60 CURVE SMOOTH"
);
}
);
width = 580;
}
);
leftKerningGroup = d;
unicode = 0111;
},
{
glyphname = eth;
layers = (
{
layerId = "E47AB2A9-A2CF-4FC9-8B8C-127EA756ED3A";
name = Regular;
paths = (
{
closed = 1;
nodes = (
"418 712 LINE",
"340 656 LINE",
"381 615 OFFCURVE",
"423 563 OFFCURVE",
"454 499 CURVE SMOOTH",
"485 435 OFFCURVE",
"505 359 OFFCURVE",
"505 271 CURVE SMOOTH",
"505 178 OFFCURVE",
"481 107 OFFCURVE",
"441 60 CURVE SMOOTH",
"400 12 OFFCURVE",
"343 -12 OFFCURVE",
"276 -12 CURVE SMOOTH",
"205 -12 OFFCURVE",
"148 15 OFFCURVE",
"109 60 CURVE SMOOTH",
"69 105 OFFCURVE",
"47 170 OFFCURVE",
"47 246 CURVE SMOOTH",
"47 322 OFFCURVE",
"69 387 OFFCURVE",
"109 432 CURVE SMOOTH",
"148 477 OFFCURVE",
"205 504 OFFCURVE",
"276 504 CURVE SMOOTH",
"341 504 OFFCURVE",
"386 467 OFFCURVE",
"406 406 CURVE",
"410 408 LINE",
"395 484 OFFCURVE",
"346 555 OFFCURVE",
"282 615 CURVE",
"203 559 LINE",
"172 600 LINE",
"242 650 LINE",
"199 685 OFFCURVE",
"155 713 OFFCURVE",
"111 740 CURVE",
"234 740 LINE",
"254 728 OFFCURVE",
"277 712 OFFCURVE",
"300 692 CURVE",
"385 753 LINE"
);
},
{
closed = 1;
nodes = (
"363 57 OFFCURVE",
"419 117 OFFCURVE",
"419 213 CURVE SMOOTH",
"419 279 LINE SMOOTH",
"419 375 OFFCURVE",
"363 435 OFFCURVE",
"276 435 CURVE SMOOTH",
"189 435 OFFCURVE",
"133 375 OFFCURVE",
"133 279 CURVE SMOOTH",
"133 213 LINE SMOOTH",
"133 117 OFFCURVE",
"189 57 OFFCURVE",
"276 57 CURVE SMOOTH"
);
}
);
width = 555;
}
);
leftKerningGroup = d;
rightKerningGroup = o;
unicode = 00F0;
},
{
glyphname = eacute;
layers = (
{
layerId = "E47AB2A9-A2CF-4FC9-8B8C-127EA756ED3A";
name = Regular;
paths = (
{
closed = 1;
nodes = (
"208 -12 OFFCURVE",
"151 14 OFFCURVE",
"111 62 CURVE SMOOTH",
"70 109 OFFCURVE",
"47 175 OFFCURVE",
"47 258 CURVE SMOOTH",
"47 339 OFFCURVE",
"70 407 OFFCURVE",
"111 455 CURVE SMOOTH",
"151 502 OFFCURVE",
"208 528 OFFCURVE",
"279 528 CURVE SMOOTH",
"348 528 OFFCURVE",
"403 501 OFFCURVE",
"442 457 CURVE SMOOTH",
"481 412 OFFCURVE",
"502 349 OFFCURVE",
"502 276 CURVE SMOOTH",
"502 238 LINE",
"131 238 LINE",
"131 214 LINE SMOOTH",
"131 170 OFFCURVE",
"146 131 OFFCURVE",
"172 103 CURVE SMOOTH",
"198 75 OFFCURVE",
"236 58 OFFCURVE",
"284 58 CURVE SMOOTH",
"349 58 OFFCURVE",
"399 90 OFFCURVE",
"426 147 CURVE",
"483 106 LINE",
"450 35 OFFCURVE",
"376 -12 OFFCURVE",
"279 -12 CURVE SMOOTH"
);
},
{
closed = 1;
nodes = (
"235 461 OFFCURVE",
"199 445 OFFCURVE",
"173 417 CURVE SMOOTH",
"147 389 OFFCURVE",
"131 350 OFFCURVE",
"131 305 CURVE SMOOTH",
"131 298 LINE",
"416 298 LINE",
"416 309 LINE SMOOTH",
"416 401 OFFCURVE",
"362 461 OFFCURVE",
"279 461 CURVE SMOOTH"
);
},
{
closed = 1;
nodes = (
"287 585 LINE",
"235 609 LINE",
"320 779 LINE",
"393 744 LINE"
);
}
);
width = 549;
}
);
leftKerningGroup = c;
rightKerningGroup = e;
unicode = 00E9;
},
{
glyphname = ebreve;
layers = (
{
layerId = "E47AB2A9-A2CF-4FC9-8B8C-127EA756ED3A";
name = Regular;
paths = (
{
closed = 1;
nodes = (
"208 -12 OFFCURVE",
"151 14 OFFCURVE",
"111 62 CURVE SMOOTH",
"70 109 OFFCURVE",
"47 175 OFFCURVE",
"47 258 CURVE SMOOTH",
"47 339 OFFCURVE",
"70 407 OFFCURVE",
"111 455 CURVE SMOOTH",
"151 502 OFFCURVE",
"208 528 OFFCURVE",
"279 528 CURVE SMOOTH",
"348 528 OFFCURVE",
"403 501 OFFCURVE",
"442 457 CURVE SMOOTH",
"481 412 OFFCURVE",
"502 349 OFFCURVE",
"502 276 CURVE SMOOTH",
"502 238 LINE",
"131 238 LINE",
"131 214 LINE SMOOTH",
"131 170 OFFCURVE",
"146 131 OFFCURVE",
"172 103 CURVE SMOOTH",
"198 75 OFFCURVE",
"236 58 OFFCURVE",
"284 58 CURVE SMOOTH",
"349 58 OFFCURVE",
"399 90 OFFCURVE",
"426 147 CURVE",
"483 106 LINE",
"450 35 OFFCURVE",
"376 -12 OFFCURVE",
"279 -12 CURVE SMOOTH"
);
},
{
closed = 1;
nodes = (
"235 461 OFFCURVE",
"199 445 OFFCURVE",
"173 417 CURVE SMOOTH",
"147 389 OFFCURVE",
"131 350 OFFCURVE",
"131 305 CURVE SMOOTH",
"131 298 LINE",
"416 298 LINE",
"416 309 LINE SMOOTH",
"416 401 OFFCURVE",
"362 461 OFFCURVE",
"279 461 CURVE SMOOTH"
);
},
{
closed = 1;
nodes = (
"227 596 OFFCURVE",
"193 614 OFFCURVE",
"171 638 CURVE SMOOTH",
"149 662 OFFCURVE",
"137 693 OFFCURVE",
"128 721 CURVE",
"173 743 LINE",
"194 710 LINE",
"211 681 OFFCURVE",
"229 659 OFFCURVE",
"280 659 CURVE SMOOTH",
"305 659 OFFCURVE",
"323 665 OFFCURVE",
"336 674 CURVE SMOOTH",
"348 682 OFFCURVE",
"357 695 OFFCURVE",
"366 710 CURVE SMOOTH",
"387 743 LINE",
"432 721 LINE",
"423 693 OFFCURVE",
"412 662 OFFCURVE",
"390 638 CURVE SMOOTH",
"368 614 OFFCURVE",
"333 596 OFFCURVE",
"280 596 CURVE SMOOTH"
);
}
);
width = 549;
}
);
leftKerningGroup = c;
rightKerningGroup = e;
unicode = 0115;
},
{
glyphname = ecaron;
layers = (
{
layerId = "E47AB2A9-A2CF-4FC9-8B8C-127EA756ED3A";
name = Regular;
paths = (
{
closed = 1;
nodes = (
"208 -12 OFFCURVE",
"151 14 OFFCURVE",
"111 62 CURVE SMOOTH",
"70 109 OFFCURVE",
"47 175 OFFCURVE",
"47 258 CURVE SMOOTH",
"47 339 OFFCURVE",
"70 407 OFFCURVE",
"111 455 CURVE SMOOTH",
"151 502 OFFCURVE",
"208 528 OFFCURVE",
"279 528 CURVE SMOOTH",
"348 528 OFFCURVE",
"403 501 OFFCURVE",
"442 457 CURVE SMOOTH",
"481 412 OFFCURVE",
"502 349 OFFCURVE",
"502 276 CURVE SMOOTH",
"502 238 LINE",
"131 238 LINE",
"131 214 LINE SMOOTH",
"131 170 OFFCURVE",
"146 131 OFFCURVE",
"172 103 CURVE SMOOTH",
"198 75 OFFCURVE",
"236 58 OFFCURVE",
"284 58 CURVE SMOOTH",
"349 58 OFFCURVE",
"399 90 OFFCURVE",
"426 147 CURVE",
"483 106 LINE",
"450 35 OFFCURVE",
"376 -12 OFFCURVE",
"279 -12 CURVE SMOOTH"
);
},
{
closed = 1;
nodes = (
"235 461 OFFCURVE",
"199 445 OFFCURVE",
"173 417 CURVE SMOOTH",
"147 389 OFFCURVE",
"131 350 OFFCURVE",
"131 305 CURVE SMOOTH",
"131 298 LINE",
"416 298 LINE",
"416 309 LINE SMOOTH",
"416 401 OFFCURVE",
"362 461 OFFCURVE",
"279 461 CURVE SMOOTH"
);
},
{
closed = 1;
nodes = (
"230 599 LINE",
"119 742 LINE",
"163 773 LINE",
"280 656 LINE",
"397 773 LINE",
"441 742 LINE",
"330 599 LINE"
);
}
);
width = 549;
}
);
leftKerningGroup = c;
rightKerningGroup = e;
unicode = 011B;
},
{
glyphname = ecircumflex;
layers = (
{
layerId = "E47AB2A9-A2CF-4FC9-8B8C-127EA756ED3A";
name = Regular;
paths = (
{
closed = 1;
nodes = (
"208 -12 OFFCURVE",
"151 14 OFFCURVE",
"111 62 CURVE SMOOTH",
"70 109 OFFCURVE",
"47 175 OFFCURVE",
"47 258 CURVE SMOOTH",
"47 339 OFFCURVE",
"70 407 OFFCURVE",
"111 455 CURVE SMOOTH",
"151 502 OFFCURVE",
"208 528 OFFCURVE",
"279 528 CURVE SMOOTH",
"348 528 OFFCURVE",
"403 501 OFFCURVE",
"442 457 CURVE SMOOTH",
"481 412 OFFCURVE",
"502 349 OFFCURVE",
"502 276 CURVE SMOOTH",
"502 238 LINE",
"131 238 LINE",
"131 214 LINE SMOOTH",
"131 170 OFFCURVE",
"146 131 OFFCURVE",
"172 103 CURVE SMOOTH",
"198 75 OFFCURVE",
"236 58 OFFCURVE",
"284 58 CURVE SMOOTH",
"349 58 OFFCURVE",
"399 90 OFFCURVE",
"426 147 CURVE",
"483 106 LINE",
"450 35 OFFCURVE",
"376 -12 OFFCURVE",
"279 -12 CURVE SMOOTH"
);
},
{
closed = 1;
nodes = (
"235 461 OFFCURVE",
"199 445 OFFCURVE",
"173 417 CURVE SMOOTH",
"147 389 OFFCURVE",
"131 350 OFFCURVE",
"131 305 CURVE SMOOTH",
"131 298 LINE",
"416 298 LINE",
"416 309 LINE SMOOTH",
"416 401 OFFCURVE",
"362 461 OFFCURVE",
"279 461 CURVE SMOOTH"
);
},
{
closed = 1;
nodes = (
"330 765 LINE",
"441 622 LINE",
"397 591 LINE",
"280 708 LINE",
"163 591 LINE",
"119 622 LINE",
"230 765 LINE"
);
}
);
width = 549;
}
);
leftKerningGroup = c;
rightKerningGroup = e;
unicode = 00EA;
},
{
glyphname = edieresis;
layers = (
{
layerId = "E47AB2A9-A2CF-4FC9-8B8C-127EA756ED3A";
name = Regular;
paths = (
{
closed = 1;
nodes = (
"208 -12 OFFCURVE",
"151 14 OFFCURVE",
"111 62 CURVE SMOOTH",
"70 109 OFFCURVE",
"47 175 OFFCURVE",
"47 258 CURVE SMOOTH",
"47 339 OFFCURVE",
"70 407 OFFCURVE",
"111 455 CURVE SMOOTH",
"151 502 OFFCURVE",
"208 528 OFFCURVE",
"279 528 CURVE SMOOTH",
"348 528 OFFCURVE",
"403 501 OFFCURVE",
"442 457 CURVE SMOOTH",
"481 412 OFFCURVE",
"502 349 OFFCURVE",
"502 276 CURVE SMOOTH",
"502 238 LINE",
"131 238 LINE",
"131 214 LINE SMOOTH",
"131 170 OFFCURVE",
"146 131 OFFCURVE",
"172 103 CURVE SMOOTH",
"198 75 OFFCURVE",
"236 58 OFFCURVE",
"284 58 CURVE SMOOTH",
"349 58 OFFCURVE",
"399 90 OFFCURVE",
"426 147 CURVE",
"483 106 LINE",
"450 35 OFFCURVE",
"376 -12 OFFCURVE",
"279 -12 CURVE SMOOTH"
);
},
{
closed = 1;
nodes = (
"235 461 OFFCURVE",
"199 445 OFFCURVE",
"173 417 CURVE SMOOTH",
"147 389 OFFCURVE",
"131 350 OFFCURVE",
"131 305 CURVE SMOOTH",
"131 298 LINE",
"416 298 LINE",
"416 309 LINE SMOOTH",
"416 401 OFFCURVE",
"362 461 OFFCURVE",
"279 461 CURVE SMOOTH"
);
},
{
closed = 1;
nodes = (
"152 618 OFFCURVE",
"138 636 OFFCURVE",
"138 664 CURVE SMOOTH",
"138 675 LINE SMOOTH",
"138 703 OFFCURVE",
"152 721 OFFCURVE",
"187 721 CURVE SMOOTH",
"222 721 OFFCURVE",
"236 703 OFFCURVE",
"236 675 CURVE SMOOTH",
"236 664 LINE SMOOTH",
"236 636 OFFCURVE",
"222 618 OFFCURVE",
"187 618 CURVE SMOOTH"
);
},
{
closed = 1;
nodes = (
"338 618 OFFCURVE",
"324 636 OFFCURVE",
"324 664 CURVE SMOOTH",
"324 675 LINE SMOOTH",
"324 703 OFFCURVE",
"338 721 OFFCURVE",
"373 721 CURVE SMOOTH",
"408 721 OFFCURVE",
"422 703 OFFCURVE",
"422 675 CURVE SMOOTH",
"422 664 LINE SMOOTH",
"422 636 OFFCURVE",
"408 618 OFFCURVE",
"373 618 CURVE SMOOTH"
);
}
);
width = 549;
}
);
leftKerningGroup = c;
rightKerningGroup = e;
unicode = 00EB;
},
{
glyphname = edotaccent;
layers = (
{
layerId = "E47AB2A9-A2CF-4FC9-8B8C-127EA756ED3A";
name = Regular;
paths = (
{
closed = 1;
nodes = (
"208 -12 OFFCURVE",
"151 14 OFFCURVE",
"111 62 CURVE SMOOTH",
"70 109 OFFCURVE",
"47 175 OFFCURVE",
"47 258 CURVE SMOOTH",
"47 339 OFFCURVE",
"70 407 OFFCURVE",
"111 455 CURVE SMOOTH",
"151 502 OFFCURVE",
"208 528 OFFCURVE",
"279 528 CURVE SMOOTH",
"348 528 OFFCURVE",
"403 501 OFFCURVE",
"442 457 CURVE SMOOTH",
"481 412 OFFCURVE",
"502 349 OFFCURVE",
"502 276 CURVE SMOOTH",
"502 238 LINE",
"131 238 LINE",
"131 214 LINE SMOOTH",
"131 170 OFFCURVE",
"146 131 OFFCURVE",
"172 103 CURVE SMOOTH",
"198 75 OFFCURVE",
"236 58 OFFCURVE",
"284 58 CURVE SMOOTH",
"349 58 OFFCURVE",
"399 90 OFFCURVE",
"426 147 CURVE",
"483 106 LINE",
"450 35 OFFCURVE",
"376 -12 OFFCURVE",
"279 -12 CURVE SMOOTH"
);
},
{
closed = 1;
nodes = (
"235 461 OFFCURVE",
"199 445 OFFCURVE",
"173 417 CURVE SMOOTH",
"147 389 OFFCURVE",
"131 350 OFFCURVE",
"131 305 CURVE SMOOTH",
"131 298 LINE",
"416 298 LINE",
"416 309 LINE SMOOTH",
"416 401 OFFCURVE",
"362 461 OFFCURVE",
"279 461 CURVE SMOOTH"
);
},
{
closed = 1;
nodes = (
"245 616 OFFCURVE",
"229 634 OFFCURVE",
"229 662 CURVE SMOOTH",
"229 673 LINE SMOOTH",
"229 701 OFFCURVE",
"245 719 OFFCURVE",
"280 719 CURVE SMOOTH",
"315 719 OFFCURVE",
"331 701 OFFCURVE",
"331 673 CURVE SMOOTH",
"331 662 LINE SMOOTH",
"331 634 OFFCURVE",
"315 616 OFFCURVE",
"280 616 CURVE SMOOTH"
);
}
);
width = 549;
}
);
leftKerningGroup = c;
rightKerningGroup = e;
unicode = 0117;
},
{
glyphname = uni1EB9;
layers = (
{
layerId = "E47AB2A9-A2CF-4FC9-8B8C-127EA756ED3A";
name = Regular;
paths = (
{
closed = 1;
nodes = (
"208 -12 OFFCURVE",
"151 14 OFFCURVE",
"111 62 CURVE SMOOTH",
"70 109 OFFCURVE",
"47 175 OFFCURVE",
"47 258 CURVE SMOOTH",
"47 339 OFFCURVE",
"70 407 OFFCURVE",
"111 455 CURVE SMOOTH",
"151 502 OFFCURVE",
"208 528 OFFCURVE",
"279 528 CURVE SMOOTH",
"348 528 OFFCURVE",
"403 501 OFFCURVE",
"442 457 CURVE SMOOTH",
"481 412 OFFCURVE",
"502 349 OFFCURVE",
"502 276 CURVE SMOOTH",
"502 238 LINE",
"131 238 LINE",
"131 214 LINE SMOOTH",
"131 170 OFFCURVE",
"146 131 OFFCURVE",
"172 103 CURVE SMOOTH",
"198 75 OFFCURVE",
"236 58 OFFCURVE",
"284 58 CURVE SMOOTH",
"349 58 OFFCURVE",
"399 90 OFFCURVE",
"426 147 CURVE",
"483 106 LINE",
"450 35 OFFCURVE",
"376 -12 OFFCURVE",
"279 -12 CURVE SMOOTH"
);
},
{
closed = 1;
nodes = (
"235 461 OFFCURVE",
"199 445 OFFCURVE",
"173 417 CURVE SMOOTH",
"147 389 OFFCURVE",
"131 350 OFFCURVE",
"131 305 CURVE SMOOTH",
"131 298 LINE",
"416 298 LINE",
"416 309 LINE SMOOTH",
"416 401 OFFCURVE",
"362 461 OFFCURVE",
"279 461 CURVE SMOOTH"
);
},
{
closed = 1;
nodes = (
"248 -169 OFFCURVE",
"232 -151 OFFCURVE",
"232 -123 CURVE SMOOTH",
"232 -112 LINE SMOOTH",
"232 -84 OFFCURVE",
"248 -66 OFFCURVE",
"283 -66 CURVE SMOOTH",
"318 -66 OFFCURVE",
"334 -84 OFFCURVE",
"334 -112 CURVE SMOOTH",
"334 -123 LINE SMOOTH",
"334 -151 OFFCURVE",
"318 -169 OFFCURVE",
"283 -169 CURVE SMOOTH"
);
}
);
width = 549;
}
);
leftKerningGroup = c;
rightKerningGroup = e;
unicode = 1EB9;
},
{
glyphname = egrave;
layers = (
{
layerId = "E47AB2A9-A2CF-4FC9-8B8C-127EA756ED3A";
name = Regular;
paths = (
{
closed = 1;
nodes = (
"208 -12 OFFCURVE",
"151 14 OFFCURVE",
"111 62 CURVE SMOOTH",
"70 109 OFFCURVE",
"47 175 OFFCURVE",
"47 258 CURVE SMOOTH",
"47 339 OFFCURVE",
"70 407 OFFCURVE",
"111 455 CURVE SMOOTH",
"151 502 OFFCURVE",
"208 528 OFFCURVE",
"279 528 CURVE SMOOTH",
"348 528 OFFCURVE",
"403 501 OFFCURVE",
"442 457 CURVE SMOOTH",
"481 412 OFFCURVE",
"502 349 OFFCURVE",
"502 276 CURVE SMOOTH",
"502 238 LINE",
"131 238 LINE",
"131 214 LINE SMOOTH",
"131 170 OFFCURVE",
"146 131 OFFCURVE",
"172 103 CURVE SMOOTH",
"198 75 OFFCURVE",
"236 58 OFFCURVE",
"284 58 CURVE SMOOTH",
"349 58 OFFCURVE",
"399 90 OFFCURVE",
"426 147 CURVE",
"483 106 LINE",
"450 35 OFFCURVE",
"376 -12 OFFCURVE",
"279 -12 CURVE SMOOTH"
);
},
{
closed = 1;
nodes = (
"235 461 OFFCURVE",
"199 445 OFFCURVE",
"173 417 CURVE SMOOTH",
"147 389 OFFCURVE",
"131 350 OFFCURVE",
"131 305 CURVE SMOOTH",
"131 298 LINE",
"416 298 LINE",
"416 309 LINE SMOOTH",
"416 401 OFFCURVE",
"362 461 OFFCURVE",
"279 461 CURVE SMOOTH"
);
},
{
closed = 1;
nodes = (
"167 744 LINE",
"240 779 LINE",
"325 609 LINE",
"273 585 LINE"
);
}
);
width = 549;
}
);
leftKerningGroup = c;
rightKerningGroup = e;
unicode = 00E8;
},
{
glyphname = uni1EBB;
layers = (
{
layerId = "E47AB2A9-A2CF-4FC9-8B8C-127EA756ED3A";
name = Regular;
paths = (
{
closed = 1;
nodes = (
"208 -12 OFFCURVE",
"151 14 OFFCURVE",
"111 62 CURVE SMOOTH",
"70 109 OFFCURVE",
"47 175 OFFCURVE",
"47 258 CURVE SMOOTH",
"47 339 OFFCURVE",
"70 407 OFFCURVE",
"111 455 CURVE SMOOTH",
"151 502 OFFCURVE",
"208 528 OFFCURVE",
"279 528 CURVE SMOOTH",
"348 528 OFFCURVE",
"403 501 OFFCURVE",
"442 457 CURVE SMOOTH",
"481 412 OFFCURVE",
"502 349 OFFCURVE",
"502 276 CURVE SMOOTH",
"502 238 LINE",
"131 238 LINE",
"131 214 LINE SMOOTH",
"131 170 OFFCURVE",
"146 131 OFFCURVE",
"172 103 CURVE SMOOTH",
"198 75 OFFCURVE",
"236 58 OFFCURVE",
"284 58 CURVE SMOOTH",
"349 58 OFFCURVE",
"399 90 OFFCURVE",
"426 147 CURVE",
"483 106 LINE",
"450 35 OFFCURVE",
"376 -12 OFFCURVE",
"279 -12 CURVE SMOOTH"
);
},
{
closed = 1;
nodes = (
"235 461 OFFCURVE",
"199 445 OFFCURVE",
"173 417 CURVE SMOOTH",
"147 389 OFFCURVE",
"131 350 OFFCURVE",
"131 305 CURVE SMOOTH",
"131 298 LINE",
"416 298 LINE",
"416 309 LINE SMOOTH",
"416 401 OFFCURVE",
"362 461 OFFCURVE",
"279 461 CURVE SMOOTH"
);
},
{
closed = 1;
nodes = (
"195 765 LINE",
"304 765 LINE SMOOTH",
"355 765 OFFCURVE",
"374 741 OFFCURVE",
"374 710 CURVE SMOOTH",
"374 681 OFFCURVE",
"356 646 OFFCURVE",
"325 607 CURVE SMOOTH",
"301 577 LINE",
"255 600 LINE",
"313 704 LINE",
"195 704 LINE"
);
}
);
width = 549;
}
);
leftKerningGroup = c;
rightKerningGroup = e;
unicode = 1EBB;
},
{
glyphname = emacron;
layers = (
{
layerId = "E47AB2A9-A2CF-4FC9-8B8C-127EA756ED3A";
name = Regular;
paths = (
{
closed = 1;
nodes = (
"208 -12 OFFCURVE",
"151 14 OFFCURVE",
"111 62 CURVE SMOOTH",
"70 109 OFFCURVE",
"47 175 OFFCURVE",
"47 258 CURVE SMOOTH",
"47 339 OFFCURVE",
"70 407 OFFCURVE",
"111 455 CURVE SMOOTH",
"151 502 OFFCURVE",
"208 528 OFFCURVE",
"279 528 CURVE SMOOTH",
"348 528 OFFCURVE",
"403 501 OFFCURVE",
"442 457 CURVE SMOOTH",
"481 412 OFFCURVE",
"502 349 OFFCURVE",
"502 276 CURVE SMOOTH",
"502 238 LINE",
"131 238 LINE",
"131 214 LINE SMOOTH",
"131 170 OFFCURVE",
"146 131 OFFCURVE",
"172 103 CURVE SMOOTH",
"198 75 OFFCURVE",
"236 58 OFFCURVE",
"284 58 CURVE SMOOTH",
"349 58 OFFCURVE",
"399 90 OFFCURVE",
"426 147 CURVE",
"483 106 LINE",
"450 35 OFFCURVE",
"376 -12 OFFCURVE",
"279 -12 CURVE SMOOTH"
);
},
{
closed = 1;
nodes = (
"235 461 OFFCURVE",
"199 445 OFFCURVE",
"173 417 CURVE SMOOTH",
"147 389 OFFCURVE",
"131 350 OFFCURVE",
"131 305 CURVE SMOOTH",
"131 298 LINE",
"416 298 LINE",
"416 309 LINE SMOOTH",
"416 401 OFFCURVE",
"362 461 OFFCURVE",
"279 461 CURVE SMOOTH"
);
},
{
closed = 1;
nodes = (
"140 705 LINE",
"420 705 LINE",
"420 637 LINE",
"140 637 LINE"
);
}
);
width = 549;
}
);
leftKerningGroup = c;
rightKerningGroup = e;
unicode = 0113;
},
{
glyphname = eogonek;
layers = (
{
layerId = "E47AB2A9-A2CF-4FC9-8B8C-127EA756ED3A";
name = Regular;
paths = (
{
closed = 1;
nodes = (
"304 -207 OFFCURVE",
"262 -185 OFFCURVE",
"262 -130 CURVE SMOOTH",
"262 -101 OFFCURVE",
"275 -75 OFFCURVE",
"295 -54 CURVE SMOOTH",
"315 -33 OFFCURVE",
"340 -16 OFFCURVE",
"364 0 CURVE",
"360 5 LINE",
"343 -4 OFFCURVE",
"318 -12 OFFCURVE",
"279 -12 CURVE SMOOTH",
"208 -12 OFFCURVE",
"151 14 OFFCURVE",
"111 62 CURVE SMOOTH",
"70 109 OFFCURVE",
"47 175 OFFCURVE",
"47 258 CURVE SMOOTH",
"47 339 OFFCURVE",
"70 407 OFFCURVE",
"111 455 CURVE SMOOTH",
"151 502 OFFCURVE",
"208 528 OFFCURVE",
"279 528 CURVE SMOOTH",
"348 528 OFFCURVE",
"403 501 OFFCURVE",
"442 457 CURVE SMOOTH",
"481 412 OFFCURVE",
"502 349 OFFCURVE",
"502 276 CURVE SMOOTH",
"502 238 LINE",
"131 238 LINE",
"131 214 LINE SMOOTH",
"131 170 OFFCURVE",
"146 131 OFFCURVE",
"172 103 CURVE SMOOTH",
"198 75 OFFCURVE",
"236 58 OFFCURVE",
"284 58 CURVE SMOOTH",
"349 58 OFFCURVE",
"399 90 OFFCURVE",
"426 147 CURVE",
"483 106 LINE",
"472 83 OFFCURVE",
"464 70 OFFCURVE",
"449 53 CURVE",
"439 40 OFFCURVE",
"427 27 OFFCURVE",
"413 13 CURVE SMOOTH",
"385 -15 OFFCURVE",
"358 -45 OFFCURVE",
"340 -76 CURVE SMOOTH",
"331 -92 OFFCURVE",
"326 -107 OFFCURVE",
"326 -122 CURVE SMOOTH",
"326 -145 OFFCURVE",
"338 -153 OFFCURVE",
"357 -153 CURVE SMOOTH",
"376 -153 OFFCURVE",
"392 -145 OFFCURVE",
"405 -129 CURVE",
"444 -168 LINE",
"432 -189 OFFCURVE",
"403 -207 OFFCURVE",
"356 -207 CURVE SMOOTH"
);
},
{
closed = 1;
nodes = (
"416 298 LINE",
"416 309 LINE SMOOTH",
"416 401 OFFCURVE",
"362 461 OFFCURVE",
"279 461 CURVE SMOOTH",
"235 461 OFFCURVE",
"199 445 OFFCURVE",
"173 417 CURVE SMOOTH",
"147 389 OFFCURVE",
"131 350 OFFCURVE",
"131 305 CURVE SMOOTH",
"131 298 LINE"
);
}
);
width = 549;
}
);
leftKerningGroup = c;
rightKerningGroup = e;
unicode = 0119;
},
